STARTFONT 2.1
FONT -HP-Sung-Medium-R-Normal--34-340-75-75-C-340-CNS11643.1992-4
SIZE 34 75 75
FONTBOUNDINGBOX 34 34 0 -2

STARTPROPERTIES 23
FONTNAME_REGISTRY ""
FOUNDRY "HP"
FAMILY_NAME "Sung"
WEIGHT_NAME "Medium"
SLANT "R"
SETWIDTH_NAME "Normal"
ADD_STYLE_NAME ""
PIXEL_SIZE 34
POINT_SIZE 340
RESOLUTION_X 75
RESOLUTION_Y 75
SPACING "C"
AVERAGE_WIDTH 340
CHARSET_REGISTRY "CNS11643.1992"
CHARSET_ENCODING "4"
COPYRIGHT "Copyright (c) 1994 Hewlett-Packard Company."
_HP_ASXVERSION "@(#) ASX 3.00 $Revision: 13.9 $ sungX34n4"
WEIGHT 10
X_HEIGHT 13
QUAD_WIDTH 34
DEFAULT_CHAR 28253
FONT_DESCENT 2
FONT_ASCENT 32
ENDPROPERTIES

CHARS 7299

STARTCHAR cns4_2121
ENCODING 8481
SWIDTH 960 0
DWIDTH 34 0
BBX 34 34 0 -2
BITMAP
0000000000
0000000000
0000000700
000000FE00
00001FF800
0087FF0000
00FFE00000
00C0000000
00C0000000
00C0000000
00C0000000
00C0000000
00C0000000
00C0000000
00C0000000
00C0000000
00C0000000
00C0000000
00C0000000
00C0000000
0180000000
0180000000
0180000000
0180000000
0180000000
0300000000
0300000000
0300000000
0600000000
0600000000
0C00000000
0C00000000
1800000000
0000000000
ENDCHAR

STARTCHAR cns4_2122
ENCODING 8482
SWIDTH 960 0
DWIDTH 34 0
BBX 34 34 0 -2
BITMAP
0000000000
0000000000
0000000000
0000000000
0000000000
0000000000
0000000000
0003000000
001F800000
003B000000
01E3000000
0783000000
1E01800000
0001800000
0001800000
0000C00000
0000C00000
0000C00000
0000600000
0000600000
0000300000
0000300000
0000180000
00001C0000
00000E0000
0000070000
0000078000
000003C000
000001E000
000000F000
0000004000
0000000000
0000000000
0000000000
ENDCHAR

STARTCHAR cns4_2123
ENCODING 8483
SWIDTH 960 0
DWIDTH 34 0
BBX 34 34 0 -2
BITMAP
0000000000
0000000000
0000000000
0000000000
0000000000
0000000000
0000000000
0000000000
0000000000
0001800000
0FFFC00000
0001800000
0001800000
0001800000
0000C00000
0000C00000
0000600000
0000600000
0000300000
0000300000
0000180000
00000C0000
00000C0000
0000060000
0000070000
0000038000
000001C000
000000E000
000000F000
0000007C00
0000001C00
0000000000
0000000000
0000000000
ENDCHAR

STARTCHAR cns4_2124
ENCODING 8484
SWIDTH 960 0
DWIDTH 34 0
BBX 34 34 0 -2
BITMAP
0000000000
0000000000
0000000000
0000000000
00E0000000
00C0000000
00C0000000
00C0000000
00C0000000
00C0000000
00C0000000
00C0000000
00C0000000
00C0000000
00C0000000
00C0000000
00C0000000
00C0000000
00C0000000
00C0000000
00C0000000
00C0000000
00C0000000
00C0002000
00C0002000
00C0002000
00C0002000
00C0003000
00E0007000
007FFFF000
003FFFE000
0000000000
0000000000
0000000000
ENDCHAR

STARTCHAR cns4_2125
ENCODING 8485
SWIDTH 960 0
DWIDTH 34 0
BBX 34 34 0 -2
BITMAP
0000000000
0000000000
0000000000
0000E00000
0001C00000
0001800000
0001800000
0003000000
0003000000
0003000000
0006000000
0006000000
0006000000
000C000000
000C000000
0018000000
0030000000
0030000000
0018000000
0018000000
000C000000
000C000000
0006000000
0006000000
0003000000
0003000000
0003000000
0001800000
0001800000
0000C00000
0000E00000
0000000000
0000000000
0000000000
ENDCHAR

STARTCHAR cns4_2126
ENCODING 8486
SWIDTH 960 0
DWIDTH 34 0
BBX 34 34 0 -2
BITMAP
0000000000
0000000000
0000000000
0000000000
0000001800
0FFFFFFC00
0018000000
0018000000
0030000000
0030000000
0030000000
0030000000
003000C000
007FFFE000
006000C000
006000C000
006000C000
0000018000
0000018000
0000018000
0000018000
0000018000
0000030000
0000030000
0000030000
0000060000
0000060000
00000C0000
00001C0000
0003F80000
0000700000
0000000000
0000000000
0000000000
ENDCHAR

STARTCHAR cns4_2127
ENCODING 8487
SWIDTH 960 0
DWIDTH 34 0
BBX 34 34 0 -2
BITMAP
0000000000
0000000000
0000000000
000001C000
0000018000
001C018000
0018018000
0018018000
0018018000
0018018000
0018018000
0018018000
0018018000
0018018000
0018018000
0018018000
00183F8000
001BF18000
003F818000
00F0018000
0000018000
0000018000
0000018000
0000018000
0000018000
0000018000
0000018000
0000018000
0000018000
0000018000
0000018000
0000018000
0000018000
0000000000
ENDCHAR

STARTCHAR cns4_2128
ENCODING 8488
SWIDTH 960 0
DWIDTH 34 0
BBX 34 34 0 -2
BITMAP
0000000000
0000000000
0000000000
0000030000
1FFFFF8000
0000030000
0000030000
0000030000
0000060000
0000060000
0000060000
0000060000
00000C0C00
00000FFE00
00000C0C00
00000C0C00
0000000C00
0000000C00
0000000C00
0000000C00
0000001800
0000001800
0000001800
0000001800
0000001800
0000003000
0000003000
0000007000
00000FE000
000001C000
0000000000
0000000000
0000000000
0000000000
ENDCHAR

STARTCHAR cns4_2129
ENCODING 8489
SWIDTH 960 0
DWIDTH 34 0
BBX 34 34 0 -2
BITMAP
0000000000
0000000000
0000000000
0010030000
001FFF8000
0018030000
0018030000
0018030000
0018030000
0018030000
0018030000
0018030000
0018030000
0018030000
0018030000
0018030000
0018030000
0018030000
0030030000
0030030000
0030030000
0030030000
0060030000
0060030000
00C0030000
00C0030000
0180030000
0300030000
0600030000
0C0003FE00
180001FE00
3000000000
0000000000
0000000000
ENDCHAR

STARTCHAR cns4_212A
ENCODING 8490
SWIDTH 960 0
DWIDTH 34 0
BBX 34 34 0 -2
BITMAP
0000000000
0000000000
00000E0000
00000C0000
000E0C0000
000C0C0000
000C0C0000
000C0C0000
000C0C0000
000C0C0000
000C0C0000
000C0C0000
000C0C0000
000C0C0000
000C0C0000
000C0C0000
000C0C0000
000C0C0000
000C0C0000
000C0C0000
000C0C0000
000C0C0000
000C0C0000
000C0C0000
000C0C0000
00000C0000
00000C0000
00000C0000
00000C0000
00001C0000
0001FC0000
0000380000
0000000000
0000000000
ENDCHAR

STARTCHAR cns4_212B
ENCODING 8491
SWIDTH 960 0
DWIDTH 34 0
BBX 34 34 0 -2
BITMAP
0000000000
0000000000
0000000000
0200030000
03FFFF8000
0300030000
0300030000
0300030000
0300030000
0300030000
0300030000
0300060000
0300060000
0300060000
0300060000
0300060000
0300060000
03000E0000
0301FC0000
0300380000
0300000000
0300000000
0300000000
0300000000
0300004000
0300004000
0300004000
0300006000
038000E000
03FFFFE000
01FFFFC000
0000000000
0000000000
0000000000
ENDCHAR

STARTCHAR cns4_212C
ENCODING 8492
SWIDTH 960 0
DWIDTH 34 0
BBX 34 34 0 -2
BITMAP
0000000000
0000000000
0000000000
0000000000
0000000000
0007007000
000F007000
000C00E000
001801C000
0018018000
0030030000
0030030000
0060060000
0060060000
00C00C0000
0180180000
0780F00000
0300600000
0180300000
0180180000
00C01C0000
00600E0000
0030070000
0038030000
001C038000
001C01C000
000E01E000
000600E000
0006006000
0006006000
0000000000
0000000000
0000000000
0000000000
ENDCHAR

STARTCHAR cns4_212D
ENCODING 8493
SWIDTH 960 0
DWIDTH 34 0
BBX 34 34 0 -2
BITMAP
0000000000
0000000000
0000000000
0800000C00
0FFFFFFE00
0C00000C00
0C00000C00
0C00000C00
0C00000C00
0C00000C00
0C00000C00
0C00000C00
0C00000C00
0C00000C00
0C00030C00
0C7FFF8C00
0C00000C00
0C00000C00
0C00000C00
0C00000C00
0C00000C00
0C00000C00
0C00000C00
0C00000C00
0C00000C00
0C00000C00
0C00000C00
0C00000C00
0C00000C00
0C00001C00
0C0001FC00
0C00003800
0C00000000
0000000000
ENDCHAR

STARTCHAR cns4_212E
ENCODING 8494
SWIDTH 960 0
DWIDTH 34 0
BBX 34 34 0 -2
BITMAP
0000000000
0000000000
0000000000
1C00000E00
1800000C00
1800000C00
1800000C00
1800000C00
1800000C00
1800000C00
1800000C00
1800000C00
1800000C00
180000CC00
1BFFFFEC00
1800000C00
1800000C00
1800000C00
1800000C00
1800000C00
1800000C00
1800000C00
1800000C00
1800000C00
1800000C00
1800000C00
1800000C00
1800000C00
1FFFFFFC00
1800000C00
1800000C00
0000000000
0000000000
0000000000
ENDCHAR

STARTCHAR cns4_212F
ENCODING 8495
SWIDTH 960 0
DWIDTH 34 0
BBX 34 34 0 -2
BITMAP
0000000000
0000000000
0000000000
0070000000
0060000000
00C0000000
00C0000000
00C0000C00
01FFFFFE00
0180000C00
0180000C00
0300000C00
0300000C00
0600000C00
0600000C00
0C00031800
18FFFF9800
0000001800
0000001800
0000001800
0000001800
0000001800
0000001800
0000003000
0000003000
0000003000
0000003000
0000003000
0000006000
00000FE000
000001C000
0000000000
0000000000
0000000000
ENDCHAR

STARTCHAR cns4_2130
ENCODING 8496
SWIDTH 960 0
DWIDTH 34 0
BBX 34 34 0 -2
BITMAP
0000000000
0000000000
0000000000
0000018000
1FFFFFC000
0000018000
000E018000
000C018000
000C018000
000C018000
000C018000
000C018000
000C018000
000C018000
000C0D8000
1FFFFF8000
000C018000
000C018000
000C018000
000C018200
000C018200
000C018200
000C018300
000C018300
000C01C700
000C01FF00
000C00FE00
000C000000
000C000000
000C000000
000C000000
0000000000
0000000000
0000000000
ENDCHAR

STARTCHAR cns4_2131
ENCODING 8497
SWIDTH 960 0
DWIDTH 34 0
BBX 34 34 0 -2
BITMAP
0000000000
0000000000
0040018000
007FFFC000
0060018000
0060018000
0060018000
0060018000
0060018000
0060018000
0063018000
0061818000
0061818000
0060C18000
0060C18000
0060C18000
0060018000
0060018000
0060018000
0060018000
0060038000
00603F8000
0060070000
0060000000
0060000000
0060000000
0060000000
0060000000
0060000000
0060000000
0060000000
0060000000
0000000000
0000000000
ENDCHAR

STARTCHAR cns4_2132
ENCODING 8498
SWIDTH 960 0
DWIDTH 34 0
BBX 34 34 0 -2
BITMAP
0000000000
0000000000
0000000000
0000006000
01FFFFF000
0000006000
000000C000
0000018000
0000070000
00000C0000
0000F80000
0000C00000
0000C00000
0000C00000
0000C00000
0000C00600
0000FFFF00
0000C00000
0000C00000
0000C00000
0000C00000
0000C00000
0000C00000
0000C00000
0000C00000
0000C00000
0000C00000
0000C00000
0001C00000
001FC00000
0003800000
0000000000
0000000000
0000000000
ENDCHAR

STARTCHAR cns4_2133
ENCODING 8499
SWIDTH 960 0
DWIDTH 34 0
BBX 34 34 0 -2
BITMAP
0000000000
0000000000
0000003000
07FFFFF800
0000007000
000001C000
0000070000
00000C0000
0000300000
0000E00000
0000C00000
0000C00000
0000C00000
0000C00000
0000C00000
0000C00000
0000C00000
0003C00000
007EC00000
1FF0C00000
1F00C00000
0000C00000
0000C00000
0000C00000
0000C00000
0000C00000
0000C00000
0000C00000
0000C00000
0001C00000
001FC00000
0003800000
0000000000
0000000000
ENDCHAR

STARTCHAR cns4_2134
ENCODING 8500
SWIDTH 960 0
DWIDTH 34 0
BBX 34 34 0 -2
BITMAP
0000000000
0000000000
0001C00000
0001800000
0001800000
0001800000
0001800000
0001800000
0001800000
0001800600
1FFFFFFF00
0001800000
0001800000
0001B80000
0001B00000
0001B00000
0003300000
0003300000
0003300000
0003300000
0006300000
0006300000
0006300000
0006300200
000C300200
0018300200
0030300200
0060300300
00C0300300
0300380700
06003FFF00
18001FFE00
3000000000
0000000000
ENDCHAR

STARTCHAR cns4_2135
ENCODING 8501
SWIDTH 960 0
DWIDTH 34 0
BBX 34 34 0 -2
BITMAP
0000000000
0000000000
0000E00000
0000C00000
0000C00000
0000C00000
0000C00000
0700C01C00
0600C01800
0600C01800
0600C01800
0600C01800
0600C01800
0600C01800
0600C01800
0600C01800
0600C01800
0600C01800
0600C01800
0600C01800
07FFFFF800
0601801800
0601801800
0003000000
0003000000
0006000000
000E000000
000C000000
0018000000
0030000000
0060000000
0380000000
0000000000
0000000000
ENDCHAR

STARTCHAR cns4_2136
ENCODING 8502
SWIDTH 960 0
DWIDTH 34 0
BBX 34 34 0 -2
BITMAP
0000000000
0000000000
0000E00000
0000C00000
0000C00000
0000C00000
0000C00000
0000C00000
0000D80000
0008CC0000
0008C60000
0018C70000
0018C30000
0018C00000
0038C00000
0030C00000
0000C00000
0000C00000
0000C00000
0000C00000
0000C00000
0000C00000
0000C00000
0000C00000
0000C00000
0000C00000
0000C00000
0000C00000
0000C00000
0000C00000
0000C00000
0000C00000
0000C00000
0000000000
ENDCHAR

STARTCHAR cns4_2137
ENCODING 8503
SWIDTH 960 0
DWIDTH 34 0
BBX 34 34 0 -2
BITMAP
0000000000
0000000000
0000E00000
0000C00000
0000C00000
0000C00000
0000C00000
0000C00000
0000C01800
0FFFFFFC00
0000C00000
0000C00000
0000C00000
0000C00000
0000C03800
0000C0F000
0000C7C000
0000DC0000
0001F00000
000FC00000
007CC00000
03E0C00000
0380C00000
0000C00000
0000C00000
0000C00000
0000C00000
0000C00000
0000C00000
0001C00000
001FC00000
0003800000
0000000000
0000000000
ENDCHAR

STARTCHAR cns4_2138
ENCODING 8504
SWIDTH 960 0
DWIDTH 34 0
BBX 34 34 0 -2
BITMAP
0000000000
0000000000
0000030000
0006078000
00030E0000
00018C0000
0000D80000
0000F00000
0000E00000
0001B00000
0003300000
000E180000
0078180000
01C0180000
0000180000
00003C0000
00006C0000
0000CC0000
00018C0000
00070C0000
000C0C0000
00300C0000
00C00C0000
00000C0000
00000C0000
00000C0000
0000180000
0000180000
0000180000
0000300000
000FE00000
0001C00000
0000000000
0000000000
ENDCHAR

STARTCHAR cns4_2139
ENCODING 8505
SWIDTH 960 0
DWIDTH 34 0
BBX 34 34 0 -2
BITMAP
0000000000
0000000000
0000000000
0000003000
03FFFFF800
0001803000
0001803000
0001803000
0001803000
0001803000
0001803000
01C1803000
0071803000
001D803000
0007803000
0003803000
0001E03000
0003703000
00033C3000
00061C6000
00060C6000
000C006000
0018006000
0030006000
006000C000
00C000C000
018001C000
03003F8000
0000070000
0000000600
3FFFFFFF00
0000000000
0000000000
0000000000
ENDCHAR

STARTCHAR cns4_213A
ENCODING 8506
SWIDTH 960 0
DWIDTH 34 0
BBX 34 34 0 -2
BITMAP
0000000000
0000000000
0000700000
0000600000
0000600000
0000603C00
000061F800
00006FC000
0000FC0000
001FE00000
0FFC600000
0000601E00
0000603C00
000061F000
00006F8000
0000FC0000
007FE00000
07E0600000
0000601E00
0000603C00
000061F000
00006F8000
0001F80000
00FFE00000
07C0600000
0000600000
0000600000
0000600000
0000600000
0000600000
0000600000
0000600000
0000600000
0000000000
ENDCHAR

STARTCHAR cns4_213B
ENCODING 8507
SWIDTH 960 0
DWIDTH 34 0
BBX 34 34 0 -2
BITMAP
0000000000
0000000000
0000000000
0000000000
0000006000
03FFFFF000
0000000000
0000000000
0000000000
0000000000
0000000000
0000000000
0000000C00
1FFFFFFE00
0000000000
0000000000
0000000000
0000000000
0000000000
0000003000
07FFFFF800
0000000000
0000000000
0000000000
0000000000
0000000000
0000000000
0000000600
3FFFFFFF00
0000000000
0000000000
0000000000
0000000000
0000000000
ENDCHAR

STARTCHAR cns4_213C
ENCODING 8508
SWIDTH 960 0
DWIDTH 34 0
BBX 34 34 0 -2
BITMAP
0000000000
0000000000
0001C00000
0001800000
0003C00000
0003600000
0006300000
000C180000
00180C0000
0030060000
0060030000
00C0E18000
0180C0E000
0300C07800
0C00C01F00
3000C00000
0000C00000
0000C00000
0000C00C00
1FFFFFFE00
0000C00000
0000C00000
0000C00000
0000C00000
0000C00000
0000C00000
0000C00000
0000C00000
0000C00000
0000C00000
0000C00000
0000C00000
0000C00000
0000000000
ENDCHAR

STARTCHAR cns4_213D
ENCODING 8509
SWIDTH 960 0
DWIDTH 34 0
BBX 34 34 0 -2
BITMAP
0000000000
0000000000
0000700000
0000600000
0000600000
0000600000
0000600000
0000606000
03FFFFF000
0000600000
0000600000
01C0600000
0180600000
0180600000
0180600000
0300600000
0300601800
03FFFFFC00
0300C00000
0300C00000
0000F80000
0001B00000
0001B00000
0003300000
0003300000
0006300800
000C300800
0018300800
0030300C00
0060381C00
01803FFC00
06001FF800
0000000000
0000000000
ENDCHAR

STARTCHAR cns4_213E
ENCODING 8510
SWIDTH 960 0
DWIDTH 34 0
BBX 34 34 0 -2
BITMAP
0000000000
0000000000
0800000C00
0FFFFFFE00
0C00000C00
0C00000C00
0C00000C00
0C00000C00
0C00000C00
0C00000C00
0C0000CC00
0DFFFFEC00
0C00000C00
0C00000C00
0C00000C00
0C00000C00
0C00000C00
0C00000C00
0C0000CC00
0DFFFFEC00
0C00000C00
0C00000C00
0C00000C00
0C00000C00
0C00000C00
0C00000C00
0C00000C00
0C00000C00
0C00001C00
0C0001FC00
0C00003800
0C00000000
0000000000
0000000000
ENDCHAR

STARTCHAR cns4_213F
ENCODING 8511
SWIDTH 960 0
DWIDTH 34 0
BBX 34 34 0 -2
BITMAP
0000000000
0000000000
0000000000
0000000000
0000000000
0000000000
0001800000
0001C00000
0003C00000
0007E00000
000E1C0000
001C070000
003803C000
006000F000
00C0007800
0301803C00
0C01C01C00
3003C00000
0007E00000
000E300000
001C180000
00380C0000
0070060000
00C0038000
018000E000
0300003800
0C00000E00
3000000000
0000000000
0000000000
0000000000
0000000000
0000000000
0000000000
ENDCHAR

STARTCHAR cns4_2140
ENCODING 8512
SWIDTH 960 0
DWIDTH 34 0
BBX 34 34 0 -2
BITMAP
0000000000
0000000000
0000000700
0000600600
1FFFF00600
0060600600
006061C600
0060618600
0060618600
0060618600
0060618600
0060618600
0060618600
0060618600
0060618600
00C0618600
00C0618600
00C0618600
00C0618600
00C0618600
0180618600
0180C18600
0180C18600
0300C18600
0300C00600
0300C00600
0600C00600
0600C00600
0C01800600
0C03800600
187F00FE00
300E001C00
0000000000
0000000000
ENDCHAR

STARTCHAR cns4_2141
ENCODING 8513
SWIDTH 960 0
DWIDTH 34 0
BBX 34 34 0 -2
BITMAP
0000000000
0000000000
0000000600
00037FFF00
3FFF818600
00C3018600
00C3018600
00C3018600
00C3018600
00C3030600
00C3030600
00C3030600
0183030C00
0183030C00
0183030C00
0183030C00
0186060C00
0186060C00
0306060C00
0306060C00
0306060C00
03060C0C00
03060C1800
06060C1800
06060C1800
060C181800
0C0C181800
0C0C301800
0C18303000
1BF86FE000
1870C1C000
3000000000
0000000000
0000000000
ENDCHAR

STARTCHAR cns4_2142
ENCODING 8514
SWIDTH 960 0
DWIDTH 34 0
BBX 34 34 0 -2
BITMAP
0000000000
0000000000
0070000000
0060000000
0060000000
0060000000
0060006000
007FFFF000
0060000800
0060000800
0060000800
0060000C00
0070001C00
003FFFF800
0000000000
0000E00000
0000C00000
0000C00000
0000C00000
0000C00000
0000C00C00
1FFFFFFE00
0000C00000
0000C00000
0000C00000
0000C00000
0000C00000
0000C00000
0000C00000
0000C00000
0000C00000
0000C00000
0000C00000
0000000000
ENDCHAR

STARTCHAR cns4_2143
ENCODING 8515
SWIDTH 960 0
DWIDTH 34 0
BBX 34 34 0 -2
BITMAP
0000000000
0000000000
200C200C00
3FFE3FFE00
300C300C00
300C300C00
300C300C00
300C300C00
300C300C00
300C300C00
300C300C00
300C301800
300C301800
3018301800
3018301800
3018301800
3018301800
3018303800
303837F000
37F030E000
30E0300000
3000300000
3000300000
3000300000
3002300200
3002300200
3002300200
3002300200
3003300300
3807380700
1FFF1FFF00
0FFE0FFE00
0000000000
0000000000
ENDCHAR

STARTCHAR cns4_2144
ENCODING 8516
SWIDTH 960 0
DWIDTH 34 0
BBX 34 34 0 -2
BITMAP
0000000000
0000000000
000E000000
001C000000
00180C0000
003FFE0000
00600C0000
00C00C0000
0180180000
0300300000
0600600600
1BFFFFFF00
0300000000
0300000000
0300000000
0300000000
0300000000
0300000000
0300000000
0300000000
0300000000
0300000000
0600000000
0600000000
0600000000
0600000000
0C00000000
0C00000000
0C00000000
1800000000
3000000000
6000000000
0000000000
0000000000
ENDCHAR

STARTCHAR cns4_2145
ENCODING 8517
SWIDTH 960 0
DWIDTH 34 0
BBX 34 34 0 -2
BITMAP
0000000000
0000000000
0000000000
007000E000
006000C000
006000C000
0060018000
0060018000
00C0018000
00C0018000
00C0030000
00C0030000
00C0030000
0180030000
0180060000
0180060000
0180060000
0180060000
03000C0000
03000C0000
03000C0000
0300180000
0600186000
060C183000
0606301800
0603300C00
0601B00600
0C01E00600
0FFFEFFF00
7FC1FFC700
3000E00700
0000000000
0000000000
0000000000
ENDCHAR

STARTCHAR cns4_2146
ENCODING 8518
SWIDTH 960 0
DWIDTH 34 0
BBX 34 34 0 -2
BITMAP
0000000000
0000000000
0000700000
0000600000
0000600000
0818600000
0FFC600000
0C18600000
0C18600000
0C18600000
0C18600000
0C18600000
0C18600000
0C18600000
0C18600000
0C18600000
0C18600000
0C18600000
0C18600000
0C18600000
0C18600000
0FF8600000
0C18600000
0C18600000
0000600200
0000600200
0000600200
0000600300
0000600300
0000700700
00007FFF00
00003FFE00
0000000000
0000000000
ENDCHAR

STARTCHAR cns4_2147
ENCODING 8519
SWIDTH 960 0
DWIDTH 34 0
BBX 34 34 0 -2
BITMAP
0000000000
0000000000
0000000000
0000000000
0000000600
3FFFFFFF00
0000000000
0000000000
0000000000
0000000000
0000000000
0100003000
01FFFFF800
0180003000
0180003000
0180003000
0180003000
0180003000
0180003000
0180003000
0180003000
0180003000
0180003000
0180003000
0180003000
0180003000
0180003000
0180003000
01FFFFF000
0180003000
0180003000
0000000000
0000000000
0000000000
ENDCHAR

STARTCHAR cns4_2148
ENCODING 8520
SWIDTH 960 0
DWIDTH 34 0
BBX 34 34 0 -2
BITMAP
0000000000
0000000000
0000000000
0000003800
000001F000
00000FC000
0000FC0000
001FC00000
0FFCC00000
0000C00000
0000C00000
0000C00000
0000C00000
0000C00000
0000C00000
0000C00000
0000C03000
07FFFFF800
0000C00000
0000C00000
0000C00000
0000C00000
0000C00000
0000C00000
0000C00000
0000C00000
0000C00000
0000C00000
0000C00000
0000C00C00
1FFFFFFE00
0000000000
0000000000
0000000000
ENDCHAR

STARTCHAR cns4_2149
ENCODING 8521
SWIDTH 960 0
DWIDTH 34 0
BBX 34 34 0 -2
BITMAP
0000000000
001C000000
0018000000
0030000000
0030000000
0060000000
0060000000
00FFC00000
0000C00000
0000C00000
0000C00000
0000C00000
0000C00000
0000C00000
0000C00000
0000C00C00
1FFFFFFE00
0000C00000
0000E00000
0001B00000
0001B00000
0001980000
0003180000
00030C0000
0006060000
000C030000
0018018000
003000C000
0060007000
00C0003C00
0380001F00
0E00000000
3800000000
0000000000
ENDCHAR

STARTCHAR cns4_214A
ENCODING 8522
SWIDTH 960 0
DWIDTH 34 0
BBX 34 34 0 -2
BITMAP
0000000000
0000000000
000E180000
001C0C0000
0018060000
0030038000
003000C000
0060006000
00C0003000
0180001800
0300001800
0610030C00
0C1FFF8C00
3818030000
0018030000
0018030000
0018030000
0018030000
0018030000
0018030000
0018030000
0030030000
0030030000
0030030100
0030030100
0060030100
0060030100
00C0030180
0180030180
0300038380
060003FF80
0C0001FF00
1800000000
0000000000
ENDCHAR

STARTCHAR cns4_214B
ENCODING 8523
SWIDTH 960 0
DWIDTH 34 0
BBX 34 34 0 -2
BITMAP
0000000000
0000000000
000E0C0000
001C060000
0018030000
0030018000
006000C000
0060006000
00C0003800
0180001C00
0300000C00
06380E0600
0C300C0600
30300C0000
00300C0000
00300C0000
00300C0000
00300C0000
00300C0000
00300C0000
00300C0000
00300C0000
00300C0000
00600C0000
00600C0200
00600C0200
00C00C0200
00C00C0300
01800C0300
03000E0700
0E000FFF00
380007FE00
0000000000
0000000000
ENDCHAR

STARTCHAR cns4_214C
ENCODING 8524
SWIDTH 960 0
DWIDTH 34 0
BBX 34 34 0 -2
BITMAP
0000000000
0000000000
0000007C00
000003E000
00001F8000
0001FC0000
00FFE00000
0FC0C00000
0000C00000
0000C00000
0000C00000
0000C00000
0400C01800
07FFFFFC00
0600C01800
0600C01800
0600C01800
0600C01800
0600C01800
0600C01800
0600C01800
0600C01800
0600C01800
0600C01800
0600C03800
0600C3F800
0600C07000
0600C00000
0000C00000
0000C00000
0000C00000
0000C00000
0000C00000
0000000000
ENDCHAR

STARTCHAR cns4_214D
ENCODING 8525
SWIDTH 960 0
DWIDTH 34 0
BBX 34 34 0 -2
BITMAP
0000000000
0000000000
0000000000
0000000C00
0FFFFFFE00
0018060000
0018060000
0018060000
0018060000
0018060000
0018060000
0018060000
0018060000
0018060000
0018060000
0018060000
0018060600
3FFFFFFF00
0030060000
0030060000
0030060000
0030060000
0030060000
0060060000
0060060000
0060060000
00C0060000
00C0060000
0180060000
0300060000
0600060000
0C00060000
3000060000
0000000000
ENDCHAR

STARTCHAR cns4_214E
ENCODING 8526
SWIDTH 960 0
DWIDTH 34 0
BBX 34 34 0 -2
BITMAP
0000000000
0000000000
0000000000
0000000000
0000000600
3FFFFFFF00
0001E00000
0001E00000
0003F00000
0006D80000
0006D80000
000CCC0000
000CCC0000
0018C60000
0018C60000
0030C30000
0030C30000
0060C18000
00C0C18000
0180C0C000
0300C06000
0600C03000
0C00C01800
1800C00F00
6000C00000
0000C00000
0000C00000
0000C00000
0000C00000
0000C00000
0000C00000
0000C00000
0000C00000
0000000000
ENDCHAR

STARTCHAR cns4_214F
ENCODING 8527
SWIDTH 960 0
DWIDTH 34 0
BBX 34 34 0 -2
BITMAP
0000000000
0000000000
0000000000
0600003000
0307FFF800
0380007000
01C0006000
00C000C000
001000C000
0010018000
0030018000
1820030000
0C20030000
0E60060000
06400C0000
0240180000
00C0300000
0080300000
0180600000
0100600000
0100C00000
0300C00000
0601800000
1E01800400
0E01800400
0603000400
0603000600
0603000600
0603800E00
0601FFFE00
0600FFFC00
0600000000
0000000000
0000000000
ENDCHAR

STARTCHAR cns4_2150
ENCODING 8528
SWIDTH 960 0
DWIDTH 34 0
BBX 34 34 0 -2
BITMAP
0000000000
0000000000
0000000000
0000000000
0000000000
0000000000
0000000000
0000000000
0000000000
0000000000
0000000000
0000000000
0000000000
0000000000
0000000000
0000000000
0000000000
0000000000
0000000000
0018306000
020C183000
02060C1800
06060C1800
0603060C00
0E03060C00
0C03060C00
0C03060C00
0C00000000
0000000000
0000000000
0000000000
0000000000
0000000000
0000000000
ENDCHAR

STARTCHAR cns4_2151
ENCODING 8529
SWIDTH 960 0
DWIDTH 34 0
BBX 34 34 0 -2
BITMAP
0000000000
0000000000
0000000000
0000000000
000000F000
000007E000
00007F0000
010FE00000
01F8000000
0181806000
0180C03000
0180C03000
0300C01800
0300601800
0600600C00
0600600C00
0C00600C00
0C00000C00
1800000000
0000000000
0000000000
0000000000
0000000000
0000000000
0000000000
0000000000
0000000000
0000000000
0000000000
0000000000
0000000000
0000000000
0000000000
0000000000
ENDCHAR

STARTCHAR cns4_2152
ENCODING 8530
SWIDTH 960 0
DWIDTH 34 0
BBX 34 34 0 -2
BITMAP
0000000000
0000000000
0800000C00
0FFFFFFE00
0C00000C00
0C00000C00
0C00038C00
0C00030C00
0C00060C00
0C00060C00
0CC00C0C00
0C300C0C00
0C18180C00
0C0C180C00
0C06300C00
0C03300C00
0C01E00C00
0C00E00C00
0C00E00C00
0C01B00C00
0C01980C00
0C030C0C00
0C06060C00
0C0C030C00
0C18038C00
0C30018C00
0C60000C00
0CC0000C00
0F00000C00
0C00001C00
0C0001FC00
0C00003800
0C00000000
0000000000
ENDCHAR

STARTCHAR cns4_2153
ENCODING 8531
SWIDTH 960 0
DWIDTH 34 0
BBX 34 34 0 -2
BITMAP
0000000000
0000000000
0000000000
0000000000
0000000000
0000000000
0000000000
00E000E000
00C000C000
00C000C000
00C000C000
00C300C300
7FFFBFFF80
00C000C000
00C000C000
00C000C000
00C000C000
0000000000
0000000000
0000000000
0000000000
0000000000
0000000000
0000000000
0000000000
0000000000
0000000000
0000000000
0000000000
0000000000
0000000000
0000000000
0000000000
0000000000
ENDCHAR

STARTCHAR cns4_2154
ENCODING 8532
SWIDTH 960 0
DWIDTH 34 0
BBX 34 34 0 -2
BITMAP
0000000000
0000000000
0000000000
0C00000000
0600000000
0300000000
0180000000
0180000000
0000000000
0000000000
0060000000
1FF0000000
0060000000
00C0000000
00C0000000
0180000000
0180000000
0300000000
0330000000
07F8000000
0630000000
0C30000000
0060000000
0060000000
00C0000000
00C0000000
00C0000000
0180000000
0100000000
07C0000000
1C7E000000
1807FFFF00
00001FFE00
0000000000
ENDCHAR

STARTCHAR cns4_2155
ENCODING 8533
SWIDTH 960 0
DWIDTH 34 0
BBX 34 34 0 -2
BITMAP
0000000000
0000000000
01C0E07000
0180C06000
0180C06000
0180C06000
0180C06000
0180C06000
0180C06000
0180C06000
0180C06000
0180C06600
3FFFFFFF00
0180C06000
0180C06000
0180C06000
0180C06000
0180C06000
0180C06000
0180C06000
0180C06000
0180C06000
0180C06000
0180C06000
0180C06000
0000000000
0000000000
0000000000
0000000000
0000000600
3FFFFFFF00
0000000000
0000000000
0000000000
ENDCHAR

STARTCHAR cns4_2156
ENCODING 8534
SWIDTH 960 0
DWIDTH 34 0
BBX 34 34 0 -2
BITMAP
0000000000
0000000000
01C000E000
00C000C000
0060018000
0060018000
0030030000
0070070000
01D80DC000
070C187000
0E04101800
0C06300C00
0003600000
0001E00000
0001C00000
0000C00000
0000C00000
0000C00000
0000C00000
0000C00000
0000C00000
0000C00000
0000C00000
0000C00000
0000C00000
0000C00000
0000C00000
0000C00000
0000C00000
0000C00000
0000C00000
0000C00000
0000000000
0000000000
ENDCHAR

STARTCHAR cns4_2157
ENCODING 8535
SWIDTH 960 0
DWIDTH 34 0
BBX 34 34 0 -2
BITMAP
0000000000
0000000000
0060000000
00C0000000
00C0000000
0180000C00
03FFFFFE00
0300000000
0600000000
0600700000
0C00600000
18E0600000
30C0600000
00C0601800
00C063FC00
00C0FE1800
00FFE01800
0FE0601800
00C0601800
00C0601800
00C0601800
00C0601800
00C0603800
00C067F000
00C060E000
00C0600400
00C0600400
00C0000400
00C0000600
00E0000E00
00FFFFFE00
007FFFFC00
0000000000
0000000000
ENDCHAR

STARTCHAR cns4_2158
ENCODING 8536
SWIDTH 960 0
DWIDTH 34 0
BBX 34 34 0 -2
BITMAP
0000000000
0000000000
00E00E0000
01C00C0000
01800C0000
03900C0600
031FFFFF00
0318000000
0618000000
0618000000
0F18000000
0E18000000
0E18000000
1E18000000
1618000000
3618000000
6618000000
0618000000
0618000000
0618000000
0618000000
0630000000
0630000000
0630000000
0630000000
0630000000
0660000000
0660000000
06C0000000
0780000000
0600000000
0600000000
0000000000
0000000000
ENDCHAR

STARTCHAR cns4_2159
ENCODING 8537
SWIDTH 960 0
DWIDTH 34 0
BBX 34 34 0 -2
BITMAP
0000000000
0000000000
0018000000
0030000000
0030000000
0064000600
0067FFFF00
00C6000600
00C6000600
0186000600
0186000600
03C6000600
0386000600
0786000600
0D86000600
0D86000600
1986000600
3186000600
6186000600
0186000600
0186000600
0186000600
0186000600
0186000600
0186000600
0186000600
0186000600
0187FFFE00
0186000600
0186000600
0180000000
0180000000
0180000000
0000000000
ENDCHAR

STARTCHAR cns4_215A
ENCODING 8538
SWIDTH 960 0
DWIDTH 34 0
BBX 34 34 0 -2
BITMAP
0000000000
0000000000
001C180000
0038300000
0030700000
0060600000
0060C00000
0060C00000
00C1800C00
00C1FFFE00
0181800C00
01C3000C00
0386000C00
078C000C00
0780000C00
0D80000C00
1980300C00
3180180C00
01800C0C00
01800E0C00
0180060C00
0180060C00
0180000C00
0180000C00
0180001800
0180001800
0180001800
0180001800
0180001800
0180003000
01800FE000
018001C000
0000000000
0000000000
ENDCHAR

STARTCHAR cns4_215B
ENCODING 8539
SWIDTH 960 0
DWIDTH 34 0
BBX 34 34 0 -2
BITMAP
0000000000
0000000000
000E000000
001C007000
001801E000
0030078000
00301E0000
0030F00000
0063B00000
006E300000
00C0300000
00E0300000
01C0300000
03C0300000
06C0300000
06C0300000
0CC0300C00
18FFFFFE00
30C0300000
00C0300000
00C0300000
00C0300000
00C0300000
00C0300000
00C0300000
00C0300400
00C0300400
00C0300400
00C0300600
00C0380E00
00C03FFE00
00C01FFC00
00C0000000
0000000000
ENDCHAR

STARTCHAR cns4_215C
ENCODING 8540
SWIDTH 960 0
DWIDTH 34 0
BBX 34 34 0 -2
BITMAP
0000000000
0000000000
0000E00000
0000C00000
0000C00000
0000C00000
0000C00000
0000C06000
0000FFF000
0000C00000
0000C00000
0000C00000
0000C00000
0000C00000
0000C00000
0000C00600
1FFFFFFF00
0006180000
0006180000
0006180000
000C180000
000C180000
000C180000
0018180200
0018180200
0030180200
0060180300
00C0180300
01801C0700
03001FFF00
06000FFE00
1C00000000
0000000000
0000000000
ENDCHAR

STARTCHAR cns4_215D
ENCODING 8541
SWIDTH 960 0
DWIDTH 34 0
BBX 34 34 0 -2
BITMAP
0000000000
0000000000
0000000000
0000000600
3FFFFFFF00
0000000000
0000000000
0000000000
0100003000
01FFFFF800
0180003000
0180003000
0180003000
0180003000
0180063000
019FFF3000
0180003000
0180003000
0180003000
0180003000
0180003300
7FFFFFFF80
0180003000
0180003000
0180003000
0180003000
0180003000
0180003000
0180003000
0180007000
018007F000
018000E000
0180000000
0000000000
ENDCHAR

STARTCHAR cns4_215E
ENCODING 8542
SWIDTH 960 0
DWIDTH 34 0
BBX 34 34 0 -2
BITMAP
0000000000
0000000000
0000000000
0000E00000
0001C00000
0001800000
0003000000
0003000C00
3FFFFFFE00
0006180000
000C180000
00180C0000
0030060000
0060030000
00C0018000
018000C000
0300007000
0600003C00
0C07801F00
3001E00C00
6000700000
0000300000
0000000000
0000000000
0000000000
0000038000
00001E0000
0000F80000
000FC00000
007E000000
0070000000
0060000000
0000000000
0000000000
ENDCHAR

STARTCHAR cns4_215F
ENCODING 8543
SWIDTH 960 0
DWIDTH 34 0
BBX 34 34 0 -2
BITMAP
0000000000
0000000000
0200003000
03FFFFF800
0300003000
0300003000
0300003000
0300E03000
0300C03000
0300C03000
0300C03000
0300C03000
0300C03000
0300C03000
0370C1F000
0360C1B000
0360C1B000
0360C1B000
0360C1B000
0360C1B000
0360C1B000
0660C1B000
0660C1B000
0660C19900
0660C19900
0660C19900
0C60C18D00
0C60C18D00
0C7FFF8F00
1860018700
3060018700
6000000300
0000000100
0000000000
ENDCHAR

STARTCHAR cns4_2160
ENCODING 8544
SWIDTH 960 0
DWIDTH 34 0
BBX 34 34 0 -2
BITMAP
0000000000
0000000000
1C00000380
1800000300
1800E00300
1800C00300
1800C00300
1800C00300
1800C00300
1800C00300
1800C00300
1800C00300
1800C18300
187FFFC300
1800C00300
1800C00300
1800C00300
1800C00300
1800C00300
1800C00300
1800C00300
1800C00300
1800C03300
1BFFFFFB00
1800000300
1800000300
1800000300
1800000300
1FFFFFFF00
1800000300
1800000300
0000000000
0000000000
0000000000
ENDCHAR

STARTCHAR cns4_2161
ENCODING 8545
SWIDTH 960 0
DWIDTH 34 0
BBX 34 34 0 -2
BITMAP
0000000000
0000000000
0000000700
0000000600
0000000600
0000038600
0000C30600
3FFFE30600
0060030600
0060030600
0060030600
0060030600
0060030600
0060030600
0060030600
0060030600
0060030600
0060030600
0060030600
0060030600
0060030600
0060030600
0060030600
0061E30600
006F030600
01F8000600
3F80000600
1800000600
0000000600
0000000E00
000000FE00
0000001C00
0000000000
0000000000
ENDCHAR

STARTCHAR cns4_2162
ENCODING 8546
SWIDTH 960 0
DWIDTH 34 0
BBX 34 34 0 -2
BITMAP
0000000000
0000000000
0000000000
0001803800
3FFFC03000
0198003000
0198003000
01980E3000
01980C3000
01980C3000
01980C3000
01980C3000
01980C3000
01980C3000
01980C3000
01980C3000
01980C3000
01980C3000
03180C3000
03180C3000
03180C3000
03180C3000
0318003000
0618003200
0618003200
0618007200
0C1807F200
0C1800E300
181C000700
301FFFFF00
600FFFFE00
0000000000
0000000000
0000000000
ENDCHAR

STARTCHAR cns4_2163
ENCODING 8547
SWIDTH 960 0
DWIDTH 34 0
BBX 34 34 0 -2
BITMAP
0000000000
0000000000
0000000000
00C000E000
018000C000
018000C000
030000C000
0300C0C000
07FFE0C000
060000C300
0C000FFF80
180000C300
300000C300
000600C600
07FF018600
0006018600
000C018600
000C018600
0018018600
0030018600
0060018600
00C0018600
00C0030600
0180030600
0300430600
0300430600
0600460C00
0600660C00
0700E61C00
07FFEFF800
03FFC07000
0000000000
0000000000
0000000000
ENDCHAR

STARTCHAR cns4_2164
ENCODING 8548
SWIDTH 960 0
DWIDTH 34 0
BBX 34 34 0 -2
BITMAP
0000000000
0000000000
0000038000
0007030000
003E030000
01E0030000
0F60030000
0060030000
0060030000
0060030000
0060030600
00603FFF00
0060030600
0060030600
0061830600
3FFFC60600
0060060600
0060060600
0060060600
0060060600
0060060600
0060060C00
00600C0C00
00600C0C00
00600C0C00
0060180C00
0060180C00
0060300C00
0060301C00
006063F800
0060C07000
0063000000
0060000000
0000000000
ENDCHAR

STARTCHAR cns4_2165
ENCODING 8549
SWIDTH 960 0
DWIDTH 34 0
BBX 34 34 0 -2
BITMAP
0000000000
0000000000
0000000000
1000001800
1FFFFFFC00
1800000000
1803000000
1803800000
1807000000
1806060000
180FFF0000
180C060000
18180C0000
18180C0000
1830180000
1830180000
1860300000
18C0300000
1980600000
1800F00000
1801980000
18030C0000
1806060000
180C030000
1818038000
183001C000
186000F000
1980003800
1E00000000
1800000600
1FFFFFFF00
1800000000
1800000000
0000000000
ENDCHAR

STARTCHAR cns4_2166
ENCODING 8550
SWIDTH 960 0
DWIDTH 34 0
BBX 34 34 0 -2
BITMAP
0000000000
0000000000
0000000000
0400000C00
07FFFFFE00
0600000000
0600000000
0600003000
067FFFF800
0600300000
0600300000
0600300000
0600300000
0600300000
0600300000
0600300000
0600300C00
06FFFFFE00
0600300000
0600300000
0600300000
0C00300000
0C00300000
0C00300000
0C00300000
0C00300000
1800300000
1800300000
1800300000
1800300000
3000300000
3000300000
6000300000
0000000000
ENDCHAR

STARTCHAR cns4_2167
ENCODING 8551
SWIDTH 960 0
DWIDTH 34 0
BBX 34 34 0 -2
BITMAP
0000000000
0000000000
0000000000
0200000C00
03FFFFFE00
0300000000
0300000000
030001C000
0300078000
03001E0000
0300F80000
030FB00000
031C300000
0300300000
0300300000
0300300000
0300300000
0300300C00
03FFFFFE00
0300300000
0600300000
0600300000
0600300000
0600300200
0600300200
0C00300200
0C00300300
0C00300300
0C00380700
18003FFF00
18001FFE00
3000000000
6000000000
0000000000
ENDCHAR

STARTCHAR cns4_2168
ENCODING 8552
SWIDTH 960 0
DWIDTH 34 0
BBX 34 34 0 -2
BITMAP
0000000000
0000000000
0000E00000
0000C00000
0E00C00E00
0C00C00C00
0C00C00C00
0C00C00C00
0C00C00C00
0C00C00C00
0FFFFFFC00
0C00C00C00
0C00C00C00
0000C00000
0000C0C000
03FFFFE000
003000C000
0030018000
0030030000
0018030000
0018060000
000C0C0000
00061C0000
0003380000
0001E00000
0000E00000
0001F00000
00031C0000
000E0F8000
003803F000
00E000FF00
0780003E00
3C00000000
0000000000
ENDCHAR

STARTCHAR cns4_2169
ENCODING 8553
SWIDTH 960 0
DWIDTH 34 0
BBX 34 34 0 -2
BITMAP
0000000000
0000000000
0000E00000
0000C00000
0000C00000
0000C06000
03FFFFF000
0000C06000
0000C06000
0000C06000
0000C06000
0000C06000
0000C06600
1FFFFFFF00
0000C00000
0000C00000
0000C0C000
07FFFFE000
003000C000
0030018000
0018018000
0018030000
000C060000
00060C0000
0003380000
0000E00000
0001F00000
00079C0000
001C0F8000
00F003F800
038000FF00
0E00001E00
3800000000
0000000000
ENDCHAR

STARTCHAR cns4_216A
ENCODING 8554
SWIDTH 960 0
DWIDTH 34 0
BBX 34 34 0 -2
BITMAP
0000000000
0000000000
0000000000
0000E1C000
2060C18000
3FF0C18000
3060C18000
3060C18000
3060C18000
3060C18000
3060C18000
3060C18000
3060C18000
3060C18000
3060C18000
3060C18000
3060C18000
3060C18000
3060C18000
3060C18000
3FE0C18000
3060C18000
3061818200
0001818200
0001818200
0003018200
0003018300
0006018300
000C01C700
001801FF00
007000FE00
0000000000
0000000000
0000000000
ENDCHAR

STARTCHAR cns4_216B
ENCODING 8555
SWIDTH 960 0
DWIDTH 34 0
BBX 34 34 0 -2
BITMAP
0000000000
0000000000
0000000000
000E000000
000C180000
00180C0000
00300C0000
0060060000
00C0030000
00C0018000
018000C000
0300006000
0600003800
0C00001E00
1800000F00
710000C000
01FFFFE000
018000C000
018000C000
018000C000
018000C000
018000C000
018000C000
018000C000
018000C000
018000C000
018000C000
018000C000
01FFFFC000
018000C000
018000C000
0000000000
0000000000
0000000000
ENDCHAR

STARTCHAR cns4_216C
ENCODING 8556
SWIDTH 960 0
DWIDTH 34 0
BBX 34 34 0 -2
BITMAP
0000000000
0000000000
0100001800
01FFFFFC00
0180001800
0180001800
0180001800
0180001800
0180001800
0180001800
0180001800
0180001800
01FFFFF800
0180001800
0180001800
0000000000
0000000000
0000000600
0FFFFFFF00
0001800600
0001800600
0001800600
0003000C00
0003000C00
0003000C00
0006000C00
0006001800
000C001800
0018001800
0070003000
01C007F000
070000E000
3C00000000
0000000000
ENDCHAR

STARTCHAR cns4_216D
ENCODING 8557
SWIDTH 960 0
DWIDTH 34 0
BBX 34 34 0 -2
BITMAP
0000000000
0000000000
1000000C00
1FFFFFFE00
1800000C00
1800000C00
1800000C00
1801C00C00
1801800C00
1803000C00
1803000C00
1803000C00
1803000C00
1806000C00
1806000C00
1806000C00
180C000C00
180C000C00
180C000C00
1818060C00
1818030C00
1830018C00
186003CC00
18FFFFEC00
1FFF806C00
1B80006C00
1800000C00
1800000C00
1800000C00
1FFFFFFC00
1800000C00
1800000C00
0000000000
0000000000
ENDCHAR

STARTCHAR cns4_216E
ENCODING 8558
SWIDTH 960 0
DWIDTH 34 0
BBX 34 34 0 -2
BITMAP
0000000000
0000000000
1000000C00
1FFFFFFE00
1800000C00
1800C00C00
18FFE00C00
1800C00C00
1800C00C00
1800C00C00
1800C00C00
1800C00C00
1801C00C00
1801C00C00
1801600C00
1803600C00
1803600C00
1806300C00
1806300C00
180C180C00
1818180C00
18180C0C00
18300E0C00
1860030C00
18C0038C00
198001EC00
1B0000FC00
1800000C00
1800000C00
1FFFFFFC00
1800000C00
1800000C00
0000000000
0000000000
ENDCHAR

STARTCHAR cns4_216F
ENCODING 8559
SWIDTH 960 0
DWIDTH 34 0
BBX 34 34 0 -2
BITMAP
0000000000
0000000000
0000000000
1000000C00
1FFFFFFE00
1800000C00
1800000C00
1800000C00
1800000C00
1800000C00
1800000C00
18000C0C00
1FFFFE0C00
18000C0C00
18000C0C00
18000C0C00
18000C0C00
18000C0C00
18000C0C00
18000C0C00
1FFFFC0C00
18000C0C00
1800000C00
1800000C00
1800000C00
1800000C00
1800000C00
1800000C00
1800000C00
1FFFFFFC00
1800000C00
1800000C00
0000000000
0000000000
ENDCHAR

STARTCHAR cns4_2170
ENCODING 8560
SWIDTH 960 0
DWIDTH 34 0
BBX 34 34 0 -2
BITMAP
0000000000
0000000000
0000E00000
0000C00000
0000C00000
0000C00000
0000C00000
0000C06000
01FFFFF000
0000C00000
0000C00000
0000C00000
0000C00000
0000C00000
0000C00000
0000C00600
3FFFFFFF00
000C180000
000C180000
000C180000
000C180000
0018180000
0018180000
0018180200
0030180200
0030180200
0060180300
00C0180300
01801C0700
03001FFF00
0E000FFE00
3800000000
0000000000
0000000000
ENDCHAR

STARTCHAR cns4_2171
ENCODING 8561
SWIDTH 960 0
DWIDTH 34 0
BBX 34 34 0 -2
BITMAP
0000000000
0000000000
0000000000
0400000600
07FFFFFF00
0600000000
0600000000
0600380000
0600300000
0600300000
0600300000
0600300000
0600300000
0600300000
0600300000
0600301800
0C7FFFFC00
0C00300000
0C00300000
0C00300000
0C00300000
0C00300000
0C00300000
0C00300000
1800300000
1800300000
1800300000
1800300000
3000300600
33FFFFFF00
6000000000
0000000000
0000000000
0000000000
ENDCHAR

STARTCHAR cns4_2172
ENCODING 8562
SWIDTH 960 0
DWIDTH 34 0
BBX 34 34 0 -2
BITMAP
0000000000
0000000000
0000E00000
0000C00000
0001800000
0001800000
0003000000
0003000C00
3FFFFFFE00
0006180000
0006180000
000C0C0000
0018060000
0030030000
0060018000
00C000C000
0180007000
0300003C00
0C00001F00
3000000E00
0000018000
00FFFFC000
0000000000
0000000000
0000000000
0000000000
0000000000
0000000000
0000000000
0000000600
3FFFFFFF00
0000000000
0000000000
0000000000
ENDCHAR

STARTCHAR cns4_2173
ENCODING 8563
SWIDTH 960 0
DWIDTH 34 0
BBX 34 34 0 -2
BITMAP
0000000000
0000000000
001C000000
0038000000
0030000000
0060000000
0060000000
00C0000600
00FFFFFF00
0180300000
0180300000
0300300000
0600300000
0C00300000
1800300000
7018300000
003030C000
0060306000
0060303000
0060303000
00C0301800
00C0301C00
0180300C00
0180300E00
0300300600
0300300600
0600300000
0000300000
0000300000
0000700000
0007F00000
0000E00000
0000000000
0000000000
ENDCHAR

STARTCHAR cns4_2174
ENCODING 8564
SWIDTH 960 0
DWIDTH 34 0
BBX 34 34 0 -2
BITMAP
0000000000
0000000000
0200001800
03FFFFFC00
0300001800
0300001800
0300001800
0300001800
0300001800
0300001800
03FFFFF800
0300001800
0300000000
0300000000
0300000000
0300000000
0300000000
030000C000
031FFFE000
0600000000
0600000000
0600000000
0600000000
0600000000
0C00000000
0C00000000
0C00000000
1800000600
1BFFFFFF00
1800000000
3000000000
6000000000
0000000000
0000000000
ENDCHAR

STARTCHAR cns4_2175
ENCODING 8565
SWIDTH 960 0
DWIDTH 34 0
BBX 34 34 0 -2
BITMAP
0000000000
0000000000
0060006000
003000C000
003000C000
0018018000
0018018000
0018030000
0200060C00
03FFFFFE00
0300000C00
0300000C00
0300000C00
0300000C00
0300000C00
03FFFFFC00
0300000C00
0300000000
0300000000
0300000000
0300000000
0300000000
0300000000
0600000000
0600000000
0600000000
0600000000
0C00000000
0C00000000
1800000000
1800000000
3000000000
0000000000
0000000000
ENDCHAR

STARTCHAR cns4_2176
ENCODING 8566
SWIDTH 960 0
DWIDTH 34 0
BBX 34 34 0 -2
BITMAP
0000000000
0000000000
0000700000
01C0601C00
0180601800
0180601800
0180601800
0180601800
01FFFFF800
0180001800
0000000000
0000000000
0200001800
03FFFFFC00
0300000000
0300000000
0300000000
0300000000
0300000000
0300000000
0300000000
0300000000
0600000000
0600000000
0600000000
0C00000000
0C00000000
0C00000000
1800000000
1800000000
3000000000
6000000000
0000000000
0000000000
ENDCHAR

STARTCHAR cns4_2177
ENCODING 8567
SWIDTH 960 0
DWIDTH 34 0
BBX 34 34 0 -2
BITMAP
0000000000
0000000000
0380806000
0300FFF000
0300C06000
0300C06000
0300C06000
2318C06000
3FFCC06000
3318C06000
3318C06000
3318C06000
3318C06000
3318C06000
3318C06000
3318C06000
3318C06000
3318C06000
3318C06000
3318C06000
3318C06000
3319806000
3319806000
3319806000
33F9806200
3333006200
0303006200
0306006300
0306006300
030C007700
0318007F00
0330003E00
0060000000
0000000000
ENDCHAR

STARTCHAR cns4_2178
ENCODING 8568
SWIDTH 960 0
DWIDTH 34 0
BBX 34 34 0 -2
BITMAP
0000000000
0000000000
0060030000
0030060000
00180C0000
00180C0000
0018180000
0018180000
0000186000
07FFFFF000
0001800000
0001800000
0001800000
0001800000
0001800000
0001800000
0001800000
0001800000
0001800000
0001800000
0001800C00
1FFFFFFE00
0001800000
0001800000
0001800000
0001800000
0001800000
0001800000
0001800000
0001800000
0001800000
0001800000
0001800000
0000000000
ENDCHAR

STARTCHAR cns4_2179
ENCODING 8569
SWIDTH 960 0
DWIDTH 34 0
BBX 34 34 0 -2
BITMAP
0000000000
0000000000
0070000000
00E2000C00
00C3FFFE00
0183000C00
0303000C00
0603001800
0C1B001800
1833001800
3063001800
00C3001800
0183001800
0103001800
0383003000
0703003000
0F03003000
1B03007000
330307F000
630300E000
0303000000
0303000000
0303000200
0303000200
0303000200
0303000200
0303000300
0303000300
0303800700
0301FFFF00
0300FFFE00
0300000000
0300000000
0000000000
ENDCHAR

STARTCHAR cns4_217A
ENCODING 8570
SWIDTH 960 0
DWIDTH 34 0
BBX 34 34 0 -2
BITMAP
0000000000
0000000000
00E0000000
00C0E00380
00C0C00300
00C0C00300
00C0C00300
00C0C00300
00CCC00300
3FFEC00300
00C0C00300
00C0C00300
00C0C00300
00C0C00300
00C0C00300
00C0C00300
00DCC00300
00F8C00300
03E0C00300
1FC0C00300
18C0C00300
00C0C00300
00C0C00300
00C0C00300
00C0C00300
00C0C00300
00C0C00300
00C0C00300
01C0FFFF00
1FC0C00300
0380C00300
0000000000
0000000000
0000000000
ENDCHAR

STARTCHAR cns4_217B
ENCODING 8571
SWIDTH 960 0
DWIDTH 34 0
BBX 34 34 0 -2
BITMAP
0000000000
0000000000
0070000E00
0060000C00
00601C0C00
0060180C00
0060180C00
0060180C00
0063180C00
1FFF980C00
0060180C00
0060180C00
0060180C00
0060180C00
0060180C00
0060180C00
0067180C00
007C180C00
00F0180C00
0FE0180C00
0E60183C00
0C6019EC00
00601F0C00
0060FC0C00
0061C00C00
0060000C00
0060000C00
0060000C00
00E0000C00
0FE0000C00
01C0000C00
0000000C00
0000000000
0000000000
ENDCHAR

STARTCHAR cns4_217C
ENCODING 8572
SWIDTH 960 0
DWIDTH 34 0
BBX 34 34 0 -2
BITMAP
0000000000
0000000000
0800001800
0FFFFFFC00
0C00001800
0C00001800
0C00001800
0C00001800
0C00001800
0C00001800
0FFFFFF800
0C01801800
0C01801800
0C01801800
0C01801800
0C01801800
0C01801800
0FFFFFF800
0C01801800
0C01801800
0001800000
0001800000
0001800000
0001800000
0001800000
0001800000
0001800000
0001800000
0001800000
0001800000
0001800000
0001800000
0001800000
0000000000
ENDCHAR

STARTCHAR cns4_217D
ENCODING 8573
SWIDTH 960 0
DWIDTH 34 0
BBX 34 34 0 -2
BITMAP
0000000000
0000000000
0000E00000
0000C00000
0000C00000
0700C00E00
0600C00C00
0600C00C00
0600C00C00
0600C00C00
0600C00C00
0600C00C00
07FFFFFC00
0600C00C00
0600C00C00
0000C00000
0001E00000
0001F00000
0003F00000
0007D80000
0006CC0000
000CC60000
0018C38000
0030C1E000
0060C0F800
00C0C07F00
0380C01F00
0E00C00000
3800C00000
0000C00000
0000C00000
0000C00000
0000000000
0000000000
ENDCHAR

STARTCHAR cns4_217E
ENCODING 8574
SWIDTH 960 0
DWIDTH 34 0
BBX 34 34 0 -2
BITMAP
0000000000
0000000000
000001C000
0000078000
00001F0000
0000F00000
0000C00000
0000C00000
0000C00000
0000C00000
0000C00000
0000C00C00
3FFFFFFE00
0001E00000
0003E00000
0006F00000
0006D80000
000CCC0000
000CC60000
0018C70000
0030C38000
0060C1C000
00C0C0F000
0180C07C00
0300C01E00
0E00C00600
0000C00000
0000C00000
0000C00000
0000C00000
0000C00000
0000C00000
0000C00000
0000000000
ENDCHAR

STARTCHAR cns4_2221
ENCODING 8737
SWIDTH 960 0
DWIDTH 34 0
BBX 34 34 0 -2
BITMAP
0000000000
0000000000
0000000000
0000000000
0000000000
1000000600
1FFFFFFF00
18180C0600
18180C0600
18180C0600
18180C0600
18180C0600
18180C0600
18180C0600
18180C0600
18180C0600
18180C0600
18180C0600
18180C0600
18180C0600
18180C0600
18180C0600
18180C0600
18180C0600
18180C0600
18180C0600
1FFFFFFE00
1800000600
1800000600
0000000000
0000000000
0000000000
0000000000
0000000000
ENDCHAR

STARTCHAR cns4_2222
ENCODING 8738
SWIDTH 960 0
DWIDTH 34 0
BBX 34 34 0 -2
BITMAP
0000000000
0000000000
1060000000
1FF100C000
1861FFE000
186180C000
18C180C000
18C180C000
18C180C000
18C180C000
198180C000
198180C000
198180C000
198180C000
188180C000
18C180C000
18C180C000
186180C000
186180C000
186180C000
186300C000
18E300C000
1FC300C000
198300C200
180600C200
180600C200
180C00C300
180C00C300
181800E700
183000FF00
1860007E00
1800000000
1800000000
0000000000
ENDCHAR

STARTCHAR cns4_2223
ENCODING 8739
SWIDTH 960 0
DWIDTH 34 0
BBX 34 34 0 -2
BITMAP
0000000000
0000000000
1060700000
1FF0600000
1860600000
1860600000
18C0600000
18C0600000
18C0600000
18C0600000
1980618000
199FFFC000
1980618000
1980618000
18C0618000
18C0618000
18C0618000
18C0C18000
1860C18000
1860C18000
1860C18000
1860C18000
18E1818000
1FC1818400
1981818400
1803018400
1803018400
1806018600
180C01CE00
181801FE00
183000FC00
1800000000
1800000000
0000000000
ENDCHAR

STARTCHAR cns4_2224
ENCODING 8740
SWIDTH 960 0
DWIDTH 34 0
BBX 34 34 0 -2
BITMAP
0000000000
0000000000
0000000000
0000000600
3FFFFFFF00
0000C00000
0000C00000
0000C00000
0000C00000
0000C00000
0800C00C00
0FFFFFFE00
0C01800C00
0C01800C00
0C01800C00
0C01C00C00
0C03600C00
0C03180C00
0C060C0C00
0C0C070C00
0C18038C00
0C30018C00
0C60018C00
0CC0000C00
0D80000C00
0C00000C00
0C00000C00
0C00000C00
0C00000C00
0FFFFFFC00
0C00000C00
0C00000C00
0000000000
0000000000
ENDCHAR

STARTCHAR cns4_2225
ENCODING 8741
SWIDTH 960 0
DWIDTH 34 0
BBX 34 34 0 -2
BITMAP
0000000000
0000000000
0000078000
00003F0000
0023E00000
003E000000
003000C000
003FFFE000
003000C000
003000C000
003000C000
0E3FFFC000
0C3000C000
0C3000C000
0C3000C000
0C3FFFC000
0C3000C000
0C30000000
0C30000000
0C30000C00
0FFFFFFE00
0C30000C00
0030000C00
0060000C00
0060000C00
0060000C00
0060000C00
00C0001800
00C0001800
00C0001800
0180003000
01800FE000
030001C000
0000000000
ENDCHAR

STARTCHAR cns4_2226
ENCODING 8742
SWIDTH 960 0
DWIDTH 34 0
BBX 34 34 0 -2
BITMAP
0000000000
0000000000
0000003800
000003F000
00007F8000
010FE00000
01F8000000
0180001E00
018000FC00
01800FE000
0184FC0000
01878C0000
01860C0000
01860C0700
01860C0E00
01860C3800
01860CE000
0186078000
0186060000
0186060000
0186060000
0186020000
0306030000
0306038000
0306018000
030601C000
060606E000
06067C7000
0C07F07800
0C7F003C00
1830000000
0000000000
0000000000
0000000000
ENDCHAR

STARTCHAR cns4_2227
ENCODING 8743
SWIDTH 960 0
DWIDTH 34 0
BBX 34 34 0 -2
BITMAP
0000000000
0000000000
0000000000
0000078000
00001F0000
0000F80000
0007E00000
003E600000
03F0600000
0E00600000
0000600000
0018603800
0030607000
006070E000
01C0798000
03007B0000
0E006E0000
3800660000
000E630000
001C638000
003061C000
006060E000
00C0607800
0180601E00
0700600700
1C00600000
7000600000
0000600000
0000600000
0000600000
0000600000
0000600000
0000600000
0000000000
ENDCHAR

STARTCHAR cns4_2228
ENCODING 8744
SWIDTH 960 0
DWIDTH 34 0
BBX 34 34 0 -2
BITMAP
0000000000
0000000000
0006000000
1FFF000000
0006000000
000C000000
000C000000
0018000000
0039001800
0031FFFC00
0061861800
0061861800
00C1861800
00C1861800
0181861800
0181861800
0301FFF800
0301861800
0601861800
0601861800
0C01861800
0C01861800
0C01861800
1801861800
1801FFFA00
3001801A00
3001801B00
3000000300
3800000700
3FFFFFFF00
1FFFFFFE00
0000000000
0000000000
0000000000
ENDCHAR

STARTCHAR cns4_2229
ENCODING 8745
SWIDTH 960 0
DWIDTH 34 0
BBX 34 34 0 -2
BITMAP
0000000000
0000000000
00701C0000
0060180000
00C0180000
00C0180000
00C0180000
0180180000
0188180600
030FFFFF00
038C180600
070C180C00
0F18181800
0B18303000
1B183E0000
33003E0000
63003C0000
03006C0000
03006C0000
03006C0000
03006C0000
03006C0000
0300CC0000
0300CC0400
0300CC0400
03018C0400
03018C0400
03030C0600
03060C0600
030C0E0E00
03300FFE00
036007FC00
0300000000
0000000000
ENDCHAR

STARTCHAR cns4_222A
ENCODING 8746
SWIDTH 960 0
DWIDTH 34 0
BBX 34 34 0 -2
BITMAP
0000000000
0000000000
0000000000
0034000600
0067FFFF00
0066000000
00C6000000
00C6000000
0186000000
0306201800
03863FFC00
0706301800
0706301800
0F06301800
1B06301800
3306301800
6306301800
0306301800
0306301800
0306301800
0306303000
030637F000
030630E000
030C300000
030C300200
030C300200
030C300200
0318300300
0318300300
0330380700
03303FFF00
03601FFE00
03C0000000
0000000000
ENDCHAR

STARTCHAR cns4_222B
ENCODING 8747
SWIDTH 960 0
DWIDTH 34 0
BBX 34 34 0 -2
BITMAP
0000000000
0000000000
007000C000
00606FE000
00C0C0C000
00C180C000
00C1806000
0183006000
0186006000
030C003000
039800DC00
0737FFEF00
0F60600000
1B00600000
3300C00000
6300C00000
0300C00000
0301800000
0301806000
0301FFF000
0303006000
0303006000
0300006000
0300006000
0300006000
030000C000
030000C000
030000C000
0300018000
0300038000
03007F0000
03000E0000
0300000000
0000000000
ENDCHAR

STARTCHAR cns4_222C
ENCODING 8748
SWIDTH 960 0
DWIDTH 34 0
BBX 34 34 0 -2
BITMAP
0000000000
0000E00000
0000C00000
0000C00000
0000C00300
3FFFFFFF80
0000C00000
0000C00000
0200C01800
03FFFFFC00
0300C01800
0300C01800
0300C01800
0300C01800
0300C03800
0300C3F800
0300C07000
0300C00000
0301C00000
0001C00000
0001C00000
0001C00000
0001C00000
0003C00000
0003600000
0006300000
000C180000
00180E0000
0070078000
01C001E000
0700007F00
1C00001E00
7000000000
0000000000
ENDCHAR

STARTCHAR cns4_222D
ENCODING 8749
SWIDTH 960 0
DWIDTH 34 0
BBX 34 34 0 -2
BITMAP
0000000000
0000000000
0070000000
0060000000
0060000000
00C0000600
00DFFFFF00
0180600000
0180600000
0300C00000
0300C00000
0780C00000
0700C03000
0F00FFF800
1B01803000
3301803000
6301803000
0301806000
0303006000
0303006000
0303006000
0303006000
0303FFE000
030300C000
030300C000
030000C000
030000C000
030000C000
030000C000
030000C600
033FFFFF00
0300000000
0300000000
0000000000
ENDCHAR

STARTCHAR cns4_222E
ENCODING 8750
SWIDTH 960 0
DWIDTH 34 0
BBX 34 34 0 -2
BITMAP
0000000000
0000000000
0030000000
0064000600
0067FFFF00
00C6000000
00C6000000
0186000000
0186001800
0306003000
0306003000
0786006000
0F06606000
0F0630C000
1B0618C000
33060C8000
0306078000
0306030000
0306038000
030606C000
03060C6000
0306183000
0306303800
0306601800
0306C00000
0306000000
0306000000
0306000000
0306000300
0307FFFF80
0306000000
0306000000
0300000000
0000000000
ENDCHAR

STARTCHAR cns4_222F
ENCODING 8751
SWIDTH 960 0
DWIDTH 34 0
BBX 34 34 0 -2
BITMAP
0000000000
0000000000
0030000000
0060000000
0062000C00
00C3FFFE00
00C3000C00
0183000C00
0183000C00
0303000C00
0303000C00
0783000C00
0703000C00
0F03000C00
1B03180C00
33030C0C00
6303060C00
0303070C00
0303038C00
0303018C00
0303018C00
0303000C00
0303000C00
0303000C00
0303000C00
0303000C00
0303000C00
0303000C00
0303FFFC00
0303000C00
0303000C00
0300000000
0300000000
0000000000
ENDCHAR

STARTCHAR cns4_2230
ENCODING 8752
SWIDTH 960 0
DWIDTH 34 0
BBX 34 34 0 -2
BITMAP
0000000000
0000000000
0018070000
0030060000
0030060000
0060060000
0060060000
00C0060C00
00C007FE00
0180060000
03C0060000
0380060000
0780060000
0780061800
0D87FFFC00
1980C03000
3180C03000
0180606000
0180606000
0180306000
018030C000
018030C000
0180198000
01801B8000
01800F0000
0180060000
01800F0000
0180198000
018070E000
0180C07800
0183803F00
018E000E00
0000000000
0000000000
ENDCHAR

STARTCHAR cns4_2231
ENCODING 8753
SWIDTH 960 0
DWIDTH 34 0
BBX 34 34 0 -2
BITMAP
0000000000
0000000000
0060C00000
00C1870000
0183060000
0183060000
0303060000
0306060000
0306060000
060C060000
060C060000
0F1E060000
0E1C060000
1E3C060000
363C050000
366C0D8000
66CC0D8000
060C0D8000
060C0D8000
060C18C000
060C18C000
060C18C000
060C306000
060C306000
060C303000
060C603800
060C601C00
060CC01E00
060CC00F00
060D800700
060F000000
060C000000
060C000000
0000000000
ENDCHAR

STARTCHAR cns4_2232
ENCODING 8754
SWIDTH 960 0
DWIDTH 34 0
BBX 34 34 0 -2
BITMAP
0000000000
0000000000
001C0E0000
00180C0000
00180C0000
00180C0000
00180C0000
00180C0000
08180C1800
0FF80FFC00
0C180C1800
0C180C1800
0C180C1800
0C180C1800
0C180C1800
0C180C1800
0C180C1800
0C180C1800
0FF80FF800
0C180C1800
0C180C1800
00180C0000
00300C0000
00300C0000
00600C0100
00600C0100
00C00C0100
00C00C0180
01800C0180
03000E0380
06000FFF80
0C0007FF00
1800000000
0000000000
ENDCHAR

STARTCHAR cns4_2233
ENCODING 8755
SWIDTH 960 0
DWIDTH 34 0
BBX 34 34 0 -2
BITMAP
0000000000
0000000000
0000000000
0040003000
007FFFF800
0060000000
0060000000
0060000000
006000C000
007FFFE000
0060000000
0060000000
0060000000
0060000000
0060000600
3FFFFFFF00
0000000000
0000000000
001C070000
0018060000
0018060000
0018060000
0018060000
0018060000
0018060200
0018060200
0030060200
0030060300
0060060300
0060070700
01C007FF00
070003FE00
1C00000000
0000000000
ENDCHAR

STARTCHAR cns4_2234
ENCODING 8756
SWIDTH 960 0
DWIDTH 34 0
BBX 34 34 0 -2
BITMAP
0000000000
0000000000
0000030000
000C7F8000
0018030000
0030018000
003000C000
0060006000
00C0003000
0180001C00
0300000F80
0E00000700
0000003000
07FFFFF800
0000C00000
0000C00000
0000C00000
0000C00000
0000C00000
0000C00C00
1FFFFFFE00
0000C00000
0001B00000
0001B00000
0001980000
0003180000
00060C0000
000C060000
0018038000
003001E000
00E0007E00
0380001E00
0C00000000
0000000000
ENDCHAR

STARTCHAR cns4_2235
ENCODING 8757
SWIDTH 960 0
DWIDTH 34 0
BBX 34 34 0 -2
BITMAP
0000000000
00000C0000
0018FE0000
00300C0000
0070060000
0060030000
00C0018000
0181C06000
0301803800
0601801F00
1C01800000
3001800000
0801801800
0FFFFFFC00
0C01801800
0C01801800
0C01801800
0C01801800
0C01801800
0C01801800
0FFFFFF800
0C01801800
0C01801800
0001800000
0001800000
0001800000
0001800000
0001800000
0001800000
0001800000
0001800000
0001800000
0001800000
0000000000
ENDCHAR

STARTCHAR cns4_2236
ENCODING 8758
SWIDTH 960 0
DWIDTH 34 0
BBX 34 34 0 -2
BITMAP
0000000000
0000000000
008000C000
00FFFFE000
00C000C000
00C000C000
00C000C000
00C200C000
00C3FFC000
00C300C000
00C300C000
00C300C000
00C300C000
00C300C000
00C300C000
08C300CC00
0FFFFFFE00
0C00000C00
0C00000C00
0C00000C00
0C00000C00
0C00000C00
0C00000C00
0C00000C00
0C00000C00
0C00000C00
0C00000C00
0C00000C00
0C00000C00
0C00001C00
0C0001FC00
0C00003800
0C00000000
0000000000
ENDCHAR

STARTCHAR cns4_2237
ENCODING 8759
SWIDTH 960 0
DWIDTH 34 0
BBX 34 34 0 -2
BITMAP
0000000000
0000000000
0000000000
0800000C00
0FFFFFFE00
0C00000C00
0C00001800
1800003000
18000C0000
0001FE0000
00180C0000
00300C0000
00600C0000
0060060000
00C0060000
00C0030000
0180018000
030000C000
0603007000
0C06003800
180C001E00
000C000000
0018000000
0018000000
0018030000
0030018000
0030018000
006001C000
00C0FFE000
00FFE07000
0FE0003000
0700003000
0000000000
0000000000
ENDCHAR

STARTCHAR cns4_2238
ENCODING 8760
SWIDTH 960 0
DWIDTH 34 0
BBX 34 34 0 -2
BITMAP
0000000000
0000000000
0000000000
0000000000
0000300000
1800180000
0C000E0000
0600060000
0300060000
0300000000
0000E00000
0000C00000
0040C00000
0040C00000
00C0C00000
00C0C00000
0180C01800
0190C00C00
0310C00C00
0330C00600
0630C00600
0660C00300
3C60C00300
1C60C02000
0C60C02000
0C00C02000
0C00C02000
0600C03000
0600E07000
0600FFF000
06007FE000
0000000000
0000000000
0000000000
ENDCHAR

STARTCHAR cns4_2239
ENCODING 8761
SWIDTH 960 0
DWIDTH 34 0
BBX 34 34 0 -2
BITMAP
0000000000
0000000000
0038000700
0030000600
0030000600
003001C600
0030018600
0030618600
3FFFF18600
0030018600
0030018600
0030018600
0030018600
0030018600
0030C18600
3FFFE18600
0601818600
0301818600
0303018600
0183018600
0183018600
00C6018600
00C6018600
006C018600
007C018600
0038000600
0038000600
006E000600
00C7800600
0183E00E00
0600F8FE00
3C00001C00
0000000000
0000000000
ENDCHAR

STARTCHAR cns4_223A
ENCODING 8762
SWIDTH 960 0
DWIDTH 34 0
BBX 34 34 0 -2
BITMAP
0000000000
0000000000
0038000700
0030000600
003001C600
0030018600
0030198600
3FFFFD8600
0000018600
001C018600
0018018600
0018018600
0818318600
0FFFF98600
0C18318600
0C18318600
0C18318600
0C18318600
0C18318600
0C18318600
0C18318600
0C18318600
0C18318600
0C18318600
0C18300600
0C18700600
0C1FF00600
0C18E00600
0C18000600
0018000E00
001801FC00
0018003800
0000000000
0000000000
ENDCHAR

STARTCHAR cns4_223B
ENCODING 8763
SWIDTH 960 0
DWIDTH 34 0
BBX 34 34 0 -2
BITMAP
0000000000
0000000000
0003000700
003F800600
01C3000600
0183038600
0183030600
0301830600
0301830600
0301830600
0600C30600
0600C30600
0600C30600
0C00630600
1800330600
3000DB0600
0FFFE30600
00C0C30600
00C0C30600
00C0C30600
00C0C30600
0180C30600
0181830600
0181830600
0301800600
0301800600
0301800600
0601800600
0603000600
0C07000E00
18FE00FE00
301C001C00
0000000000
0000000000
ENDCHAR

STARTCHAR cns4_223C
ENCODING 8764
SWIDTH 960 0
DWIDTH 34 0
BBX 34 34 0 -2
BITMAP
0000000000
0000000000
01C1C00700
0181800600
0181800600
018181C600
0181818600
0181818600
0181818600
0181B18600
0FFFF98600
0181818600
0181818600
0181818600
0181818600
0181818600
0181818600
0181818600
0301818600
0301998600
1FFFFD8600
0301818600
0301818600
0301818600
0601818600
0601800600
0601800600
0C01800600
0C01800600
1801800E00
180180FE00
3001801C00
6001800000
0000000000
ENDCHAR

STARTCHAR cns4_223D
ENCODING 8765
SWIDTH 960 0
DWIDTH 34 0
BBX 34 34 0 -2
BITMAP
0000000000
0000000000
0000000700
0000600600
0000C00600
060181C600
03C3018600
00FE018600
001C018600
0036018600
00E3818600
0381C18600
0600E18600
1C00018600
0001C18600
0001C18600
0003818600
0303018600
0186018600
00C6018600
006C018600
003C018600
0018018600
001C018600
0036000600
0063000600
00C3000600
0181800600
0300C00600
0600C00E00
0C0001FC00
1800003800
3000000000
0000000000
ENDCHAR

STARTCHAR cns4_223E
ENCODING 8766
SWIDTH 960 0
DWIDTH 34 0
BBX 34 34 0 -2
BITMAP
0000000000
0000000000
0038000700
0030000600
0030000600
0030038600
0030C30600
1FFFE30600
0030030600
0030030600
0030030600
0030030600
0030030600
0030C30600
1FFFE30600
0030030600
0030030600
0030030600
0030030600
0060030600
0060630600
3FFFF30600
0060030600
0060030600
00C0030600
00C0030600
0180030600
0180000600
0300000600
0600000E00
0C0000FE00
1800001C00
3000000000
0000000000
ENDCHAR

STARTCHAR cns4_223F
ENCODING 8767
SWIDTH 960 0
DWIDTH 34 0
BBX 34 34 0 -2
BITMAP
0000000000
0000000000
0038038000
0030030000
0030030000
0030030000
0031830000
1FFFC30000
0000030000
0000030000
0000030600
020C3FFF00
03FE030600
030C030600
030C030600
030C060600
030C060600
030C060600
030C060600
030C060600
030C060600
030C460600
060C4C0600
060C4C0C00
060C6C0C00
060C780C00
0C0EF80C00
0C0FF00C00
0C07F01800
180067F000
1800C0E000
3003800000
6000000000
0000000000
ENDCHAR

STARTCHAR cns4_2240
ENCODING 8768
SWIDTH 960 0
DWIDTH 34 0
BBX 34 34 0 -2
BITMAP
0000000000
0000000000
000001C000
0180018000
0300018000
0600018000
0600018000
0C00618000
0FFFF18000
1800018000
1800018600
3000DFFF00
67FFE18600
0000018600
0006018600
0FFF030600
0006030600
000C030600
0018030600
0030030600
0060030600
00C0030600
0180030600
0300030600
0600460600
0600460C00
0C00460C00
0C00660C00
0E00EC1800
0FFFEDF800
07FFD87000
0000300000
0000000000
0000000000
ENDCHAR

STARTCHAR cns4_2241
ENCODING 8769
SWIDTH 960 0
DWIDTH 34 0
BBX 34 34 0 -2
BITMAP
0000000000
0000038000
000E030000
003C030000
01E0030000
0760030000
1C60030000
0060030000
0060030000
0060030600
0061BFFF00
3FFFC30600
0060030600
0060030600
0060070600
0060060600
0060060600
0060C60600
3FFFE60600
0060060600
0060060600
00600C0600
00600C0600
00600C0C00
00600C0C00
0060180C00
0060180C00
0060300C00
0060300C00
00E0601800
0FE0C7F000
01C180E000
0003000000
0000000000
ENDCHAR

STARTCHAR cns4_2242
ENCODING 8770
SWIDTH 960 0
DWIDTH 34 0
BBX 34 34 0 -2
BITMAP
0000000000
0000000000
000F01C000
003C018000
08F0018000
0F00018000
0C00018000
0C00018000
0C00018000
0C00018600
0C003FFF00
0C03018600
0FFF818600
0C18018600
0C18018600
0C18030600
0C18030600
0C18030600
0C18030600
0C18030600
0C18060600
1818060C00
1818060C00
18180C0C00
18180C0C00
1818180C00
1818180C00
1818301800
3018601800
3018C03000
60198FE000
001B01C000
0000000000
0000000000
ENDCHAR

STARTCHAR cns4_2243
ENCODING 8771
SWIDTH 960 0
DWIDTH 34 0
BBX 34 34 0 -2
BITMAP
0000000000
0000000000
0000000000
0800000600
0FFFFFFF00
0C00000000
0C00030000
0C007F8000
0C03030000
0C06030000
0C0C030000
0C0C018000
0C18018000
0C1800C000
0C30006000
0C60003000
0CC1C03800
0D81801E00
0F03000000
0C03000000
0C06000000
0C06030000
0C0C018000
0C0C00C000
0C1807E000
0C33FE6000
0CFFC06000
0CC0000000
0C00000000
0C00000600
0FFFFFFF00
0C00000000
0000000000
0000000000
ENDCHAR

STARTCHAR cns4_2244
ENCODING 8772
SWIDTH 960 0
DWIDTH 34 0
BBX 34 34 0 -2
BITMAP
0000000000
0000000000
0000E00000
0000C00000
0000C00000
0000C00000
0000C00000
0000C00000
0000C00600
3FFFFFFF00
0000C00000
0000C00000
00E0C07000
00C0C06000
00C0C06000
00C0C06000
00CCC06600
3FFEDFFF00
00C0C06000
00C0C06000
00C0C06000
00C0C06000
00C0C06000
00C0C06000
0000C00000
0000C00000
0000C00000
0000C00000
0000C00000
0000C00000
0000C00000
0000C00000
0000C00000
0000000000
ENDCHAR

STARTCHAR cns4_2245
ENCODING 8773
SWIDTH 960 0
DWIDTH 34 0
BBX 34 34 0 -2
BITMAP
0000000000
0000000000
000E000E00
0078007800
01E001E000
0FC00FC000
38C038C000
00C000C000
00C000C000
00C000C000
00C000C000
00C000C000
00C000C000
00C000C000
00C300C300
7FFFBFFF80
00C000C000
00C000C000
00C000C000
00C000C000
00C000C000
00C000C000
018000C000
018000C000
018000C000
018000C000
030000C000
030000C000
030000C000
060000C000
060000C000
0C0000C000
000000C000
0000000000
ENDCHAR

STARTCHAR cns4_2246
ENCODING 8774
SWIDTH 960 0
DWIDTH 34 0
BBX 34 34 0 -2
BITMAP
0000000000
0E0E000000
0C0C040300
0C0C07FF80
0C0C060300
0C0C060300
0C0C060300
0C0C060300
0C0C060300
0C0C060300
0C0C060300
0C0C060300
0CCCC60300
0FEFE60300
0C0C060300
0C0C060300
0C0C060300
0C0C060300
0C0C060300
0C0C060300
0C0C060300
0C0C060300
0C0C060300
0C0C060300
0C0C260300
0C0C260700
0C6C267F00
0DCC360E00
0F0E760000
3C0FF60000
7007E60000
0000060000
0000060000
0000000000
ENDCHAR

STARTCHAR cns4_2247
ENCODING 8775
SWIDTH 960 0
DWIDTH 34 0
BBX 34 34 0 -2
BITMAP
0000000000
0000000000
0800000C00
0FFFFFFE00
0C00000000
0C00000000
0C00700000
0C00E00000
0C00C00000
0C01980000
0C018C0000
0C03060000
0C06030000
0C0C01C000
0C1800F000
0C3703BC00
0CE6031F00
0D86030E00
0F06030000
0C06030000
0C06030000
0C06030000
0C06030000
180C030000
180C030000
180C030000
1818030000
3018030000
3030030000
3030030000
6060030000
00C0030000
0180000000
0000000000
ENDCHAR

STARTCHAR cns4_2248
ENCODING 8776
SWIDTH 960 0
DWIDTH 34 0
BBX 34 34 0 -2
BITMAP
0000000000
0000000000
0003800000
0003000000
0003000000
0003000000
0006000000
0006000000
000C018000
000C00C000
0018006000
0018003000
00300FF800
1FFFFFFC00
0FF8000C00
0000000C00
0000000000
000000E000
00E000C000
00C000C000
0180018000
0180018000
0180030000
0300030000
0300060000
060C061800
06060C0C00
0C060C0600
1803181F00
7FFFFFFF00
3C03FC0300
0003000000
0000000000
0000000000
ENDCHAR

STARTCHAR cns4_2249
ENCODING 8777
SWIDTH 960 0
DWIDTH 34 0
BBX 34 34 0 -2
BITMAP
0000000000
0000000000
000001C000
0000038000
01C0070000
007C0C0000
0007B80000
0001F00000
0003FC0000
001F060000
00F8038000
0F8180E000
0003000000
0006000C00
1FFFFFFE00
000C000000
000C000000
0018600000
0018C00000
0031800000
0061800000
00C3000000
0183000000
0306000000
0606000000
0C0600C000
000C006000
000C003000
001807F800
07FFFFF800
03F8001800
0000001800
0000000000
0000000000
ENDCHAR

STARTCHAR cns4_224A
ENCODING 8778
SWIDTH 960 0
DWIDTH 34 0
BBX 34 34 0 -2
BITMAP
0000000000
0000000000
0000000000
003000C000
0060018000
00C0018000
00C0030000
0180030000
0180060000
0318063000
030C0C1800
060C0C1800
0C06181C00
3FFE7FFC00
1C063C0C00
0000000000
0010060000
001FFF0000
0018060000
0018060000
0018060000
0018060000
0030060000
0030060000
0030060200
0060060200
0060060200
00C0060200
0180060300
0300070700
060007FF00
1C0003FE00
0000000000
0000000000
ENDCHAR

STARTCHAR cns4_224B
ENCODING 8779
SWIDTH 960 0
DWIDTH 34 0
BBX 34 34 0 -2
BITMAP
0000000000
0000001C00
000000F000
00001FC000
000FFE0000
1FFF000000
0000007000
030300E000
018180C000
0181818000
00C0C18000
00C0C30000
0000060000
00000C0000
0000018000
07FFFFC000
0030018000
0030038000
0018030000
0018060000
000C060000
000C0C0000
0006380000
0003E00000
0001C00000
0003F00000
00073C0000
001C0F0000
007003E000
01C000FE00
0700003C00
1C00000000
0000000000
0000000000
ENDCHAR

STARTCHAR cns4_224C
ENCODING 8780
SWIDTH 960 0
DWIDTH 34 0
BBX 34 34 0 -2
BITMAP
0000000000
0000000000
0000000000
0000E00000
0000C00000
0000C00600
3FFFFFFF00
0300000000
0300000000
0300000000
0300000000
0300000000
0300000000
0300000000
0300000000
0380000000
01FFFFF800
0000000000
0080006000
00FFFFF000
00C0006000
00C0006000
00C0006000
00C0006000
00C0006000
00C0006000
00C0006000
00C0006000
00FFFFE000
00C0006000
00C0006000
0000000000
0000000000
0000000000
ENDCHAR

STARTCHAR cns4_224D
ENCODING 8781
SWIDTH 960 0
DWIDTH 34 0
BBX 34 34 0 -2
BITMAP
0000000000
0000000000
0000006000
1FFFFFF000
0000006000
0000006000
0000006000
0000006000
0400006000
07FFFFE000
0600006000
0600000000
0600000800
0600000800
0600000800
0600000C00
0700001C00
07FFFFFC00
03FFFFF800
0000000000
0000000000
0200006000
03FFFFF000
0300006000
0300006000
0300006000
0300006000
0300006000
0300006000
0300006000
03FFFFE000
0300006000
0300006000
0000000000
ENDCHAR

STARTCHAR cns4_224E
ENCODING 8782
SWIDTH 960 0
DWIDTH 34 0
BBX 34 34 0 -2
BITMAP
0000000000
0000000000
0000000000
0000000600
3FFFFFFF00
0001800000
0001800000
0001800000
0001F00000
0001980000
00018E0000
0001830000
0001818000
0001800000
0001800000
0001800000
0001800000
0001800000
0001800000
0201806000
03FFFFF000
0300006000
0300006000
0300006000
0300006000
0300006000
0300006000
0300006000
0300006000
0300006000
03FFFFE000
0300006000
0300006000
0000000000
ENDCHAR

STARTCHAR cns4_224F
ENCODING 8783
SWIDTH 960 0
DWIDTH 34 0
BBX 34 34 0 -2
BITMAP
0000000000
0000000000
0001C00000
0001800000
0001800000
0001800000
0001800000
0001803000
0001FFF800
0001800000
0001800000
0001800000
0001800000
0001800000
0001800000
0001800000
0001800600
3FFFFFFF00
0000000000
0200003000
03FFFFF800
0300003000
0300003000
0300003000
0300003000
0300003000
0300003000
0300003000
0300003000
03FFFFF000
0300003000
0300003000
0000000000
0000000000
ENDCHAR

STARTCHAR cns4_2250
ENCODING 8784
SWIDTH 960 0
DWIDTH 34 0
BBX 34 34 0 -2
BITMAP
0000000000
0000000000
0000000000
0000001800
2063FFFC00
3FF0000000
3060000000
3060000000
3060000000
3060000000
3060000000
3060000600
306FFFFF00
3060600000
3060600000
3060600000
3060C00000
3060C01800
3061FFFC00
3061801800
3063001800
3066001800
3FE0001800
3060001800
3060003000
0000003000
0000003000
0000003000
0000006000
000000E000
00001FC000
0000038000
0000000000
0000000000
ENDCHAR

STARTCHAR cns4_2251
ENCODING 8785
SWIDTH 960 0
DWIDTH 34 0
BBX 34 34 0 -2
BITMAP
0000000000
0000000000
0000000000
0000003800
01C000E000
0180038000
01800E0000
0180F80000
0183980000
0180180000
0198180000
3FFC180000
0180180000
0180180000
0180180E00
0180183800
01801FE000
0183FE0000
018E180000
0180180000
0180180000
0180180000
01BC180200
01F0180200
0F80180200
3C00180300
3000180300
0000180300
00001C0700
00001FFF00
00000FFE00
0000000000
0000000000
0000000000
ENDCHAR

STARTCHAR cns4_2252
ENCODING 8786
SWIDTH 960 0
DWIDTH 34 0
BBX 34 34 0 -2
BITMAP
0000000000
0000000000
0000006000
01FFFFF000
0000006000
0000006000
0000006000
0000006000
007FFFE000
0000006000
0000006000
0000006600
3FFFFFFF00
0000000000
0001800000
0003000000
0006000000
000C001800
001FFFFC00
0038003800
0070003000
00D8006000
018C00C000
030C018000
0E06030000
00038E0000
0000F80000
0001E00000
0007000000
001C000000
00F0000000
0780000000
1C00000000
0000000000
ENDCHAR

STARTCHAR cns4_2253
ENCODING 8787
SWIDTH 960 0
DWIDTH 34 0
BBX 34 34 0 -2
BITMAP
0000000000
0000000000
0000E00000
0001C00000
0001800000
0003000C00
3FFFFFFE00
00060C0000
000C0C0000
0018060000
0030030000
0060018000
00C000E000
0380707800
0E00603F00
3800600F00
0000600000
0000600000
0030600000
0078618000
006060C000
00C0606000
00C0603000
0180603000
0300601800
0300600C00
0600600E00
0C00600600
1000600600
0000E00000
000FE00000
0001C00000
0000000000
0000000000
ENDCHAR

STARTCHAR cns4_2254
ENCODING 8788
SWIDTH 960 0
DWIDTH 34 0
BBX 34 34 0 -2
BITMAP
0000000000
0000000000
0000C00000
0001800000
0003000000
0006060000
00660E0000
003C1C0000
001C180000
000E300000
0006600000
0002C18000
000180C000
000301E000
0FFFFF3000
07F0003000
0001C00000
0001800000
0001800000
0001800000
0001800C00
3FFFFFFE00
0001E00000
0003600000
0003300000
0006180000
00060C0000
000C060000
0018038000
007001F000
01C0007F00
0F00001E00
3800000000
0000000000
ENDCHAR

STARTCHAR cns4_2255
ENCODING 8789
SWIDTH 960 0
DWIDTH 34 0
BBX 34 34 0 -2
BITMAP
0000000000
0000000000
0000000000
00C0038000
0180030000
0300030000
0302030600
0303FFFF00
0303000000
0663000000
3FF3000000
0663000000
0663000000
0C63000000
0C66000000
0C66000000
0C66000000
18C6000000
18C6000000
18C6000000
18C6000000
3186000000
3F86000000
0306000000
03C6000000
06EC000000
066C000000
0C0C000000
180C000000
3018000000
6030000000
0000000000
0000000000
0000000000
ENDCHAR

STARTCHAR cns4_2256
ENCODING 8790
SWIDTH 960 0
DWIDTH 34 0
BBX 34 34 0 -2
BITMAP
0000000000
0000000000
00C0000000
0180000000
0180000C00
0181FFFE00
0180030000
0300030000
0318030000
1FFC030000
0318030000
0618030000
0618030000
0618030000
0630030600
0C33FFFF00
0C30030000
0C30030000
1830030000
1860030000
1E60030000
1BC0030000
00C0030000
00E0030000
01B0030000
0198030000
030C030000
060C030000
0C00070000
18007F0000
30000E0000
6000000000
0000000000
0000000000
ENDCHAR

STARTCHAR cns4_2257
ENCODING 8791
SWIDTH 960 0
DWIDTH 34 0
BBX 34 34 0 -2
BITMAP
0000000000
0000000000
00C0000000
0180018000
0180030000
0180060000
0300060000
03000C0000
03180C0000
3FFC180000
0618180000
061830E000
061831C000
0618618000
0C18618000
0C30C10000
0C31830000
0C31830000
1833060000
1860060000
1C600C0000
1B600C0000
01C0180000
00E0100000
01B0301800
0198600C00
0318C00600
0609800600
0C07FFFE00
180FF80300
300C000300
6000000300
0000000000
0000000000
ENDCHAR

STARTCHAR cns4_2258
ENCODING 8792
SWIDTH 960 0
DWIDTH 34 0
BBX 34 34 0 -2
BITMAP
0000000000
0000000000
00C0000000
0180000000
0180018000
0180030000
0303030000
03FF830000
0303060000
0306060000
0606060300
0606FFFF80
06060C1800
0C0C0C1800
180C183000
000C183000
000C183000
0018306000
00183E6000
003063C000
003000C000
003001F000
0068033800
00CC0E1C00
00C4380E00
0182E00600
0303800000
0601C00000
0C00E00000
18007C0000
30001FFF00
600007FC00
0000000000
0000000000
ENDCHAR

STARTCHAR cns4_2259
ENCODING 8793
SWIDTH 960 0
DWIDTH 34 0
BBX 34 34 0 -2
BITMAP
0000000000
0000000000
00C0000000
0180000600
018FFFFF00
0180186000
0180186000
0198186000
1FFC186000
0318186000
0318186000
0618186000
0618186000
0618186000
0418186000
0C30186000
0C30186000
0C30186000
1830186000
1820186000
1F60186000
19E0306000
00C0306000
00E0306000
01B0606000
0198606000
030CC06000
0305806000
0603006000
0C06006000
180C006000
3038006000
0000006000
0000000000
ENDCHAR

STARTCHAR cns4_225A
ENCODING 8794
SWIDTH 960 0
DWIDTH 34 0
BBX 34 34 0 -2
BITMAP
0000000000
0000000000
0001C00000
0001800000
0001800000
1001800600
1FFFFFFF00
1800000600
3000000C00
300000C000
33FFFFE000
0000000000
0018000000
0030000000
0060003000
00FFFFF800
00C0003000
0180003000
0180003000
0300003000
0600006000
0C00006000
1800006000
3000006000
0000006000
0000006000
000000C000
000000C000
000000C000
0000018000
00003F8000
0000070000
0000000000
0000000000
ENDCHAR

STARTCHAR cns4_225B
ENCODING 8795
SWIDTH 960 0
DWIDTH 34 0
BBX 34 34 0 -2
BITMAP
0000000000
0000000000
0000E00000
0000C00000
0000C00000
0800C00600
0FFFFFFF00
1C00000600
1803800C00
1803000000
1806000000
0006000000
000C000000
000C000000
000C00C000
001FFFE000
001800C000
0018018000
0030018000
0030018000
0060018000
0060030000
0060030000
00FFFF0000
00C0030000
00C0060000
0180060000
0000060000
0000060000
00000C0600
3FFFFFFF00
0000000000
0000000000
0000000000
ENDCHAR

STARTCHAR cns4_225C
ENCODING 8796
SWIDTH 960 0
DWIDTH 34 0
BBX 34 34 0 -2
BITMAP
0000000000
0000700000
0000600000
0000600000
0000600000
0000600000
0000600000
0000606000
00007FF000
0000600000
0000600000
0000600000
0000600000
0000600000
0000600600
1FFFFFFF00
0000600000
0000600000
0000600000
0060630000
00C0618000
00C060C000
0180606000
0300603000
0600601800
0C00601800
1800600C00
3000600C00
0000600000
0000E00000
000FE00000
0001C00000
0000000000
0000000000
ENDCHAR

STARTCHAR cns4_225D
ENCODING 8797
SWIDTH 960 0
DWIDTH 34 0
BBX 34 34 0 -2
BITMAP
0000000000
01C0000000
0180000000
0180000000
0180000C00
01807FFE00
0180018000
0181818000
7FFFC18000
0318018000
0318018000
0318018000
0318018300
0319FFFF80
0318018000
0318018000
0318018000
0318018000
0318018000
0618018000
0618018000
0618018000
0618018000
0618018000
0C18018000
0C18038200
0C183F8200
1818070300
1818000300
301C000700
600FFFFF00
0007FFFE00
0000000000
0000000000
ENDCHAR

STARTCHAR cns4_225E
ENCODING 8798
SWIDTH 960 0
DWIDTH 34 0
BBX 34 34 0 -2
BITMAP
0000000000
0000000000
0400001800
07FFFFFC00
0600001800
0600001800
0600001800
0600001800
0600001800
0600001800
07FFFFF800
0600001800
0600000000
0600000000
0600000000
0620000600
063FFFFF00
0630000600
0630000600
0630000600
0630000600
0630000600
0630000600
0C30000600
0C30000600
0C30000600
0C30000600
1830000600
1830000600
303FFFFE00
3030000600
6030000600
0000000000
0000000000
ENDCHAR

STARTCHAR cns4_225F
ENCODING 8799
SWIDTH 960 0
DWIDTH 34 0
BBX 34 34 0 -2
BITMAP
0000000000
0000000000
0180006000
00C000C000
00C0018000
0060030000
0060030000
0060060600
3FFFFFFF00
0000C00000
0000C00000
0000C00000
0380C03800
0300C03000
0300C03000
0300C03000
0300C03000
0300C03000
0300C03000
0300C03000
0300C03000
03FFFFF000
0301803000
0301803000
0001800000
0003000000
0003000000
0006000000
0006000000
000C000000
0018000000
0030000000
00C0000000
0000000000
ENDCHAR

STARTCHAR cns4_2260
ENCODING 8800
SWIDTH 960 0
DWIDTH 34 0
BBX 34 34 0 -2
BITMAP
0000000000
0000000000
0000000000
0380000600
0301FFFF00
0300030000
0300030000
0300030000
731C030000
6318030000
6318030000
6318030000
6318030000
6318030000
6318030300
631BFFFF80
6318030000
6318030000
6318030000
6318030000
6318030000
6318030000
6318030000
6318030000
6318030000
7FF8030000
6018030000
6018030000
0000030000
0000030000
0000030000
0000030000
0000030000
0000000000
ENDCHAR

STARTCHAR cns4_2261
ENCODING 8801
SWIDTH 960 0
DWIDTH 34 0
BBX 34 34 0 -2
BITMAP
0000000000
0000000000
0000E00000
0700C03800
0600C03000
0600C03000
0600C03000
0600C03000
07FFFFF000
0600003000
0600003000
0040030000
007FFF8000
0060030000
0060030000
0060030000
0060030000
0060030000
0066030000
0063030000
0061830000
0060C30000
0060630000
0060630000
00C0030000
00C0030100
00C0030100
0180030100
0180030180
0300030180
0600038380
1C0003FF80
300001FF00
0000000000
ENDCHAR

STARTCHAR cns4_2262
ENCODING 8802
SWIDTH 960 0
DWIDTH 34 0
BBX 34 34 0 -2
BITMAP
0000000000
0000000000
0030303000
0060606000
00C0C0C000
0180808000
0101010000
0606030000
0303018000
018180E000
00C0C07000
0060603000
0000000000
0200003000
03FFFFF800
0300003000
0300003000
0300003000
0300003000
0300003000
03FFFFF000
0300003000
0300003000
0300003000
0300003000
0300003000
0300003000
0300003000
0300003000
0300007000
03000FE000
030001C000
0300000000
0000000000
ENDCHAR

STARTCHAR cns4_2263
ENCODING 8803
SWIDTH 960 0
DWIDTH 34 0
BBX 34 34 0 -2
BITMAP
0000000000
0000000000
0000000000
0000003000
0007FFF800
000C183000
3FFE183000
0180183000
0180183000
0180183000
0180183000
0181983000
0180F83000
0180383000
01801E3000
01801F3000
01801B3000
0180183000
0180183000
0180381800
018E301800
01F8301800
07E0301800
3F00301900
3000600D00
0000600D00
0000C00D80
0000C00780
0001800780
0003000300
0006000000
0000000000
0000000000
0000000000
ENDCHAR

STARTCHAR cns4_2264
ENCODING 8804
SWIDTH 960 0
DWIDTH 34 0
BBX 34 34 0 -2
BITMAP
0000000000
0000000000
01C0000000
0180000C00
0181FFFE00
0180030000
0180030000
218C030000
3FFE030000
318C030000
318C030000
318C030000
318C030000
318C030300
318FFFFF80
318C030000
318C030000
318C030000
318C030000
318C030000
318C030000
318C030000
318C030000
318C030000
31FC030000
3198030000
0180030000
0180030000
0180030000
0180030000
0180030000
0180030000
0180030000
0000000000
ENDCHAR

STARTCHAR cns4_2265
ENCODING 8805
SWIDTH 960 0
DWIDTH 34 0
BBX 34 34 0 -2
BITMAP
0000000000
0000000000
01C0000C00
0183FFFE00
01800C0C00
01800C0C00
01800C0C00
21980C0C00
3FFC0C0C00
31980C0C00
31980C0C00
31980C0C00
31998C0C00
3198EC0C00
31987C0C00
3198380C00
3198180C00
3198180C00
3198180C00
3198180C00
3198300C00
3198300C00
3198300C00
3198601800
31F8601800
3190C01800
0180C01800
0181803000
01830FE000
018601C000
018C000000
0198000000
0180000000
0000000000
ENDCHAR

STARTCHAR cns4_2266
ENCODING 8806
SWIDTH 960 0
DWIDTH 34 0
BBX 34 34 0 -2
BITMAP
0000000000
0000E00000
0000C00000
0000C00000
0000C00600
3FFFFFFF00
0300000000
0300000000
0300000000
0300000000
0300000000
0300000000
0380000000
01FFFFF800
0000000000
0000E00000
0000C00000
0200C03000
03FFFFF800
0300C03000
0300C03000
0300C03000
0300C03000
0300C03000
0300C03000
0300C03000
0300C07000
0300CFE000
0000C1C000
0000C00000
0000C00000
0000C00000
0000C00000
0000000000
ENDCHAR

STARTCHAR cns4_2267
ENCODING 8807
SWIDTH 960 0
DWIDTH 34 0
BBX 34 34 0 -2
BITMAP
0000000000
0000000000
0000000000
0030000000
006000C000
0060018000
00C0030000
00C0030000
0180030000
0181860600
0303060C00
03060C1800
06060C1800
060C0C3000
0C0C183000
3818306000
1818F06000
0C1830C000
063018C000
02300D8000
0060058000
0060030000
00C0030000
00C0060000
0180060000
030C0C1800
03060C0C00
0606180C00
0C0733FE00
1CFF7F0600
1F83600600
0000000000
0000000000
0000000000
ENDCHAR

STARTCHAR cns4_2268
ENCODING 8808
SWIDTH 960 0
DWIDTH 34 0
BBX 34 34 0 -2
BITMAP
0000000000
0000000000
0000E00000
0000C00000
0400C00600
07FFFFFF00
0600000000
0600000000
0600000000
0600000000
0600001800
07FFFFFC00
0600600000
0600600000
0600600000
0600600000
0600600000
0600600000
06007C0000
0600670000
060061C000
0600606000
0600603000
0C00600000
0C00600000
0C00600000
0C00600000
0C00600000
1800600000
1800600000
1800600000
3000600000
6000000000
0000000000
ENDCHAR

STARTCHAR cns4_2269
ENCODING 8809
SWIDTH 960 0
DWIDTH 34 0
BBX 34 34 0 -2
BITMAP
0000000000
0000000000
0000700000
0000600000
0400600600
07FFFFFF00
0600000000
0600000000
0600000000
0600000000
0640003000
067FFFF800
0660003000
0660003000
0660003000
0660003000
0660003000
0660003000
0660003000
0660003000
0660003000
0660003000
0C60003000
0C60003000
0C60003000
0C60003000
0C60003000
187FFFF000
1860003000
1860003000
3000000000
6000000000
0000000000
0000000000
ENDCHAR

STARTCHAR cns4_226A
ENCODING 8810
SWIDTH 960 0
DWIDTH 34 0
BBX 34 34 0 -2
BITMAP
0000000000
0000000000
0030000000
3FF8000C00
0033FFFE00
0030060000
0030060000
0030060000
0030060000
1830060000
1FF0060000
1830060000
3000060000
3000060300
3007FFFF80
3000060000
3030060000
3FF8060000
3030060000
3030060000
0030060000
0030060000
0030060000
0030060000
0060060000
0060060000
0060060000
0060060000
00C0060000
01C0060000
3F80060000
0700060000
0000060000
0000000000
ENDCHAR

STARTCHAR cns4_226B
ENCODING 8811
SWIDTH 960 0
DWIDTH 34 0
BBX 34 34 0 -2
BITMAP
0000000000
0000000000
0060000000
3FF0000C00
0063FFFE00
0060030000
0060030000
0060030000
0060030000
2060030000
3FE0030000
3060030000
3000030000
3000030000
3000030600
3007FFFF00
3060030000
3FF0030000
6060030000
6060030000
0060030000
0060030000
0060030000
00E0030000
00E0030000
00C0030000
00C0030000
00C0030000
00C0030000
0180070000
3F807F0000
07000E0000
0000000000
0000000000
ENDCHAR

STARTCHAR cns4_226C
ENCODING 8812
SWIDTH 960 0
DWIDTH 34 0
BBX 34 34 0 -2
BITMAP
0000000000
0000000000
0006000C00
1FFF3FFE00
0006000C00
0006000C00
0006000C00
0006000C00
0006000C00
0806100C00
0FFE1FFC00
0C06180C00
0C00180000
0C00180000
1800180000
1800300000
1806300C00
1FFF3FFE00
1806300C00
1806300C00
0006000C00
0006000C00
0006000C00
0006001800
000C001800
000C001800
000C001800
000C001800
000C001800
0018003000
003807F000
07F000E000
00E0000000
0000000000
ENDCHAR

STARTCHAR cns4_226D
ENCODING 8813
SWIDTH 960 0
DWIDTH 34 0
BBX 34 34 0 -2
BITMAP
0000000000
0000000000
00C00E0000
01800C0000
03000C0000
06000C0000
06070C0000
0C060C0000
18360C1800
30660C3C00
00C60DD800
01861F1800
0186FC1800
030F8C1800
077E0C1800
07060C1800
0F060C1800
1B060C1800
33060C1800
03060C1800
03060C1800
03060C3800
03060FF800
03060C7200
03060C0200
03060C0200
03060C0300
0306000300
0307000700
0307FFFF00
0303FFFE00
0300000000
0300000000
0000000000
ENDCHAR

STARTCHAR cns4_226E
ENCODING 8814
SWIDTH 960 0
DWIDTH 34 0
BBX 34 34 0 -2
BITMAP
0000000000
0000000000
00C0000000
01801C0000
0300180000
0600180000
0C00180000
1800180000
3030180000
6060180000
00C0180000
0180180000
0180181800
031FFFFC00
0700180000
0700180000
0F00180000
1B00180000
3300180000
0300180000
0300180000
0300180000
0300180000
0300180000
0300180000
0300180000
0300180000
0300180000
0300180600
037FFFFF00
0300000000
0300000000
0300000000
0000000000
ENDCHAR

STARTCHAR cns4_226F
ENCODING 8815
SWIDTH 960 0
DWIDTH 34 0
BBX 34 34 0 -2
BITMAP
0000000000
0000000000
0000003000
07FFFFF800
0001803000
0001803000
0001803000
0001803000
0003006000
0003006000
0006006000
0006006000
000C006000
000C006000
001800C000
007001C000
01C03F8000
0700070000
1C00000000
0000C00000
001C600000
0018603000
0018301800
0218309800
0618008C00
0618008C00
0C18008600
1C1800C600
181800C000
001C01C000
000FFFC000
0007FF8000
0000000000
0000000000
ENDCHAR

STARTCHAR cns4_2270
ENCODING 8816
SWIDTH 960 0
DWIDTH 34 0
BBX 34 34 0 -2
BITMAP
0000000000
0000000000
01C0000000
01800C0000
0180180000
0180300000
0180300000
0180600000
0180600600
01B0FFFF00
0998C00600
1999800600
1999800600
198F000600
318E000600
3180300600
0180180600
01800C0600
01800C0600
0180060600
0180060600
0180000600
0180000C00
0180000C00
0180000C00
0180000C00
0180000C00
0180000C00
0180001800
018003F800
0180007000
0180000000
0180000000
0000000000
ENDCHAR

STARTCHAR cns4_2271
ENCODING 8817
SWIDTH 960 0
DWIDTH 34 0
BBX 34 34 0 -2
BITMAP
0000000000
0000000000
0000000000
0000000000
000000C000
01FFFFE000
0000000000
0000000000
0000000000
0000000000
0000000000
0000000000
0000000000
0000000C00
3FFFFFFE00
0000000000
0000000000
0000000000
0000000000
0070C00000
0060601800
0060300C00
0460300C00
0C60300600
0C60008600
1860008300
3860008300
3060008300
006000C300
007001C000
003FFFC000
001FFF8000
0000000000
0000000000
ENDCHAR

STARTCHAR cns4_2272
ENCODING 8818
SWIDTH 960 0
DWIDTH 34 0
BBX 34 34 0 -2
BITMAP
0000000000
0000000000
001C070000
0018060000
0018060000
0018667000
0FFFF63800
0018061800
0018061800
0018060000
0018060000
0018060600
3FFFFFFF00
0000030000
0000030000
0000030000
0000030600
0000030C00
0000031800
0000033000
000001B000
000001E000
000001C000
000001C000
000001C000
0000036100
0000066100
00000C3100
0000381B80
0000600F80
0001C00780
0007000300
0000000000
0000000000
ENDCHAR

STARTCHAR cns4_2273
ENCODING 8819
SWIDTH 960 0
DWIDTH 34 0
BBX 34 34 0 -2
BITMAP
0000000000
0000000000
01C0000000
0180400600
01807FFF00
0180600600
0180600600
0180600600
018C600600
3FFE600600
0180600600
0180600600
0180600600
0180600600
0180600600
01807FFE00
019C600600
01F0600600
01C0600600
0F80600600
3D80600600
3180600600
0180600600
0180600600
0180600600
0180600600
0180600600
0180600600
0180600600
0380600E00
7F0060FE00
0E00601C00
0000600000
0000000000
ENDCHAR

STARTCHAR cns4_2274
ENCODING 8820
SWIDTH 960 0
DWIDTH 34 0
BBX 34 34 0 -2
BITMAP
0000000000
0000000000
00E0000000
00C0038000
00C0030000
00C0030000
00C0030000
00C0030000
00C6830600
1FFFFFFF00
00C0C30600
00C0C30600
00C0C30600
00C0C30600
00C0C30600
00C0C30600
00CEC30600
00F8C30600
01E0C30600
1FC0C30600
1CC0C30600
00C0C30600
00C0C30600
00C0C30E00
00C0C3FE00
00C0C31C00
00C0C30000
00C0030000
01C0030000
1FC0030000
0380030000
0000030000
0000030000
0000000000
ENDCHAR

STARTCHAR cns4_2275
ENCODING 8821
SWIDTH 960 0
DWIDTH 34 0
BBX 34 34 0 -2
BITMAP
0000000000
0000000000
01C0000C00
0180FFFE00
0180000C00
0180000C00
0180000C00
0180000C00
0186000C00
3FFF800C00
0180FFFC00
0180C00C00
0180C00000
0180C00000
0180C00000
0180C00000
018F800C00
01F9FFFE00
03E1800C00
1F81800C00
3980000C00
3180000C00
0180000C00
0180001800
0180001800
0180001800
0180001800
0180001800
0180003000
0380007000
3F800FE000
070001C000
0000000000
0000000000
ENDCHAR

STARTCHAR cns4_2276
ENCODING 8822
SWIDTH 960 0
DWIDTH 34 0
BBX 34 34 0 -2
BITMAP
0000000000
01C0000000
0180007000
0180006000
0180006000
0180006000
0180006000
0180006000
018C006000
3FFE006000
0180006300
018FFFFF80
0180006000
0180006000
0180006000
0180006000
019C006000
01F3006000
01C1806000
0F80C06000
3980606000
3180606000
0180606000
0180006000
0180006000
0180006000
0180006000
0180006000
0180006000
038000E000
3F800FE000
070001C000
0000000000
0000000000
ENDCHAR

STARTCHAR cns4_2277
ENCODING 8823
SWIDTH 960 0
DWIDTH 34 0
BBX 34 34 0 -2
BITMAP
0000000000
0000000000
0000070000
1C00060000
1800060000
1800060000
1800060000
1800060300
1803FFFF80
1800060000
1800060000
1800060000
1860060000
1FF0060000
1800061800
1807FFFC00
1800C01800
1800C01800
1800603000
1800603000
1800306000
180030C000
180018C000
1800198000
18000B8000
18300F0000
19C00F0000
1F0019C000
1C0070F000
0801C03800
0007001E00
001C000780
0070000000
0000000000
ENDCHAR

STARTCHAR cns4_2278
ENCODING 8824
SWIDTH 960 0
DWIDTH 34 0
BBX 34 34 0 -2
BITMAP
0000000000
0000000000
0000000000
0100006000
01FFFFF000
0180006000
0180006000
0180006000
0180006000
01FFFFE000
0180006000
0180006000
0180006000
0180006000
0180006000
01FFFFE000
0180006000
0000000000
00E0000000
00C0000000
00C0000000
00C0008000
00C001C000
00FFFFE000
00C0000400
00C0000400
00C0000600
00C0000600
00E0000E00
00FFFFFE00
007FFFFC00
0000000000
0000000000
0000000000
ENDCHAR

STARTCHAR cns4_2279
ENCODING 8825
SWIDTH 960 0
DWIDTH 34 0
BBX 34 34 0 -2
BITMAP
0000000000
0000000000
00000E0000
00000C0000
00000C0000
20600C0000
3FF00C0000
30600C0000
30600C0000
30600C0600
3067FFFF00
30600C0600
30600C0600
30600C0600
30600C0600
3FE0180600
3060180600
3060180600
3060180600
3060180600
3060300C00
3060300C00
3060600C00
3060600C00
3060C00C00
3FE0C00C00
3061800C00
3063001800
0006001800
000C003000
001807F000
007000E000
0000000000
0000000000
ENDCHAR

STARTCHAR cns4_227A
ENCODING 8826
SWIDTH 960 0
DWIDTH 34 0
BBX 34 34 0 -2
BITMAP
0000000000
0038000000
0030000E00
0030000C00
00300E0C00
00300C0C00
00300C0C00
00300C0C00
00318C0C00
0FFFCC0C00
00300C0C00
00700C0C00
00700C0C00
00700C0C00
00FC0C0C00
00F60C0C00
01B30C0C00
01B38C0C00
01B18C0C00
03300C0C00
03300C0C00
06300C0C00
0C300C0C00
18300C0C00
30300C0C00
0030000C00
0030000C00
0030000C00
0030000C00
0030001C00
003001FC00
0030003800
0000000000
0000000000
ENDCHAR

STARTCHAR cns4_227B
ENCODING 8827
SWIDTH 960 0
DWIDTH 34 0
BBX 34 34 0 -2
BITMAP
0000000000
0000000000
0100018000
01FFFFC000
0180018000
0180018000
0180018000
0180030000
0180070000
01807F1000
01800E1000
0180001000
0180001000
01C0003800
00FFFFF800
007FFFF000
0000000000
0000E00000
0000C00000
0000C00600
3FFFFFFF00
0003E00000
0006F00000
000CDC0000
0018C60000
0030C38000
0060C1E000
01C0C07800
0700C01F00
1C00C00780
7000C00000
0000C00000
0000C00000
0000000000
ENDCHAR

STARTCHAR cns4_227C
ENCODING 8828
SWIDTH 960 0
DWIDTH 34 0
BBX 34 34 0 -2
BITMAP
0000000000
0000000000
0000000000
000C000600
3FFFFFFF00
0300180000
0300180000
0300180000
0300180000
0300300000
0618300000
07FC600000
0618600C00
0C187FFE00
0C18C00C00
1830C00C00
1830C00C00
3630000C00
3360000C00
0360001800
0160001800
00C0001800
00C0001800
0180001800
0180001800
0300003000
0300003000
0600003000
0C00006000
18000FE000
300001C000
0000000000
0000000000
0000000000
ENDCHAR

STARTCHAR cns4_227D
ENCODING 8829
SWIDTH 960 0
DWIDTH 34 0
BBX 34 34 0 -2
BITMAP
0000000000
0000000000
00000E0000
000C0C0000
3FFE0C0000
03000C0000
03000C0000
03000C0000
03000C0000
03000C0000
06180C0000
07FC0C0000
06180C0000
0C180E0000
0C181B0000
0C301B0000
18301B0000
1C301B0000
36301B0000
6360318000
01E0318000
0060618000
00C060C000
00C0C0C000
0180C06000
0181806000
0301803000
0603003000
0C06001800
180C001C00
3038000E00
60E0000700
0000000000
0000000000
ENDCHAR

STARTCHAR cns4_227E
ENCODING 8830
SWIDTH 960 0
DWIDTH 34 0
BBX 34 34 0 -2
BITMAP
0000000000
0000000000
000007C000
00007F0000
001FF00000
07FE000000
000600F000
001FFF8000
0FFF800000
0006001E00
00067FF000
7FFFF00800
0006000800
0007001C00
0007FFFC00
0003FFF800
0000000000
00001C0000
001C180000
0018180000
0018180000
0018180000
0018180000
0018180000
0030180400
0030180400
0030180400
0060180600
00C0180600
03801C0E00
06001FFE00
1C000FFC00
7000000000
0000000000
ENDCHAR

STARTCHAR cns4_2321
ENCODING 8993
SWIDTH 960 0
DWIDTH 34 0
BBX 34 34 0 -2
BITMAP
0000000000
0000000000
00000FC000
040FFF0000
07FF300000
0600300000
0600300000
0600300000
0600306000
07FFFFF000
0600300000
0600181000
0600181000
06000C1000
0601EC1000
067F861800
3FF003B800
3C00E1F800
0000C0F000
0000C00000
0000C00000
0000C00600
3FFFFFFF00
0000C00000
0000C00000
0000C00000
0000C00000
0000C00000
0000C00000
0000C00000
0000C00000
0000C00000
0000C00000
0000000000
ENDCHAR

STARTCHAR cns4_2322
ENCODING 8994
SWIDTH 960 0
DWIDTH 34 0
BBX 34 34 0 -2
BITMAP
0000000000
0000000000
0000000000
0C00000C00
061FFFFE00
0380180C00
0180180C00
0000180C00
0000180C00
0030180C00
3063180C00
1861980C00
0E60D80C00
06C0780C00
00C0780C00
00C0300C00
0180300C00
0180300C00
0180301800
0300301800
0300601800
0200601800
0600601800
1E00C01800
0600C01800
0601801800
0603003000
0606007000
060C0FE000
061801C000
0670000000
0000000000
0000000000
0000000000
ENDCHAR

STARTCHAR cns4_2323
ENCODING 8995
SWIDTH 960 0
DWIDTH 34 0
BBX 34 34 0 -2
BITMAP
0000000000
0000000000
0000000000
060000E000
038001C000
01C0018000
00C0030000
0000060000
00000C0000
0000380000
0000E00000
0003803800
1860007000
0EC0006000
07C000C000
03C0038000
00C0060000
00C00C0000
0180380000
0180E00000
0301800E00
0307001C00
0300003800
1E00006000
1E0001C000
0600030000
0600060000
06001C0000
0600700000
0301C00000
0307000000
031C000000
0000000000
0000000000
ENDCHAR

STARTCHAR cns4_2324
ENCODING 8996
SWIDTH 960 0
DWIDTH 34 0
BBX 34 34 0 -2
BITMAP
0000000000
0000000000
00000C0000
07FFFE0000
000C0C0000
000C0C0000
000C0C0000
000C0C1800
00181FFC00
0018181800
0018301800
0030001800
0030001800
0060003000
00C0E07000
0180CFE000
0200C1C000
0C00C00000
1000C0E000
00C1E1C000
0181E30000
01813E0000
0183180000
0303180000
03060C0000
000C060000
0018038000
003001C000
00E000F800
0380003E00
0E00000F80
3800000000
0000000000
0000000000
ENDCHAR

STARTCHAR cns4_2325
ENCODING 8997
SWIDTH 960 0
DWIDTH 34 0
BBX 34 34 0 -2
BITMAP
0000000000
0000000000
0000E00000
0001C00000
0003C00000
0007200000
0006300000
000C180000
00180C0000
0030060000
0060030000
00C001C000
018000F000
0300007C00
0E01C03F00
3801800E00
0001807000
0031806000
006180C000
0061C18000
00C1C70000
01837C0000
0303300000
0303300000
0006180000
000C0C0000
0018060000
0030038000
006001E000
01C000F800
0700003E00
1C00000F80
0000000000
0000000000
ENDCHAR

STARTCHAR cns4_2326
ENCODING 8998
SWIDTH 960 0
DWIDTH 34 0
BBX 34 34 0 -2
BITMAP
0000000000
0000000000
0038000E00
0030000C00
00301C0C00
01B0180C00
0330180C00
0630180C00
0630180C00
0633180C00
07FF980C00
0C30180C00
0C30180C00
0C30180C00
1830180C00
0030180C00
0033180C00
003E180C00
0038180C00
01F0180C00
07B0181C00
0E3018EC00
00301F0C00
0030F80C00
0031C00C00
0030000C00
0030000C00
0030000C00
0030000C00
0030000C00
0030000C00
0030000C00
0030000C00
0000000000
ENDCHAR

STARTCHAR cns4_2327
ENCODING 8999
SWIDTH 960 0
DWIDTH 34 0
BBX 34 34 0 -2
BITMAP
0000000000
0000000000
0000380000
0038300000
0C70600000
06C0600000
0380C00000
0180C00000
0781800C00
0D81FFFE00
18C1800C00
00C3000C00
00C6000C00
006C000C00
00F8000C00
00B0600C00
01B0300C00
0330180C00
06301C0C00
0C300C0C00
1830060C00
3030041800
0060001800
0060001800
0060001800
0060001800
0060001800
0060001800
0060001800
00C0003000
1FC007F000
038000E000
0000000000
0000000000
ENDCHAR

STARTCHAR cns4_2328
ENCODING 9000
SWIDTH 960 0
DWIDTH 34 0
BBX 34 34 0 -2
BITMAP
0000000000
0000000000
0038000000
0030007800
186001E000
0CC0078000
07801E0000
0300FC0000
07038C0000
0D000C0000
39800C0000
01800C0000
00C00C0000
00C00C0000
01C00C0000
01C00C0600
0367FFFF00
02600C0000
06600C0000
0C600C0000
18600C0000
30600C0000
00600C0000
00600C0200
00600C0200
00600C0200
00600C0300
00C00C0300
00C00E0700
01C00FFF00
3F8007FE00
0700000000
0000000000
0000000000
ENDCHAR

STARTCHAR cns4_2329
ENCODING 9001
SWIDTH 960 0
DWIDTH 34 0
BBX 34 34 0 -2
BITMAP
0000000000
0000000000
0000000700
0000000600
000C380600
3FFE300600
0180300600
0180300600
0180300600
0180300600
0180300600
0180300600
0180300600
0180300600
0198300600
1FFC300600
0180300600
0180300600
0180300600
0180300600
0180300600
0180301E00
018C30FE00
01B837C600
01E1FC0600
0F83C00600
3C00000600
1800000600
0000000600
0000000600
0000000600
0000000600
0000000600
0000000000
ENDCHAR

STARTCHAR cns4_232A
ENCODING 9002
SWIDTH 960 0
DWIDTH 34 0
BBX 34 34 0 -2
BITMAP
0000000000
0000000000
0000030000
000C3F8000
3FFE030000
0180030000
0180030000
0180330000
0180630000
0180C30000
0180C30000
0180C30000
0180C30000
0198C30000
3FFCC30000
0180C18000
0180C18000
0181818000
0181818000
018180C000
018180C000
018180C000
0183006000
019F006000
01F6006000
0786003000
3E06003000
380C001800
000C001800
0018000E00
0018000F00
0030000780
0060000000
0000000000
ENDCHAR

STARTCHAR cns4_232B
ENCODING 9003
SWIDTH 960 0
DWIDTH 34 0
BBX 34 34 0 -2
BITMAP
0000000000
0000000000
0001C00000
0003800000
0006000000
000C000000
0030000000
1060000C00
1FFFFFFE00
1801800C00
1801800C00
1801800C00
1801800C00
1801800C00
1801800C00
1801800C00
1801800C00
1801800C00
1FFFFFFC00
1801800C00
1801800C00
1801800C00
1801800C00
1801800C00
1801800C00
1801800C00
1801800C00
1801800C00
1801800C00
1FFFFFFC00
1800000C00
1800000C00
0000000000
0000000000
ENDCHAR

STARTCHAR cns4_232C
ENCODING 9004
SWIDTH 960 0
DWIDTH 34 0
BBX 34 34 0 -2
BITMAP
0000000000
0000000000
0000000000
000001C000
0060038000
0030030000
0018060000
0018060000
00180C0000
0000180C00
1FFFFFFE00
0000C00000
0000C00000
0000C00000
0000C00000
0000C00000
0000C00000
0000C00000
0000C03000
03FFFFF800
0000C00000
0000C00000
0000C00000
0000C00000
0000C00000
0000C00000
0000C00000
0000C00000
0000C00000
0000C00600
3FFFFFFF00
0000000000
0000000000
0000000000
ENDCHAR

STARTCHAR cns4_232D
ENCODING 9005
SWIDTH 960 0
DWIDTH 34 0
BBX 34 34 0 -2
BITMAP
0000000000
0000000000
001C000000
003C180000
00300C0000
0060060000
0060060000
00C0030000
0180018000
018000E000
0300007800
0600003F00
0D0000DC00
19FFFFE000
318000C000
018000C000
019F00C000
0183E0C000
018070C000
018030C000
018000C000
01800EC000
018078C000
0183E0C000
019F00C000
019C00C000
018000C000
018000C000
018000C000
018001C000
01801FC000
0180038000
0180000000
0000000000
ENDCHAR

STARTCHAR cns4_232E
ENCODING 9006
SWIDTH 960 0
DWIDTH 34 0
BBX 34 34 0 -2
BITMAP
0000000000
0000000000
01C001C000
0180018000
0186018600
3FFF3FFF00
0180018000
0180018000
0000000000
000001C000
0000018000
00E0018000
00C0018000
00C0018000
00C0018000
00C0018000
00C0018000
00C0018000
00C0018000
00C0018000
00C0018000
00FFFF8000
00C0018000
00C0018000
00C0018000
0000018000
0000018000
0000018000
0000018000
0000018000
0000018000
0000018000
0000018000
0000000000
ENDCHAR

STARTCHAR cns4_232F
ENCODING 9007
SWIDTH 960 0
DWIDTH 34 0
BBX 34 34 0 -2
BITMAP
0000000000
0000000000
01C001C000
0180018000
0186018600
3FFF3FFF00
0180018000
0180018000
0180018000
0000000000
0000000000
0010060000
001FFF0000
0018060000
0018060000
0018060000
0018060000
0018060000
0018060000
0018060000
0030060000
0030060000
0030060000
0030060000
0060060400
0060060400
00C0060400
0180060600
0300060600
0600070E00
0C0007FE00
180003FC00
6000000000
0000000000
ENDCHAR

STARTCHAR cns4_2330
ENCODING 9008
SWIDTH 960 0
DWIDTH 34 0
BBX 34 34 0 -2
BITMAP
0000000000
0000000000
1800000000
0C00000000
060000C000
030FFFE000
030030C000
000030C000
000030C000
00C0318000
3FE0318000
00C0318000
0180618600
018063FF00
0300630600
0300600600
0600C00600
0660C00600
0FF0C00600
0C61800600
1861800600
00C1800C00
00C3000C00
0186000C00
018C001800
019803F800
0300007000
0200000000
0F80000000
38FC000000
300FFFFE00
00003FFC00
0000000000
0000000000
ENDCHAR

STARTCHAR cns4_2331
ENCODING 9009
SWIDTH 960 0
DWIDTH 34 0
BBX 34 34 0 -2
BITMAP
0000000000
0000000000
00E0101800
00C01FFC00
00C0181800
00C0181800
00C0181800
00C0183000
00C6183000
1FFF186000
00C0186000
00C0186000
00C018C000
00C018C000
00C0186000
00C0183000
00CE183000
00F8181800
01E0180C00
0FC0180C00
1CC0180C00
00C0180C00
00C0180C00
00C0180C00
00C0180C00
00C0181C00
00C01BF800
00C0187000
00C0180000
01C0180000
1FC0180000
0380180000
0000180000
0000000000
ENDCHAR

STARTCHAR cns4_2332
ENCODING 9010
SWIDTH 960 0
DWIDTH 34 0
BBX 34 34 0 -2
BITMAP
0000000000
0000000000
0001E40600
000F87FF00
003C060600
07F0060600
1E30060C00
0030060C00
0030061800
0030061800
0030061800
0030063000
0030063000
0030063000
0030663000
3FFFF61800
0030060C00
0030060C00
0030060600
0030060600
0030060300
0030060300
0030060300
0030060300
0030060300
0030060600
003006FE00
0030061C00
0030060000
0030060000
0030060000
0030060000
0030060000
0000000000
ENDCHAR

STARTCHAR cns4_2333
ENCODING 9011
SWIDTH 960 0
DWIDTH 34 0
BBX 34 34 0 -2
BITMAP
0000000000
0000000000
0070101800
00E01FFC00
00C0181800
0180181800
0180183000
0300183000
0300183000
060C186000
3C18186000
181818C000
0C3018C000
066018C000
066018C000
00C0186000
00C0183000
0186181800
030C181800
060C181800
0FFC180C00
3F18180C00
0018180C00
0030180C00
0030180C00
0060181800
00601BF800
00C0187000
0180180000
0300180000
0600180000
0C00180000
0000180000
0000000000
ENDCHAR

STARTCHAR cns4_2334
ENCODING 9012
SWIDTH 960 0
DWIDTH 34 0
BBX 34 34 0 -2
BITMAP
0000000000
0000000000
1060000000
1FF0001800
1867FFFC00
18600C0000
18C00C0000
18C00C0000
18C00C0000
18C00C0000
19800C0000
19800C0000
19800C0000
19800C0C00
18CFFFFE00
18C00C0000
18600C0000
18600C0000
18600C0000
18600C0000
18600C0000
18E00C0000
1FE00C0000
19C00C0000
18000C0000
18000C0000
18000C0000
18000C0000
18000C0000
18000C0000
18000C0000
18000C0000
18000C0000
0000000000
ENDCHAR

STARTCHAR cns4_2335
ENCODING 9013
SWIDTH 960 0
DWIDTH 34 0
BBX 34 34 0 -2
BITMAP
0000000000
0000000000
0000000600
3FFFFFFF00
000C0C0000
000C0C0000
000C0C0000
000C0C0000
080C0C0C00
0FFC0FFE00
0C0C0C0C00
0C0C0C0C00
0C0C0C0C00
0C0C0C0C00
0C0C0C0C00
0C0C0C0C00
0C0C0C0C00
0C0C0C0C00
0FFC0FFC00
0C0C0C0C00
0C0C0C0C00
000C0C0000
00180C0000
00180C0000
00180C0000
00300C0000
00300C0000
00600C0000
00C00C0000
03800C0000
06000C0000
18000C0000
00000C0000
0000000000
ENDCHAR

STARTCHAR cns4_2336
ENCODING 9014
SWIDTH 960 0
DWIDTH 34 0
BBX 34 34 0 -2
BITMAP
0000000000
0000000000
0038070000
0030060000
0030060000
0030060000
0030060000
0030360000
3FFFFE0000
0030060000
0030060000
0030060000
0030060000
0030060000
0030660000
1FFFF60000
0000060000
0000060000
0000060000
0000060000
0800660000
0FFFF60000
0C00660000
0C00660000
0C00660400
0C00660400
0C00660400
0C00660600
0C00660600
0FFFE70E00
0C0067FE00
0C0063FC00
0000000000
0000000000
ENDCHAR

STARTCHAR cns4_2337
ENCODING 9015
SWIDTH 960 0
DWIDTH 34 0
BBX 34 34 0 -2
BITMAP
0000000000
0000000000
0001C00000
0001800000
0001800000
0001801800
0FFFFFFC00
000C000000
000C000000
000C000000
0018018000
001800C000
0030006000
0067FFF000
07FFFE1800
0600001800
0000000000
00E0E1C000
00C0C18000
00C0C18000
00C0C18000
00C0C18000
00C0C18000
00C0C18000
00C0C18200
0180C18200
0180C18200
0180C18300
0300C18300
0600C1C700
0C00C1FF00
1800C0FE00
6000C00000
0000000000
ENDCHAR

STARTCHAR cns4_2338
ENCODING 9016
SWIDTH 960 0
DWIDTH 34 0
BBX 34 34 0 -2
BITMAP
0000000000
0000000000
00301C0000
0060180000
00C0180000
00C0180000
00C0180000
0180180000
0180180C00
033FFFFE00
0380180000
0700180000
0F00180000
1B00180000
1B00180000
3300181800
633FFFFC00
03003C0000
03007C0000
0300DE0000
0300DB0000
0301998000
030318C000
0303186000
0306183000
030C181800
0318181E00
0330180F80
0360180000
0300180000
0300180000
0300180000
0300180000
0000000000
ENDCHAR

STARTCHAR cns4_2339
ENCODING 9017
SWIDTH 960 0
DWIDTH 34 0
BBX 34 34 0 -2
BITMAP
0000000000
0000000000
00E3000000
01C6000000
0186000600
01861FFF00
01060C0600
030C0C0600
030CCC0600
037FEC0600
0718C60C00
0618C60C00
0E18C60C00
0E18C60C00
1618C61800
1619831800
2631831800
2631833000
0631833000
0631832000
067301E000
061B00C000
060E00C000
060600C000
060701E000
060D836000
060D833000
0618C61800
06300C0C00
0660180F00
06C0600700
0780C00000
0001800000
0000000000
ENDCHAR

STARTCHAR cns4_233A
ENCODING 9018
SWIDTH 960 0
DWIDTH 34 0
BBX 34 34 0 -2
BITMAP
0000000000
0000000000
0001C00000
0001C00000
0003600000
0006300000
000C180000
00380E0000
0060078000
01C001E000
0300007E00
0E00007F00
1BFFFFF000
0301806000
0301806000
0301806000
03FFFFE000
0301806000
0301806000
0301806000
03FFFFE000
0301806000
0001800000
0001800000
0001800000
0001800000
0001800000
0001800000
0001800000
0001800000
0001800000
0001800000
0001800000
0000000000
ENDCHAR

STARTCHAR cns4_233B
ENCODING 9019
SWIDTH 960 0
DWIDTH 34 0
BBX 34 34 0 -2
BITMAP
0000000000
0000000000
0000007C00
000007F000
0407FF0000
07FE000000
0600000000
0600E00000
0600C00000
0600C00000
0600C00000
0600C06000
0600FFF000
0600C00000
0600C00000
0600C00000
0600C00C00
0DFFFFFE00
0C00000000
0C07070000
0C06060000
0C06060000
0C06060000
0C06060000
1806060000
180C060400
300C060400
3018060400
6030070E00
006007FE00
00C003FC00
0300000000
0000000000
0000000000
ENDCHAR

STARTCHAR cns4_233C
ENCODING 9020
SWIDTH 960 0
DWIDTH 34 0
BBX 34 34 0 -2
BITMAP
0000000000
0000000000
0004000600
0007FFFF00
1806060600
0C06060600
0606060600
0606060600
0306060600
0006060600
0047FFFE00
0046060600
00C6060600
00C6060600
0186060600
0186060600
0306060600
0306060600
0607FFFE00
0606060600
0C06060600
3C00060000
1C00060000
0C00060000
0C00060000
0C00060000
0C00060000
0C00060000
0C00060000
0600060000
0600060000
0600060000
0600060000
0000000000
ENDCHAR

STARTCHAR cns4_233D
ENCODING 9021
SWIDTH 960 0
DWIDTH 34 0
BBX 34 34 0 -2
BITMAP
0000000000
0000000000
0002000C00
1803FFFE00
0C03000C00
0C03000C00
0603000C00
0603000C00
0603000C00
0063FFFC00
00C3060C00
00C3060C00
0183060000
0183060000
0183060000
0303060300
0303FFFF80
0303030000
0603030000
0603018000
0C03018000
3C03018000
0C0300C000
0C0300C000
0603006100
0603006100
06030E3100
06037C1980
0607E00D80
063E000780
0618000300
0000000000
0000000000
0000000000
ENDCHAR

STARTCHAR cns4_233E
ENCODING 9022
SWIDTH 960 0
DWIDTH 34 0
BBX 34 34 0 -2
BITMAP
0000000000
0000000000
0038000700
0030000600
0030000600
003001C600
0830618600
0FFFF18600
0C30618600
0C30C18600
0C31818600
0C30018600
0C30018600
0C30018600
0C31818600
0FFFC18600
0C01818600
0C01818600
0C01818600
0C03018600
0D83018600
0CE3018600
0C3E018600
180C018600
180F018600
1819800600
1831800600
1860C00600
30C0000600
6180000E00
030000FE00
0E00001C00
0000000000
0000000000
ENDCHAR

STARTCHAR cns4_233F
ENCODING 9023
SWIDTH 960 0
DWIDTH 34 0
BBX 34 34 0 -2
BITMAP
0000000000
0000000000
0070000700
0060000600
0060000600
006001C600
0060018600
0060018600
0060318600
007FF98600
0060018600
0060018600
0060018600
0060018600
0060018600
0060018600
0060018600
2060318600
3FFFF98600
3000318600
3000318600
3000318600
3000318600
3000318600
3000300600
3000300600
3000300600
3000300600
3000300600
3FFFF00E00
300031FC00
3000303800
0000000000
0000000000
ENDCHAR

STARTCHAR cns4_2340
ENCODING 9024
SWIDTH 960 0
DWIDTH 34 0
BBX 34 34 0 -2
BITMAP
0000000000
0000000000
0000000700
0018000600
0030000600
007801C600
00CE018600
00C3018600
0181818600
0300C18600
0600618600
0C01818600
1BFFC18600
3000018600
0000018600
0000018600
0000C18600
3FFFE18600
0000C18600
0001818600
0003818600
0007018600
000E018600
0C1C018600
0738018600
03B0000600
01E0000600
00F0000600
0078000600
003C000E00
001C00FE00
001C001C00
0000000000
0000000000
ENDCHAR

STARTCHAR cns4_2341
ENCODING 9025
SWIDTH 960 0
DWIDTH 34 0
BBX 34 34 0 -2
BITMAP
0000000000
0000000000
0180000700
0300000600
0300000600
0600000600
060001C600
0600C18600
07FFE18600
0C00C18600
0C00C18600
1800C18600
1800C18600
1A18C18600
33FCC18600
6318C18600
0318C18600
0318C18600
0318C18600
0318C18600
0318C18600
03F8C18600
0318C18600
0319818600
0001818600
0001800600
0001800600
0001800600
0003000600
0007000E00
00FE00FE00
001C001C00
0000000000
0000000000
ENDCHAR

STARTCHAR cns4_2342
ENCODING 9026
SWIDTH 960 0
DWIDTH 34 0
BBX 34 34 0 -2
BITMAP
0000000000
0000000000
0000780700
0007E00600
043F800600
07F181C600
0631818600
0631818600
0631818600
0631818600
0631818600
0631818600
0631818600
0630C18600
0630C18600
0630C18600
0630C18600
0630C18600
0630C18600
0630618600
0630618600
0630618600
0C30618600
0C30318600
0C30300600
0C33300600
0C31980600
1833980600
187EDC0600
1FC0CE0E00
330047FC00
6000003800
0000000000
0000000000
ENDCHAR

STARTCHAR cns4_2343
ENCODING 9027
SWIDTH 960 0
DWIDTH 34 0
BBX 34 34 0 -2
BITMAP
0000000000
0000000000
001C000700
0018000600
0018000600
001801C600
0018018600
0018618600
07FFF18600
0018018600
0018018600
0018018600
0018018600
0018018600
0018018600
0018198600
1FFFFD8600
003C018600
007E018600
007B018600
00D9818600
00D9818600
0198C18600
0198C18600
0318618600
0618380600
0C18000600
1818000600
3018000600
0018000E00
001801FE00
0018001C00
0018000000
0000000000
ENDCHAR

STARTCHAR cns4_2344
ENCODING 9028
SWIDTH 960 0
DWIDTH 34 0
BBX 34 34 0 -2
BITMAP
0000000000
0000000000
01DC038000
0198030000
0198030000
0198030000
0199830000
1FFFC30000
0199830000
0199830C00
0199BFFE00
0199830C00
1999830C00
1FFF830C00
1999830C00
1998030C00
1998030C00
1998060C00
3198C60C00
3FFFE60C00
3198C60C00
0198C60C00
01988C1800
03198C1800
03198C1800
0319981800
031F981800
0619301800
0618303000
0C18606000
1818DFC000
3019838000
0000000000
0000000000
ENDCHAR

STARTCHAR cns4_2345
ENCODING 9029
SWIDTH 960 0
DWIDTH 34 0
BBX 34 34 0 -2
BITMAP
0000000000
0000000000
01C0070000
0180060000
0180060000
0180060000
0180060000
0180060600
0181FFFF00
01860C0000
1FFF0C0000
01860C0000
01860C0000
0186180000
0186180000
0306180000
0306301800
03063FFC00
030C318000
030C618000
030C618000
030C618000
060CC18000
060CC18000
060D818000
0C1B018000
0C18018000
1818018000
1810018300
3031FFFF80
6FE0000000
01C0000000
0000000000
0000000000
ENDCHAR

STARTCHAR cns4_2346
ENCODING 9030
SWIDTH 960 0
DWIDTH 34 0
BBX 34 34 0 -2
BITMAP
0000000000
0000000000
0000000000
0006070000
3FFF060000
0300060000
0300060000
0300060000
0300060000
0300060000
0600060600
0601FFFF00
06000C0600
0C060C0600
0FFF0C0600
0E060C0600
1E060C0600
3606180600
6606180600
0606180600
0606180600
0606300600
0606300C00
0606300C00
0606600C00
0606600C00
07FEC00C00
0606C01C00
060783F800
0003007000
0006000000
000C000000
0000000000
0000000000
ENDCHAR

STARTCHAR cns4_2347
ENCODING 9031
SWIDTH 960 0
DWIDTH 34 0
BBX 34 34 0 -2
BITMAP
0000000000
0000000000
0000070000
0060060000
00C0060000
0180060000
0180060000
0180060000
130C060000
1FFE060000
180C060C00
180C7FFE00
180C060C00
180C060C00
180C060C00
180C0C0C00
180C0C0C00
1FFC0C0C00
180C0C0C00
180C0C0C00
180C0C0C00
180C0C0C00
180C181800
180C181800
180C181800
180C301800
1FFC301800
180C601800
0000603000
0000C7F000
000180E000
0006000000
0000000000
0000000000
ENDCHAR

STARTCHAR cns4_2348
ENCODING 9032
SWIDTH 960 0
DWIDTH 34 0
BBX 34 34 0 -2
BITMAP
0000000000
0000000000
0000000000
0800307000
0FFFF86000
0C00006000
0C00006000
0C00306000
0DFFF86000
0C00006000
0C00006600
0C1C07FF00
0C18006600
0C18006600
0C18006600
0C18606600
0FFFF06600
0C1860C600
0C1860C600
0C1860C600
0C1860C600
0C1860C600
0C18618600
0C30618600
1830618600
1830C18600
1860C30600
1860C30600
30C1C60600
60DFC60C00
01838DFC00
0300183800
0000300000
0000000000
ENDCHAR

STARTCHAR cns4_2349
ENCODING 9033
SWIDTH 960 0
DWIDTH 34 0
BBX 34 34 0 -2
BITMAP
0000000000
0000000000
000001C000
0000018000
0003018000
1FFF818000
0003018000
0006018000
0C0C018600
07983FFF00
00F0018600
007C018600
00CE018600
0187018600
0703818600
0C71818600
3860018600
0060030600
0060030600
0060030600
0063030600
0FFF860600
0060060600
0060060600
00600C0600
00600C0600
0060180C00
007F980C00
03F8301800
1F8063F800
0000C07000
0003000000
0000000000
0000000000
ENDCHAR

STARTCHAR cns4_234A
ENCODING 9034
SWIDTH 960 0
DWIDTH 34 0
BBX 34 34 0 -2
BITMAP
0000000000
0000000000
0000000000
1000000C00
1FFFFFFE00
1800000000
1840006000
187FFFF000
1860006000
1860006000
1860006000
1860006000
1860006000
1860006000
1860006000
1860006000
187FFFE000
1860006000
1860006000
1800000000
18060C0000
180C060000
180C018000
181800C000
1830006000
1860003000
1980000000
1B00000000
1800000600
1FFFFFFF00
1800000000
1800000000
0000000000
0000000000
ENDCHAR

STARTCHAR cns4_234B
ENCODING 9035
SWIDTH 960 0
DWIDTH 34 0
BBX 34 34 0 -2
BITMAP
0000000000
0000000000
2000000C00
3FFFFFFE00
3000000000
3000000000
300E180000
300C0E0000
3018030000
303001C000
306000E000
30C0007000
3180003000
3000000000
3020018000
303FFFC000
3030018000
3030018000
3030018000
3030018000
3030018000
3030018000
3030018000
3030018000
3030018000
303FFF8000
3030018000
3030018000
3000000600
3FFFFFFF00
3000000000
3000000000
0000000000
0000000000
ENDCHAR

STARTCHAR cns4_234C
ENCODING 9036
SWIDTH 960 0
DWIDTH 34 0
BBX 34 34 0 -2
BITMAP
0000000000
0000000000
0000070000
0001860000
3FFFC60000
00C1860000
00C1860000
0181860000
0181860000
0183060000
0303060000
0303060000
0603060000
0606078000
0C0E06E000
19FC063800
3038060C00
0000060600
1001860300
1FFFC60000
1801860000
1801860000
1801860000
1801860000
1801860000
1801860000
1801860000
1801860000
1FFF860000
1801860000
1801860000
0000060000
0000060000
0000000000
ENDCHAR

STARTCHAR cns4_234D
ENCODING 9037
SWIDTH 960 0
DWIDTH 34 0
BBX 34 34 0 -2
BITMAP
0000000000
0001C00000
0001800000
0001800000
0001803000
0001FFF800
0001800000
0001800000
0001800000
0801801800
0FFFFFFC00
0C00001800
0C00001800
0C00039800
0C00071800
0C00061800
0C380C1800
0C0C181800
0C06101800
0C03B01800
0C00E01800
0C00E01800
0C01B01800
0C03181800
0C0E0C1800
0C18061800
0C70031800
0CC0001800
0C00001800
0C00001800
0FFFFFF800
0C00001800
0C00001800
0000000000
ENDCHAR

STARTCHAR cns4_234E
ENCODING 9038
SWIDTH 960 0
DWIDTH 34 0
BBX 34 34 0 -2
BITMAP
0000000000
0000000000
0000000000
0060010300
003001FF80
001C718300
000C618300
0006C18300
00E0C18300
00C0C18300
00C1818300
00C1818300
00C3018300
00C3018300
00C6018300
04C6018300
04CC018300
0CCC018300
0CD8618300
0CD8318300
18F0198300
18E01D8300
19C00D8300
03C00D8300
06C0418700
0CC041FF00
18C0618E00
30C0618000
60E0E18000
00FFE18000
007FC18000
0000018000
0000018000
0000000000
ENDCHAR

STARTCHAR cns4_234F
ENCODING 9039
SWIDTH 960 0
DWIDTH 34 0
BBX 34 34 0 -2
BITMAP
0000000000
0000000000
0000E00000
0000C00000
0000C00600
7FFFFFFF00
0000C00000
0200C06000
03FFFFF000
0300C06000
0300C06000
0300C06000
0300C06000
03FFFFE000
0300C06000
0000C00000
0000C00000
0000C0C000
0FFFFFE000
003000C000
0030018000
0018030000
000C060000
00060E0000
00031C0000
0001B80000
0000F00000
0001F80000
00070F0000
003C03F000
01E000FF00
0F00001E00
3800000000
0000000000
ENDCHAR

STARTCHAR cns4_2350
ENCODING 9040
SWIDTH 960 0
DWIDTH 34 0
BBX 34 34 0 -2
BITMAP
0000000000
0000000000
0800001800
0FFFFFFC00
0C00001800
0C200C1800
0C3FFE1800
0C300C1800
0C300C1800
0C3FFC1800
0C300D1800
0C30011800
0C30011800
0C38039800
0C3FFF9800
0C1FFF1800
0C00001800
0000000000
000000C000
07FFFFE000
003001C000
0030038000
0018070000
000C060000
00060C0000
0003180000
0000F00000
0001F00000
00071E0000
001C07E000
00F000FF00
0700001E00
1C00000000
0000000000
ENDCHAR

STARTCHAR cns4_2351
ENCODING 9041
SWIDTH 960 0
DWIDTH 34 0
BBX 34 34 0 -2
BITMAP
0000000000
0000000000
0000070000
0000060000
0000060000
0000060000
2060060000
3FF0060000
3061060300
3061FFFF80
3061860300
3061860600
3063060C00
3063060000
306007C000
3060078000
3060078000
30600D8000
30600D8000
30600D8000
3060198000
3060198000
3FE0198000
3060318000
3060318000
0000618200
0000618200
0000C18200
0001818300
0003018300
000601C700
000C01FF00
001800FE00
0000000000
ENDCHAR

STARTCHAR cns4_2352
ENCODING 9042
SWIDTH 960 0
DWIDTH 34 0
BBX 34 34 0 -2
BITMAP
0000000000
0000000000
0000000600
0007FFFF00
0000060000
0000060000
0000060000
2060060000
3FF0060000
3062060C00
3063FFFE00
3063060C00
3063060C00
3063060C00
3063060C00
3063060C00
3063060C00
3063060C00
3063060C00
3063060C00
3063060C00
3063060C00
3FE3060C00
3063060C00
3063061C00
000307FC00
0003063800
0003060000
0003060000
0000060000
0000060000
0000060000
0000060000
0000000000
ENDCHAR

STARTCHAR cns4_2353
ENCODING 9043
SWIDTH 960 0
DWIDTH 34 0
BBX 34 34 0 -2
BITMAP
0000000000
0000000000
0000000000
0000003800
000001E000
0000078000
10601E0000
1FF0F80000
186F980000
1860180000
1860180000
1860183800
186018E000
1860FF8000
186F980000
1860180000
1860180000
1860180000
1860180E00
1860187800
18603FC000
186FF80000
1FE0180000
1860180000
1860180000
0000180400
0000180400
0000180400
0000180600
00001C0E00
00001FFE00
00000FFC00
0000000000
0000000000
ENDCHAR

STARTCHAR cns4_2354
ENCODING 9044
SWIDTH 960 0
DWIDTH 34 0
BBX 34 34 0 -2
BITMAP
0000000000
0000000000
0000000000
0000003800
000001F000
20600F8000
3FF07E0000
3063860000
3060060000
3060060000
3060060000
3060060000
3060060000
3060060000
3060060300
306FFFFF80
3060060000
30600F0000
30600D8000
30600D8000
30600D8000
3FE018C000
306018C000
306018C000
0000306000
0000306000
0000603000
0000603800
0000C01C00
0001801E00
0003000F00
0006000700
000C000000
0000000000
ENDCHAR

STARTCHAR cns4_2355
ENCODING 9045
SWIDTH 960 0
DWIDTH 34 0
BBX 34 34 0 -2
BITMAP
0000000000
0000000000
0000000000
0000380000
0000700000
0000600000
0000C00000
2060C00600
3FF0FFFF00
3061800600
3061800600
3063000600
3063000600
30660C0600
306C180600
3060300600
3060300600
3060300C00
3060600C00
3060630C00
3060610C00
3060418C00
3FE0FF8C00
3063F18C00
3063000C00
0000001800
0000001800
0000003000
0000003000
0000007000
00000FE000
000001C000
0000000000
0000000000
ENDCHAR

STARTCHAR cns4_2356
ENCODING 9046
SWIDTH 960 0
DWIDTH 34 0
BBX 34 34 0 -2
BITMAP
0000000000
0000000000
0000018000
0000EFC000
0000C18000
206180C000
3FF180C000
306300C000
3063006000
3066003000
306C003800
307800DE00
3063FFEE00
3060600000
3060600000
3060C00000
3060C00000
3060C00000
3061806000
3061FFF000
3061806000
3FE3006000
3060006000
3060006000
0000006000
000000C000
000000C000
000000C000
0000018000
0000038000
00007F0000
00000E0000
0000000000
0000000000
ENDCHAR

STARTCHAR cns4_2357
ENCODING 9047
SWIDTH 960 0
DWIDTH 34 0
BBX 34 34 0 -2
BITMAP
0000000000
0000000000
0000003C00
000401F000
0007FFC000
1066000000
1FF6000000
1866000600
1867FFFF00
1866000600
1866000600
1866000600
1866000600
1866000600
1867FFFE00
1866000600
1866000000
1866000000
1866000000
1866000000
1FE6000000
1866000000
186C000000
000C000000
000C000000
0018000000
0018000000
0030000000
0030000000
0060000000
00C0000000
0180000000
0000000000
0000000000
ENDCHAR

STARTCHAR cns4_2358
ENCODING 9048
SWIDTH 960 0
DWIDTH 34 0
BBX 34 34 0 -2
BITMAP
0000000000
0000000000
0000000000
0001000C00
0001FFFE00
1061800000
1FF1800000
1861800000
1861800000
1861800000
1861800000
1861801800
1861FFFC00
1861B01800
1861B01800
1861B01800
1861B01800
1861983000
1861183000
1863186000
1FE30C6000
18630CC000
1863078000
0003030000
0006030000
0006078000
00060CC000
000C186000
0018703800
0031C01E00
0067000000
000C000000
0000000000
0000000000
ENDCHAR

STARTCHAR cns4_2359
ENCODING 9049
SWIDTH 960 0
DWIDTH 34 0
BBX 34 34 0 -2
BITMAP
0000000000
0000000000
0000000000
0000E06000
0000C03000
0001801800
1031800C00
1FFB000E00
1833000600
1836000600
183C003800
1830007000
1831806000
1831C06000
183360C000
183360C000
183660C000
1830318000
1830318000
1830198000
18301B0000
1FF00E0000
18300E0000
18300F0000
00001B0000
0000318000
000060C000
0000C06000
0001803800
0003003E00
0006001E00
001C000000
0000000000
0000000000
ENDCHAR

STARTCHAR cns4_235A
ENCODING 9050
SWIDTH 960 0
DWIDTH 34 0
BBX 34 34 0 -2
BITMAP
0000000000
0000000000
000007E000
0000FF0000
023FE00000
03FE600000
0300600000
0300600000
0300201800
03003FFC00
03FFF00000
0300180000
03000C0000
0301C60200
030F030200
03F8018300
3FC000E700
3800003F00
0000001E00
0080018000
00FFFFC000
00C0018000
00C0018000
00C0018000
00C0018000
00C0018000
00C0018000
00C0018000
00C0018000
00C0018000
00FFFF8000
00C0018000
00C0018000
0000000000
ENDCHAR

STARTCHAR cns4_235B
ENCODING 9051
SWIDTH 960 0
DWIDTH 34 0
BBX 34 34 0 -2
BITMAP
0000000000
0000000000
0100006000
01FFFFF000
0180006000
0180006000
0180006000
0180006000
0180006000
0180006000
0180006000
0180006000
01FFFFE000
0180006000
0180006000
0000000000
0000000000
0000003000
0FFFFFF800
0000C00000
0000C00000
0000C00000
0000C00000
0000C03000
07FFFFF800
0000C00000
0000C00000
0000C00000
0000C00000
0000C00000
0000C00600
3FFFFFFF00
0000000000
0000000000
ENDCHAR

STARTCHAR cns4_235C
ENCODING 9052
SWIDTH 960 0
DWIDTH 34 0
BBX 34 34 0 -2
BITMAP
0000000000
0000000000
0000000000
0000000C00
0003FFFE00
2060306000
3FF0306000
3060306000
3060306000
3060306000
3060306000
3060306000
3060306000
3060306300
306FFFFF80
3060306000
3060306000
3060306000
3060306000
3060306000
3060306000
3060606000
3FE0606000
3060606000
3060C06000
0000C06000
0000C06000
0001806000
0003006000
0006006000
000C006000
0018006000
0000006000
0000000000
ENDCHAR

STARTCHAR cns4_235D
ENCODING 9053
SWIDTH 960 0
DWIDTH 34 0
BBX 34 34 0 -2
BITMAP
0000000000
0000000000
001C700000
0018600000
0030600000
0060600000
00C0600000
01C0600000
03C0603000
06C07FF800
1CC0600000
30C0600400
00C0600400
00C0600600
00C0600600
00C0700E00
00C07FFE00
00C03FFC00
0000000000
0000000000
0080003000
00FFFFF800
00C0003000
00C0003000
00C0003000
00C0003000
00C0003000
00C0003000
00C0003000
00FFFFF000
00C0003000
00C0003000
0000000000
0000000000
ENDCHAR

STARTCHAR cns4_235E
ENCODING 9054
SWIDTH 960 0
DWIDTH 34 0
BBX 34 34 0 -2
BITMAP
0000000000
0000000000
0380703800
0300603000
0300603000
0300603000
0300603000
0300603000
0300603000
0300603600
0333FFFF00
3FF8603000
0300603000
0300603000
0300603000
0300603000
0300603000
0300603000
0300C03300
0307FFFF80
0300C03000
0300C03000
0379803000
07C1803000
3E01803000
3003003000
0003003000
0006003000
000C003000
0018003000
0030003000
0060003000
0000003000
0000000000
ENDCHAR

STARTCHAR cns4_235F
ENCODING 9055
SWIDTH 960 0
DWIDTH 34 0
BBX 34 34 0 -2
BITMAP
0000000000
0000000000
0000060000
01C07F0000
0180060000
0180060000
0180060000
0180060000
0182060600
0183FFFF00
0183060600
019B060600
3FFF060600
01830D8600
01830D8600
01830D8600
01830D8600
018318C600
018318C600
018318E600
0183303600
0183601E00
018FC00600
01FB000600
07C3000600
1E03000600
1803000600
0003000600
0003000600
0003000E00
000300FE00
0003001C00
0003000000
0000000000
ENDCHAR

STARTCHAR cns4_2360
ENCODING 9056
SWIDTH 960 0
DWIDTH 34 0
BBX 34 34 0 -2
BITMAP
0000000000
0000000000
0000000000
000000C000
01FFFFE000
0000C00000
00E0C00000
01C0C00000
0180C00000
0180C06000
01FFFFF000
0180C00000
00019C0000
0001980000
0003180200
0006180200
000C180200
0018180300
00701C0700
01C01FFF00
07000FFE00
1C00E00000
0000C00000
0000C00000
0000C0C000
07FFFFE000
0000C00000
0000C00000
0000C00000
0000C00000
0000C00600
3FFFFFFF00
0000000000
0000000000
ENDCHAR

STARTCHAR cns4_2361
ENCODING 9057
SWIDTH 960 0
DWIDTH 34 0
BBX 34 34 0 -2
BITMAP
0000000000
0000000000
0000000000
0000000C00
1FFFFFFE00
0000000000
0000000000
0070703800
00E0E07000
00C0C06000
018180C000
0303018000
0603030000
0C06060000
0603030000
030181C000
01C1C0E000
00C0E07000
00E0603000
0060000000
0000E00000
0000C00000
0000C00000
0000C01800
0FFFFFFC00
0000C00000
0000C00000
0000C00000
0000C00000
0000C00600
3FFFFFFF00
0000000000
0000000000
0000000000
ENDCHAR

STARTCHAR cns4_2362
ENCODING 9058
SWIDTH 960 0
DWIDTH 34 0
BBX 34 34 0 -2
BITMAP
0000000000
0000000000
0000E00000
0001C00000
0001800000
0003000C00
3FFFFFFE00
00060C0000
000C0C0000
0018060000
0030030000
0060018000
01C000E000
0300007800
0C00001F00
1A00003F00
33FFFFF800
0300C03000
0300C03000
0300C03000
0300C03000
0300C03000
0300C03000
03FFFFF000
0300003000
0300000100
0300000100
0300000180
0380000380
03FFFFFF80
01FFFFFF00
0000000000
0000000000
0000000000
ENDCHAR

STARTCHAR cns4_2363
ENCODING 9059
SWIDTH 960 0
DWIDTH 34 0
BBX 34 34 0 -2
BITMAP
0000000000
0000000000
0000E00000
0001C00000
0001800000
0003000C00
3FFFFFFE00
0006080000
000C0C0000
0018060000
0030030000
0061C1C000
00C180E000
0381807800
0E0181FF00
18019FEF00
701FFC0000
0FF9800000
0001800000
038180E000
030180C000
030180C000
030180C000
030180C000
03FFFFC000
030180C400
030180C400
0001800600
0001800600
0001C00E00
0001FFFE00
0000FFFC00
0000000000
0000000000
ENDCHAR

STARTCHAR cns4_2364
ENCODING 9060
SWIDTH 960 0
DWIDTH 34 0
BBX 34 34 0 -2
BITMAP
0000000000
0000000000
0000E00000
0001C00000
0001800000
0003000C00
3FFFFFFE00
00060C0000
000C0C0000
0018060000
0030C30000
0061E18000
00C3E0E000
0383207800
0606181F00
180C0C0F00
3018070000
007003E000
00C000F800
039C0E3C00
06180C0000
00180C0000
00180C0000
00180C0000
00180C0000
00300C0000
00300C0000
00300C0000
00600C0000
01C00C0000
03000C0000
0E000C0000
00000C0000
0000000000
ENDCHAR

STARTCHAR cns4_2365
ENCODING 9061
SWIDTH 960 0
DWIDTH 34 0
BBX 34 34 0 -2
BITMAP
0000000000
0000000000
0000E00000
0000C00000
0000C00000
0000C00000
0000C00000
0000C00C00
1FFFFFFE00
0000C00000
0000C18000
0180C0C000
0080C0C000
00C0C0C000
0060C0E000
01B0C33000
0318C61800
060CEC0C00
0C07B00600
0001B00000
0001980000
0001980000
0003180000
00030C0000
0006060000
000C030000
000C018000
001800C000
0070007000
00C0003C00
0380000F00
0E00000000
0000000000
0000000000
ENDCHAR

STARTCHAR cns4_2366
ENCODING 9062
SWIDTH 960 0
DWIDTH 34 0
BBX 34 34 0 -2
BITMAP
0000000000
0000000000
0000E00000
0001C00000
0001800000
0003000C00
3FFFFFFE00
00060C0000
000C0C0000
0018060000
0030030000
0060018000
00C000E000
0380003800
0FFFFFFE00
1806000700
7006000000
000C000000
000C030000
000FFF8000
0018030000
0018060000
0030060000
0030060000
00600C0000
007FFC0000
00C00C0000
00C0180000
0000180000
0000180000
0000301800
1FFFFFFC00
0000000000
0000000000
ENDCHAR

STARTCHAR cns4_2367
ENCODING 9063
SWIDTH 960 0
DWIDTH 34 0
BBX 34 34 0 -2
BITMAP
0000000000
0000000000
01C0038000
0180030000
0180030000
0180030000
0180030000
0300030000
0318030000
3FFC030C00
0618FFFE00
0618030000
0618030000
0618030000
0C18030000
0C30030000
0C30030300
0C37FFFF80
183006C000
186006C000
366006C000
33C006C000
00C00C6000
00E00C6000
01B0183000
0198183000
030C301800
0600601C00
0C00600C00
1801C00F00
3003000780
6006000000
0000000000
0000000000
ENDCHAR

STARTCHAR cns4_2368
ENCODING 9064
SWIDTH 960 0
DWIDTH 34 0
BBX 34 34 0 -2
BITMAP
0000000000
0000000000
000001C000
0006018000
0FFF030000
00C6030000
00C6030000
00C6030000
00C6060600
00C6FFFF00
00C60C1800
01860C1800
018C0C1800
018C0C1800
018C0C1800
018D981800
1FFFD83000
018C183000
018C183000
018C303000
030C303000
030C383000
030C7E6000
030C636000
030C01E000
030C00E000
061801B000
0618031800
0618C60C00
3FFFEC0700
0000380380
0001E00000
0000000000
0000000000
ENDCHAR

STARTCHAR cns4_2369
ENCODING 9065
SWIDTH 960 0
DWIDTH 34 0
BBX 34 34 0 -2
BITMAP
0000000000
0000000000
00E0000000
00C0800C00
0180FFFE00
0180C30C00
0300C30C00
0300C30C00
0318C30C00
3FFCC30C00
0618C30C00
0618C30C00
0618C30C00
0618C30C00
0630C30C00
0C30C30C00
0C30FFFC00
0C30C00C00
1860C00C00
1860C00000
1E60C00000
1BC0C00000
01C0C00200
00E0C00200
00F0C00200
01B8C00200
031CC00300
030CC00300
0600E00700
0C00FFFF00
18007FFE00
3000000000
6000000000
0000000000
ENDCHAR

STARTCHAR cns4_236A
ENCODING 9066
SWIDTH 960 0
DWIDTH 34 0
BBX 34 34 0 -2
BITMAP
0000000000
0000000000
01C0038000
0180030000
0180030000
0300030000
0300030000
0300030000
0319030300
3FFDFFFF80
0619830300
0619830300
0619830300
0619830300
0C31830300
0C31830300
0C31830300
0C31830300
1861830300
1861830300
1E61FFFF00
1BC1830300
01C1830300
00E0030000
01B0030000
0318030000
0318030000
060C030000
0C00030000
1800030000
3000030000
6000030000
0000030000
0000000000
ENDCHAR

STARTCHAR cns4_236B
ENCODING 9067
SWIDTH 960 0
DWIDTH 34 0
BBX 34 34 0 -2
BITMAP
0000000000
0000000000
01C0000000
0180206000
01803FF000
0300306000
0300306000
0300306000
0330306100
3FF8306100
0630606100
0630607380
0630C07F80
0C30C03F00
0C31800000
0C37000000
0C60000000
1860001800
1863FFFC00
1860601800
18C0603000
3EC0603000
33C0306000
01C030C000
01E0198000
03300F0000
0318060000
06000D8000
0C0038C000
1800E07800
3003801F00
600E000600
0000000000
0000000000
ENDCHAR

STARTCHAR cns4_236C
ENCODING 9068
SWIDTH 960 0
DWIDTH 34 0
BBX 34 34 0 -2
BITMAP
0000000000
0000000000
000001C000
0000078000
007C0E0000
000FBC0000
0000F00000
0003FC0000
001E060000
00F0038000
038701C000
0E0E00C000
000C000600
7FFFFFFF00
0018000000
0030000000
0030000000
0060018000
00FFFFC000
0180038000
03000E0000
0600780000
0000600000
0000600300
3FFFFFFF80
0000600000
0000600000
0000600000
0000600000
0000E00000
000FE00000
0001C00000
0000000000
0000000000
ENDCHAR

STARTCHAR cns4_236D
ENCODING 9069
SWIDTH 960 0
DWIDTH 34 0
BBX 34 34 0 -2
BITMAP
0000000000
0000000000
0000000000
000C000C00
3FFE7FFE00
000C000C00
0018001800
0030003000
0060006000
01C00FC000
0180038000
0180018000
0180000000
0180000300
0180FFFF80
018C018300
01F8018600
0FC0018C00
3F80019800
3980018000
0180018000
0180018000
0180018000
0180018000
0180018000
0180018000
0180018000
0180018000
0180018000
0380038000
3F803F8000
0700070000
0000000000
0000000000
ENDCHAR

STARTCHAR cns4_236E
ENCODING 9070
SWIDTH 960 0
DWIDTH 34 0
BBX 34 34 0 -2
BITMAP
0000000000
0000000000
0000E00000
0000C00000
0000C00000
1000C00600
1FFFFFFF00
1800000600
3800000C00
3000000000
3000003000
0FFFFFF800
0001800000
0001800000
00C1800000
0181806000
0181FFF000
0181806000
0301806000
0301806000
0301806000
0301806000
03FFFFE000
060000C000
060000C000
000000C000
000000C000
0000018000
0000018000
0000018000
0000030000
0000FE0000
00001C0000
0000000000
ENDCHAR

STARTCHAR cns4_236F
ENCODING 9071
SWIDTH 960 0
DWIDTH 34 0
BBX 34 34 0 -2
BITMAP
0000000000
0000000000
0000E00000
0000C00000
0000C00000
0C00C00600
0FFFFFFF00
0C00000600
1800000C00
1801C01800
1801800000
0001800000
0001860000
0001830000
0001818000
0001800000
0001800C00
3FFFFFFE00
0001C00000
0003600000
0006300000
0006300000
000C180000
00180C0000
0018060000
0030030000
0060038000
00C001C000
018000F000
0700003E00
0C00000E00
3800000000
0000000000
0000000000
ENDCHAR

STARTCHAR cns4_2370
ENCODING 9072
SWIDTH 960 0
DWIDTH 34 0
BBX 34 34 0 -2
BITMAP
0000000000
0000000000
0000000000
0000E00000
0000C00000
0000C00000
0800C00600
0FFFFFFF00
0C00000600
1801E00C00
1801C01800
1803600000
0006300000
000C1C0000
0018060000
0030038000
006000F000
01DC077E00
0718061F00
0C18060780
3818060000
0018060000
0018060000
0018060000
0030060000
0030060000
0030060000
0060060000
0060060000
00C0060000
0180060000
0300060000
0E00060000
0000000000
ENDCHAR

STARTCHAR cns4_2371
ENCODING 9073
SWIDTH 960 0
DWIDTH 34 0
BBX 34 34 0 -2
BITMAP
0000000000
0000000000
0000000000
0000000000
0006007000
0FFF006000
0000006000
0000006000
0000006000
0000006000
0000006300
00037FFF80
7FFF806000
0330006000
0330006000
0330006000
0330306000
0330186000
0330186000
03300C6000
03300C6000
0330006000
0630006000
0630006000
0630006000
0C30006000
0C3000E200
0C301FC200
1830038300
1838000700
303FFFFF00
601FFFFE00
0000000000
0000000000
ENDCHAR

STARTCHAR cns4_2372
ENCODING 9074
SWIDTH 960 0
DWIDTH 34 0
BBX 34 34 0 -2
BITMAP
0000000000
0000000000
0000700000
0000600000
0000600000
0038600000
0030618000
006060C000
00E0606000
00C0603000
0180601800
0300600C00
0600600C00
0C00E00C00
180FE00000
3001C00000
0000000000
0001C00000
0001800000
0301800000
018180E000
00C1C1C000
0063630000
00636E0000
0066380000
0006180000
000C180000
00180C0000
0030070000
00E001C000
0380007E00
0E00001C00
3800000000
0000000000
ENDCHAR

STARTCHAR cns4_2373
ENCODING 9075
SWIDTH 960 0
DWIDTH 34 0
BBX 34 34 0 -2
BITMAP
0000000000
0000000000
01C0000000
0180038000
0180030000
0180030000
0180030000
0181830000
7FFFC30600
03187FFF00
0318070000
0318078000
0318078000
03180FC000
03180F6000
03181B6000
03181B3000
0318333000
0318631800
0718C31C00
0619830E00
061B030780
061E030380
0618030000
0C18030000
0C18030200
0C18030200
1818030300
181C030700
301FFFFF00
600FFFFE00
0000000000
0000000000
0000000000
ENDCHAR

STARTCHAR cns4_2374
ENCODING 9076
SWIDTH 960 0
DWIDTH 34 0
BBX 34 34 0 -2
BITMAP
0000000000
0000000000
01C0000000
0180000000
018001C000
0180018000
0180018000
0180018000
0181818000
3FFFC18000
0318018000
0318198E00
0318FDD800
031819D000
031819E000
031819B000
031831B000
031831B000
0318319800
0318619800
0318619800
0618C18C00
0618C18E00
0619818700
061B018700
0C18018000
0C18038200
0C183F8200
1818070300
181C000700
301FFFFF00
600FFFFE00
0000000000
0000000000
ENDCHAR

STARTCHAR cns4_2375
ENCODING 9077
SWIDTH 960 0
DWIDTH 34 0
BBX 34 34 0 -2
BITMAP
0000000000
0000000000
0001C00000
0001800000
0701801C00
0601801800
0601801800
0601801800
0601801800
0601801800
07FFFFF800
0603001800
0606001800
001C000000
0030E00000
00E0C00000
0000C00000
0000C00600
3FFFFFFF00
0000000000
0000000000
001C000000
00180C0000
0030060000
0030038000
006001C000
00C000E000
00C0007000
0180003800
0300001800
0600001C00
0C00000000
1800000000
0000000000
ENDCHAR

STARTCHAR cns4_2376
ENCODING 9078
SWIDTH 960 0
DWIDTH 34 0
BBX 34 34 0 -2
BITMAP
0000000000
0000000000
0001C00000
0001800000
0701801C00
0601801800
0601801800
0601801800
0601801800
0601801800
07FFFFF800
0603001800
0606001800
001C000000
0030000000
0000000C00
0FFFFFFE00
0000C00000
0000C00000
0000C00000
0000C00000
0000C00000
0000C06000
03FFFFF000
0000C00000
0000C00000
0000C00000
0000C00000
0000C00000
0000C00000
0000C00600
3FFFFFFF00
0000000000
0000000000
ENDCHAR

STARTCHAR cns4_2377
ENCODING 9079
SWIDTH 960 0
DWIDTH 34 0
BBX 34 34 0 -2
BITMAP
0000000000
0001C00000
0001800000
0701803800
0601803000
0601803000
0601803000
07FFFFF000
0603003000
0006000000
0018000000
00F0000000
0000060000
0000FF0000
001C060000
0018060000
0030030000
0060018000
00C000E000
0380003000
0600019C00
0CFFFFCF80
3803018000
0006018000
0006018000
000C030000
000C030000
0018030000
0030030000
00E0060000
0180FE0000
07001C0000
0C00000000
0000000000
ENDCHAR

STARTCHAR cns4_2378
ENCODING 9080
SWIDTH 960 0
DWIDTH 34 0
BBX 34 34 0 -2
BITMAP
0000000000
0000000000
0000700000
0000600000
0380600000
0300C00000
0300C00000
0300C00C00
0301FFFE00
3B1D860000
3319860000
331B060000
331B060000
331E060000
3318060000
3318060000
3318060000
3318060600
331FFFFF00
3318060000
3318060000
3318060000
3318060000
3318060000
3318060000
3318060000
3FF8060000
3018060000
3018060000
0000060000
0000060000
0000060000
0000060000
0000000000
ENDCHAR

STARTCHAR cns4_2379
ENCODING 9081
SWIDTH 960 0
DWIDTH 34 0
BBX 34 34 0 -2
BITMAP
0000000000
0000000000
0000E00000
0000C00000
0700C01C00
0600C01800
0600C01800
0600C01800
0600C01800
0600C01800
0600C01800
07FFFFF800
0600001800
0600001800
0000000000
010000C000
01FFFFE000
018000C000
018000C000
018000C000
018000C000
018000C000
018000C000
01FFFFC000
018000C000
018000C000
018000C000
018000C000
018000C000
018000C000
01FFFFC000
018000C000
018000C000
0000000000
ENDCHAR

STARTCHAR cns4_237A
ENCODING 9082
SWIDTH 960 0
DWIDTH 34 0
BBX 34 34 0 -2
BITMAP
0000000000
0000000000
0000E00000
0380C03800
0300C03000
0300C03000
0300C03000
03FFFFF000
0300003000
0000000000
0007800000
001E100C00
04701FFE00
07C0180C00
0700180C00
0600180C00
0600180C00
0600180C00
0600180C00
0600180C00
0600180C00
060E180C00
0670180C00
07C0180C00
1F00181C00
1C0019FC00
1800183800
0000180000
0000180000
0000180000
0000180000
0000180000
0000180000
0000000000
ENDCHAR

STARTCHAR cns4_237B
ENCODING 9083
SWIDTH 960 0
DWIDTH 34 0
BBX 34 34 0 -2
BITMAP
0000000000
0000000000
0000E00000
0000C00000
0700C00E00
0600C00C00
0600C00C00
0600C00C00
0600C00C00
0600C00C00
07FFFFFC00
0600000C00
0601C00C00
0001800000
0001800000
000180C000
07FFFFE000
000000C000
0000018000
0000070000
00000C0000
0000380000
0000600000
0001C00000
0007000000
01DC000000
0170000000
0360000000
0630000000
0C1C000000
1C07FFFE00
18007FFC00
0000000000
0000000000
ENDCHAR

STARTCHAR cns4_237C
ENCODING 9084
SWIDTH 960 0
DWIDTH 34 0
BBX 34 34 0 -2
BITMAP
0000000000
0000000000
0000070000
0000060000
01C0060000
0180060000
0180060000
0180060000
0180060000
399C060700
3198060600
3198C60C00
3198861800
3199873000
3199876000
319987E000
31998F8000
319B0F8000
319B0CC000
31980CC000
31980CC000
319818C000
3198186000
3198386000
3198307000
3198603000
3FF8603800
3018C01C00
3019800E00
0003000700
000E000380
0018000000
0000000000
0000000000
ENDCHAR

STARTCHAR cns4_237D
ENCODING 9085
SWIDTH 960 0
DWIDTH 34 0
BBX 34 34 0 -2
BITMAP
0000000000
0000000000
0000700000
01C0601C00
0180601800
0180601800
0180601800
0180601800
01FFFFF800
0180001800
0180001800
00000FC000
0000FC0000
021F800000
03E0000000
0300000000
0300000000
0300000C00
03FFFFFE00
0300300000
0300300000
0300300000
0300300000
0300300000
0600300000
0600300000
0600300000
0600300000
0C00300000
0C00300000
1800300000
3000300000
0000300000
0000000000
ENDCHAR

STARTCHAR cns4_237E
ENCODING 9086
SWIDTH 960 0
DWIDTH 34 0
BBX 34 34 0 -2
BITMAP
0000000000
0000000000
0080006000
00FFFFF000
00C0006000
00C0006000
00C0006000
00C0006000
00C0006000
00FFFFE000
00C0006000
00C0006000
00C0006000
00C0006000
00C0006000
00FFFFE000
00C0006000
00C0006000
0000000000
0070703800
0060603000
00C0C06000
018180C000
0303018000
0606030000
0C0C060000
0606030000
0303018000
018180C000
0180C06000
00C0603000
0060301800
0000000000
0000000000
ENDCHAR

STARTCHAR cns4_2421
ENCODING 9249
SWIDTH 960 0
DWIDTH 34 0
BBX 34 34 0 -2
BITMAP
0000000000
0000000000
01C001C000
0180018000
0180018000
0180018000
0180018000
2198018000
3FFC398000
3198719800
3198618C00
3198618600
3198618300
3198418300
3198C18300
3198C18000
3198C18E00
3199818C00
319B039C00
31983F9800
3198073000
3198003000
3198006000
319800C000
31F8018000
3190030000
0180060000
01800C0000
0180180000
0180700000
0183C00000
018E000000
0180000000
0000000000
ENDCHAR

STARTCHAR cns4_2422
ENCODING 9250
SWIDTH 960 0
DWIDTH 34 0
BBX 34 34 0 -2
BITMAP
0000000000
0000000000
0380006000
0307FFF000
0300606000
0300606000
0300606000
231860C000
3FFC60C000
3318618000
3318618000
3318618C00
33187FFE00
3318780C00
3318D81800
3318D81800
3318D81800
3318CC3000
3318CC3000
3318C63000
3318C66000
3319836000
331983C000
3319818000
33FB018000
333303C000
0306066000
03061C3800
030C301E00
0318600F80
0331C00000
0303000000
0000000000
0000000000
ENDCHAR

STARTCHAR cns4_2423
ENCODING 9251
SWIDTH 960 0
DWIDTH 34 0
BBX 34 34 0 -2
BITMAP
0000000000
0000000000
000003F800
0100FFF800
01FFE00000
0180000000
0180001800
01FFFFFC00
0180001800
0180001800
0180001800
0180001800
01FFFFF800
0180001800
01801C1800
0180180000
0180180000
01A0180C00
01BFFFFE00
01B0180C00
01B0180C00
0330180C00
0330180C00
0330180C00
0330180C00
0630180C00
0630181C00
0C3019FC00
0C00183800
1800180000
3000180000
0000180000
0000000000
0000000000
ENDCHAR

STARTCHAR cns4_2424
ENCODING 9252
SWIDTH 960 0
DWIDTH 34 0
BBX 34 34 0 -2
BITMAP
0000000000
0000000000
0000038000
01C0030000
0180030000
0180030000
0180030000
0180030000
218C030000
3FFE030C00
318CFFFE00
318C030000
318C030000
318C030000
318C030000
318C030000
318C030300
318FFFFF80
318C06C000
318C06C000
318C06C000
318C06C000
318C0C6000
318C0C6000
31FC183000
3198183000
3180301800
0180601800
0180600C00
0180C00E00
0183800780
0186000000
0180000000
0000000000
ENDCHAR

STARTCHAR cns4_2425
ENCODING 9253
SWIDTH 960 0
DWIDTH 34 0
BBX 34 34 0 -2
BITMAP
0000000000
0000000000
0001C00000
0001800000
0001807000
00C180E000
006180C000
0071818000
0031830000
0031830000
0831860C00
0FFFFFFE00
0C01800C00
0C01800C00
0C0D800C00
0C19980C00
0C198C0C00
0C31860C00
0C61830C00
0C6181CC00
0CC180EC00
0D81806C00
0C01800C00
0C01800C00
0C01800C00
0C01800C00
0C01800C00
0C01800C00
0C01800C00
0C01801C00
0C0183F800
0C01807000
0C01800000
0000000000
ENDCHAR

STARTCHAR cns4_2426
ENCODING 9254
SWIDTH 960 0
DWIDTH 34 0
BBX 34 34 0 -2
BITMAP
0000000000
0000000000
0000000000
0000001800
07FFFFFC00
0000C00000
0000C00000
0000C00000
0000C00000
0000C00300
3FFFFFFF80
0000C00000
0000C00000
0400C00C00
07FFFFFE00
0600C00C00
0600C00C00
0600C00C00
0600C00C00
07FFFFFC00
0600C00C00
0600C00C00
0600C00C00
0600C00C00
07FFFFFC00
0600C00C00
0600C00C00
0000C00000
0000C00000
0000C00000
0000C00000
0000C00000
0000C00000
0000000000
ENDCHAR

STARTCHAR cns4_2427
ENCODING 9255
SWIDTH 960 0
DWIDTH 34 0
BBX 34 34 0 -2
BITMAP
0000000000
0000000000
0030000000
0060038000
00C0030000
00C0030000
0180030000
0180030000
0180030000
0300733000
0300631800
660C630E00
3C1EC30700
1818C30700
0E18C30300
0630C30000
0331830000
0361830E00
0061831C00
00C3071800
00C67F3800
01800E3000
0318006000
030C00C000
0606018000
0C0E030000
19FA060000
7F800C0000
3000380000
0000E00000
0003800000
001E000000
0000000000
0000000000
ENDCHAR

STARTCHAR cns4_2428
ENCODING 9256
SWIDTH 960 0
DWIDTH 34 0
BBX 34 34 0 -2
BITMAP
0000000000
0000000000
0000700000
0000600000
0400600600
07FFFFFF00
0600000000
0600300000
0600780000
0600780000
0600CC0000
0601860000
0603030000
0606018000
060C00E000
0618007800
0670001E00
06C7038000
0786030000
0606030000
0606030000
0606030000
0C06030000
0C06030000
0C0C030000
0C0C030000
0C18030000
1818030000
1830030000
18E0030000
3380030000
6000030000
0000000000
0000000000
ENDCHAR

STARTCHAR cns4_2429
ENCODING 9257
SWIDTH 960 0
DWIDTH 34 0
BBX 34 34 0 -2
BITMAP
0000000000
0000000000
000001C000
0030018000
1FF8018000
0030018000
0060018000
0060018000
00C0018000
00C0018000
0180018000
0180718000
0300618000
0318618000
07FC618600
061861FF00
0C30618000
0030618000
0C30618000
0E30618000
1A60618000
1A60618000
1AC0618000
03C0618000
0180618300
018FFFFF80
01C0000000
0370000000
063C000000
0C0FE00000
1800FFFF00
300003FC00
0000000000
0000000000
ENDCHAR

STARTCHAR cns4_242A
ENCODING 9258
SWIDTH 960 0
DWIDTH 34 0
BBX 34 34 0 -2
BITMAP
0000000000
0000000000
0000E00000
0001C00000
0003003000
0007FFF800
000E003000
001E00E000
007381C000
01C0E30000
07186E0000
001C380000
000CE00000
0003800000
001E000000
01F0000000
1F0E070000
000C060000
000C060000
000C060000
000C060600
3FFFFFFF00
000C060000
000C060000
000C060000
0018060000
0018060000
0018060000
0030060000
0060060000
00C0060000
0380060000
0E00060000
0000000000
ENDCHAR

STARTCHAR cns4_242B
ENCODING 9259
SWIDTH 960 0
DWIDTH 34 0
BBX 34 34 0 -2
BITMAP
0000000000
0000000000
001C0E0000
0E180C0000
0C180CC000
0C180C6000
0C180C3000
0C180C3000
0C180C3000
0C180C0000
0C180C0000
0C180C0C00
0FF9FFFE00
0C18060000
0C18060000
0018060000
0018060000
0018060000
0018060000
3FF8030000
0618030000
0618030000
0618030000
0618018000
0618018000
0C1800C400
0C1800C400
0C18006400
0C18006E00
1818003E00
1818001E00
3018000C00
6018000000
0000000000
ENDCHAR

STARTCHAR cns4_242C
ENCODING 9260
SWIDTH 960 0
DWIDTH 34 0
BBX 34 34 0 -2
BITMAP
0000000000
0000000000
01C0000000
0180000000
0300000000
0300000C00
060FFFFE00
0C000C0000
18000C0000
30700C0000
60E00C0000
00C00C0000
01800C0000
01800C0000
03000C0000
07000C1800
0F07FFFC00
1B000C0000
33000C0000
63000C0000
03000C0000
03000C0000
03000C0000
03000C0000
03000C0000
03000C0000
03000C0000
03000C0600
037FFFFF00
0300000000
0300000000
0300000000
0300000000
0000000000
ENDCHAR

STARTCHAR cns4_242D
ENCODING 9261
SWIDTH 960 0
DWIDTH 34 0
BBX 34 34 0 -2
BITMAP
0000000000
0000000000
0380070000
0300060000
0300060000
0300060000
0300060000
0300060C00
0363FFFE00
0F20060000
1B30060000
1B30060000
1B18060000
3318060000
3300060000
3300060000
0300060300
030FFFFF80
03000E0000
03000E0000
03000F0000
0300198000
0300198000
0300318000
030030C000
0300606000
0300603000
0300C03800
0301801C00
0303000E00
0306000700
030C000000
0000000000
0000000000
ENDCHAR

STARTCHAR cns4_242E
ENCODING 9262
SWIDTH 960 0
DWIDTH 34 0
BBX 34 34 0 -2
BITMAP
0000000000
0000000000
03800E0000
03000C0000
03000C0000
03000C0000
03000C0600
030FFFFF00
0FC0000000
1B600E0000
1B300C0000
1B300C0000
33320C0C00
3303FFFE00
33030C0C00
03030C0C00
03030C0C00
03030C0C00
03030C0C00
03030C0C00
03030C0C00
03030C0C00
03030C0C00
03030C0C00
03030C0C00
03030C1C00
03030DFC00
03030C3800
03030C0000
03000C0000
03000C0000
03000C0000
03000C0000
0000000000
ENDCHAR

STARTCHAR cns4_242F
ENCODING 9263
SWIDTH 960 0
DWIDTH 34 0
BBX 34 34 0 -2
BITMAP
0000000000
0000000000
0380000000
0300001800
0303FFFC00
0300018000
0301C18000
0301818000
1B61818000
3333018000
3333018000
3333018000
6333018000
6303018600
6303FFFF00
0306078000
03060D8000
03000D8000
0300198000
0300398000
0300718000
0300E18000
0301C18000
0303818000
0307018000
030C018000
0318018000
0330018000
0300018000
0300038000
03003F8000
0300070000
0300000000
0000000000
ENDCHAR

STARTCHAR cns4_2430
ENCODING 9264
SWIDTH 960 0
DWIDTH 34 0
BBX 34 34 0 -2
BITMAP
0000000000
0000000000
01C0000000
0180800600
0180FFFF00
0180C00000
0180C00000
0180C00000
0DE0C00000
09B0C00000
19B0C00000
1998C00C00
3198FFFE00
3180D80C00
3180D80C00
3180D81800
0180CC1800
0180CC1800
0180CC3000
0181863000
0181863000
0181826000
018183C000
018181C000
018301C000
018303E000
0186067000
01860C3800
018C181E00
018C700F00
0199C00000
01B7000000
0000000000
0000000000
ENDCHAR

STARTCHAR cns4_2431
ENCODING 9265
SWIDTH 960 0
DWIDTH 34 0
BBX 34 34 0 -2
BITMAP
0000000000
0000000000
0001C00000
0003800000
0003000000
0006000C00
1FFFFFFE00
000C030000
0018060000
0030060000
00700C0000
00FF980000
00C3F80000
0000FE0000
0007C78000
003E01E000
07F0007000
1E00000000
0070000000
0060C00000
0060601800
0660300C00
0C60300C00
0C60308600
1860008600
1860008300
1860008300
186000C300
006000C000
007001C000
007FFFC000
003FFF8000
0000000000
0000000000
ENDCHAR

STARTCHAR cns4_2432
ENCODING 9266
SWIDTH 960 0
DWIDTH 34 0
BBX 34 34 0 -2
BITMAP
0000000000
0000000000
0380003800
0300007000
030000E000
0303E1C000
03003B8000
03000F0000
0F600F8000
1B3039C000
1B3060E000
3331C07000
331B001800
331E000000
3300007000
0300C06000
0300E0C000
0301B0C000
030330C000
0303318000
0300198000
03001B0000
03000B0000
03000E0000
03000E0000
03001B0000
0300318000
0300E0C000
0301807000
0307003C00
031C001F00
0330000000
0300000000
0000000000
ENDCHAR

STARTCHAR cns4_2433
ENCODING 9267
SWIDTH 960 0
DWIDTH 34 0
BBX 34 34 0 -2
BITMAP
0000000000
0000000000
0380001C00
0300007800
030001E000
0300078000
03003C0000
0303EC0000
0F600C0000
0B300C0000
1B300C0000
1B180C0000
33180C0000
33000C0000
33000C0600
030FFFFF00
03000C0000
03001B0000
03001B0000
03001B0000
03001B0000
0300318000
0300318000
030030C000
030060C000
0300606000
0300C06000
0300C03000
0301801C00
0303000E00
030E000780
0338000000
03E0000000
0000000000
ENDCHAR

STARTCHAR cns4_2434
ENCODING 9268
SWIDTH 960 0
DWIDTH 34 0
BBX 34 34 0 -2
BITMAP
0000000000
0000000000
000003F800
0201FFE000
03FF000000
0300000000
0300001800
03FFFFFC00
0300001800
0300001800
0300001800
0300001800
03FFFFF800
0300001800
0300000000
0340001800
037FFFFC00
0360001800
0360001800
0360001800
0360001800
067FFFF800
0660001800
0660001800
0660000000
0660000200
0C60000200
0C60000200
1860000300
1870000700
307FFFFF00
603FFFFE00
0000000000
0000000000
ENDCHAR

STARTCHAR cns4_2435
ENCODING 9269
SWIDTH 960 0
DWIDTH 34 0
BBX 34 34 0 -2
BITMAP
0000000000
01C0038000
0180030000
0180030000
0180030000
0180031C00
0180037000
018003C000
01980F8000
3FFCFB0000
0183830000
0180030000
0180030000
0180030000
0180030C00
0183FFFE00
01F0030000
01C0030000
0F80030000
3D80030000
3180030000
0180030600
018FFFFF00
0180030000
0180030000
0180030000
0180030000
0180030000
0180030000
0380030000
3F80030000
0700030000
0000030000
0000000000
ENDCHAR

STARTCHAR cns4_2436
ENCODING 9270
SWIDTH 960 0
DWIDTH 34 0
BBX 34 34 0 -2
BITMAP
0000000000
0000000000
01C0038000
0180030000
0180030000
0180030000
0180030300
0183FFFF80
0180030000
0198030000
3FFC030000
0180030000
0180830600
0180FFFF00
0180C30600
0180C30600
018CC30600
01B8C30600
01E0C30600
0F80C30600
3D80C30600
1980C30600
0180C30600
0180C30600
0180C30600
0180C30E00
0180C3FE00
0180C31C00
0180C30000
0380030000
3F80030000
0700030000
0000030000
0000000000
ENDCHAR

STARTCHAR cns4_2437
ENCODING 9271
SWIDTH 960 0
DWIDTH 34 0
BBX 34 34 0 -2
BITMAP
0000000000
0000000000
0380000000
0303800000
0303000C00
03033FFE00
0303030C00
0303030C00
0363030C00
3FF3030C00
03033B0C00
0303F30C00
033F030C00
0303030C00
0303030C00
0303030C00
0373060C00
03C3060C00
1F03260C00
3B03261800
3303361800
0303361800
0303F61800
0301EC1800
0300181800
0300181800
0300301800
0300601800
0300C03000
070187F000
7F0300E000
0E06000000
0000000000
0000000000
ENDCHAR

STARTCHAR cns4_2438
ENCODING 9272
SWIDTH 960 0
DWIDTH 34 0
BBX 34 34 0 -2
BITMAP
0000000000
0000000000
01C00E0000
01800C0000
01800C0000
01800C0000
01800C0000
01800C1800
01980FFC00
3FFC0C0000
01800C0000
01800C0000
01800C0000
01800C0000
01800C1800
018FFFFC00
01B0C01800
01E0C03000
0F80603000
3D80606000
3180306000
018030C000
018018C000
01800D8000
01800F0000
0180070000
01801D8000
018030C000
0180E07000
0383803C00
3F8E001F00
0738000780
0000000000
0000000000
ENDCHAR

STARTCHAR cns4_2439
ENCODING 9273
SWIDTH 960 0
DWIDTH 34 0
BBX 34 34 0 -2
BITMAP
0000000000
0000000000
0000030000
01C03F8000
0180030000
0180030000
0180030000
0180030000
0182030600
019BFFFF00
3FFF030600
0183030600
0183030600
018306C600
018306C600
018306C600
01830CC600
01BB0C6600
01F30C6600
0783186600
3F83183600
1983301E00
0183600600
0183C00600
0183000600
0183000600
0183000600
0183000600
0183000600
0383000E00
3F8300FE00
0703001C00
0003000000
0000000000
ENDCHAR

STARTCHAR cns4_243A
ENCODING 9274
SWIDTH 960 0
DWIDTH 34 0
BBX 34 34 0 -2
BITMAP
0000000000
0000000000
0380700000
0300E00000
0300C00000
0301800C00
0301FFFE00
0301800000
0333000000
3FFB000000
0306003000
030CFFF800
0318000000
0300000000
0300000000
0300006000
0377FFF000
03C0006000
0F00006000
3B00006000
0300006000
0300006000
0300006000
0300003000
0300003000
0300003100
0300003100
0300001900
0300001980
0700000F80
7F00000780
0E00000300
0000000000
0000000000
ENDCHAR

STARTCHAR cns4_243B
ENCODING 9275
SWIDTH 960 0
DWIDTH 34 0
BBX 34 34 0 -2
BITMAP
0000000000
0000000000
01C0000000
0180738000
0180630000
0180C30000
0180C30000
0180C30000
01B1830000
1FF9830000
0181830000
0183C30000
0183830000
0187830800
018783FC00
0185830000
01BD830000
01ED830000
0F99830000
1D81830000
1981830000
0181830000
0181830000
0181830000
0181830000
0181830400
0181830400
0181830400
0181830600
0381838E00
3F8183FE00
070181FC00
0000000000
0000000000
ENDCHAR

STARTCHAR cns4_243C
ENCODING 9276
SWIDTH 960 0
DWIDTH 34 0
BBX 34 34 0 -2
BITMAP
0000000000
0000000000
01C0000000
0180003000
0183FFF800
01800C0000
01800C0000
01800C0000
01B00C0000
3FF80C0000
01800C0000
01800C0000
01800C0000
01800C0C00
0187FFFE00
01800C0000
01980C0000
01F0180000
0F8019C000
3D80198000
7180198000
0180198000
0180318000
0180318000
0180318100
0180618100
0180618100
0180C18180
0181818180
038301C380
3F8601FF80
070C00FF00
0018000000
0000000000
ENDCHAR

STARTCHAR cns4_243D
ENCODING 9277
SWIDTH 960 0
DWIDTH 34 0
BBX 34 34 0 -2
BITMAP
0000000000
0000E00000
0000C00000
0000C00C00
3FFFFFFE00
0000C00000
0000C00000
0000C0C000
07FFFFE000
0030018000
0018030000
000C0E0000
00061C0000
0001B80000
0001F00000
0007BF0000
003C07F800
03E0E07E00
1E00C00000
0100C03000
01FFFFF800
0180C03000
0180C03000
0180C03000
0180C03000
0180C03000
0180C03000
0180C07000
0180C7F000
0180C0E000
0000C00000
0000C00000
0000C00000
0000000000
ENDCHAR

STARTCHAR cns4_243E
ENCODING 9278
SWIDTH 960 0
DWIDTH 34 0
BBX 34 34 0 -2
BITMAP
0000000000
0000038000
0006030000
3FFF030000
00C0060000
00C0060000
00C0060000
00C0060000
00C00C0300
00C00FFF80
00C00C1800
00C01C1800
00C01C1800
00C19C1800
7FFFF61800
00C0361800
00C0663000
00C0C63000
00C0063000
00C0033000
00C0036000
00C0036000
00C001C000
00C001C000
00C0008000
00C001C000
00C0036000
00C0063000
00C00C3800
00C0181C00
00C0300F00
00C0600700
00C0C00000
0000000000
ENDCHAR

STARTCHAR cns4_243F
ENCODING 9279
SWIDTH 960 0
DWIDTH 34 0
BBX 34 34 0 -2
BITMAP
0000000000
0000000000
00000E0000
00000C0000
200C180000
3FFE180000
300C180000
300C180000
300C300300
300C3FFF80
300C303000
300C303000
300C703000
300C703000
3FFC783000
300CD83000
300CD86000
3001986000
30030C6000
30060C6000
30000CC000
300006C000
3004068000
3004038000
3004038000
300607C000
380E0CE000
3FFE187000
1FFC303800
0000601E00
0001C00F00
0007000000
0000000000
0000000000
ENDCHAR

STARTCHAR cns4_2440
ENCODING 9280
SWIDTH 960 0
DWIDTH 34 0
BBX 34 34 0 -2
BITMAP
0000000000
0000038000
0180070000
0300060000
0300060000
0600060000
0603060000
07FF860000
0C000C0600
18000FFF00
3000181800
6000181800
0000181800
0018381800
0FFC6C3000
00186C3000
0018CC3000
00318C3000
0060063000
0060066000
00C0066000
0180036000
030003C000
0300018000
0601018000
060103C000
0C0106E000
0C01866000
0E038C3800
07FF981C00
03FF300F00
0000600780
0001C00000
0000000000
ENDCHAR

STARTCHAR cns4_2441
ENCODING 9281
SWIDTH 960 0
DWIDTH 34 0
BBX 34 34 0 -2
BITMAP
0000000000
00E0000000
00C0007000
00C0006000
00C0006000
0180306000
0180186000
0186186000
03FF0C6000
03060C6000
0306006000
0306006000
060C006000
060C006000
0F0C606000
198C306000
18D8306000
3078186000
6038186000
0018006780
0030007E00
003001F000
00600F6000
0061FC6000
00C1806000
00C0006000
0180006000
0300006000
0600006000
0C00006000
1800006000
0000006000
0000006000
0000000000
ENDCHAR

STARTCHAR cns4_2442
ENCODING 9282
SWIDTH 960 0
DWIDTH 34 0
BBX 34 34 0 -2
BITMAP
0000000000
0000000000
01C0020000
0180070000
0180070000
0180058000
01800D8000
01860CC000
3FFF18C000
0300186000
0300303000
0300603800
0300C01C00
030D838E00
03FE030700
030C030000
060C030000
060C030000
060C030000
060C030000
060C030000
0C0C030000
0C18030000
0C18030000
0C18030000
1818030000
1818030000
3018030000
3030030000
67F0030000
00E0030000
0000030000
0000030000
0000000000
ENDCHAR

STARTCHAR cns4_2443
ENCODING 9283
SWIDTH 960 0
DWIDTH 34 0
BBX 34 34 0 -2
BITMAP
0000000000
0000000000
0100006000
01FFFFF000
0180006000
0180006000
0180006000
0180006000
01FFFFE000
0180006000
0180006000
0180006000
0180006000
01FFFFE000
0180006000
019C076000
0018060000
0018060000
0018060000
0018060000
0018060600
3FFFFFFF00
0018060000
0018060000
0030060000
0030060000
0060060000
0060060000
00C0060000
0180060000
0700060000
1C00060000
0000060000
0000000000
ENDCHAR

STARTCHAR cns4_2444
ENCODING 9284
SWIDTH 960 0
DWIDTH 34 0
BBX 34 34 0 -2
BITMAP
0000000000
0000000000
0000000000
0100006000
01FFFFF000
0180006000
0180006000
0180006000
0180006000
01FFFFE000
0180006000
0180006000
0180006000
0180006000
01FFFFE000
0180006000
0180E06000
0000C00000
0000C00600
3FFFFFFF00
0300000000
0300000000
0300000000
0300000000
0300000000
0300000000
0300000000
0300000000
0300000000
0380000000
01FFFFF800
0000000000
0000000000
0000000000
ENDCHAR

STARTCHAR cns4_2445
ENCODING 9285
SWIDTH 960 0
DWIDTH 34 0
BBX 34 34 0 -2
BITMAP
0000000000
0000000000
00E00E0000
00C00C0000
00C00C0000
00C00C0000
00C00C0000
00C00C0000
00CC0C0000
1FFE0C1800
01C3FFFC00
01C00C1800
01E00C1800
03F00C1800
03D80C1800
06CC0C1800
06CD8C1800
06C0CC1800
0CC0781800
0CC0181800
18C01C1800
18C01E1800
30C0331800
60C0331900
00C0619900
00C060D900
00C0C01900
00C0C01B00
00C1800F80
00C3000F80
00C6000780
00CC000300
00C0000000
0000000000
ENDCHAR

STARTCHAR cns4_2446
ENCODING 9286
SWIDTH 960 0
DWIDTH 34 0
BBX 34 34 0 -2
BITMAP
0000000000
0000000000
0000E00000
0000C00000
0000C00000
0000C00000
0000C01800
0FFFFFFC00
0000C00000
0000C03800
0180C03000
00C0C06000
0060C0C000
0030C18000
0038C30000
0018C30000
0000C60600
3FFFFFFF00
0003F00000
0003D80000
0006D80000
0006CC0000
000CC60000
0018C30000
0030C38000
0060C1C000
01C0C0E000
0300C07800
0E00C01E00
1800C00000
7000C00000
0000C00000
0000C00000
0000000000
ENDCHAR

STARTCHAR cns4_2447
ENCODING 9287
SWIDTH 960 0
DWIDTH 34 0
BBX 34 34 0 -2
BITMAP
0000000000
0000000000
00E0000000
00C0001800
00C7FFFC00
00C0001800
00C0001800
00C0001800
00C0001800
00CDC01800
1FFF801800
00C1801800
01C1801800
01E1801800
01F1FFF800
03D9801800
03DD800000
06CD800000
06C7800000
06C1800000
0CC1800000
0CC1800000
18C1800000
30C1800200
60C1800200
00C1800200
00C1800200
00C1800300
00C1800300
00C1C00700
00C0FFFF00
00C07FFE00
00C0000000
0000000000
ENDCHAR

STARTCHAR cns4_2448
ENCODING 9288
SWIDTH 960 0
DWIDTH 34 0
BBX 34 34 0 -2
BITMAP
0000000000
0000000000
01C0038000
0180030000
0180030000
0180060000
0180060000
01800C0000
01980C0000
3FFC180000
0180183800
0383303000
0381E07000
03E0606000
03B0606000
07B030C000
0D9818C000
0D98198000
0D8C198000
1980030000
1980030000
1980060000
31800C0000
61800C1800
0180180C00
0180300C00
0180600600
0181C3FF00
0187FF0300
0187C00300
0180000300
0180000000
0180000000
0000000000
ENDCHAR

STARTCHAR cns4_2449
ENCODING 9289
SWIDTH 960 0
DWIDTH 34 0
BBX 34 34 0 -2
BITMAP
0000000000
0000000000
000000E000
000001C000
0780030000
00700E0000
001C380000
0003F00000
0001E00000
00073E0000
003C0FC000
01E001F000
1F00E07000
0000C61800
0000C30000
0000C18000
0000C01800
1FFFFFFC00
0003E00000
0007F00000
000ED80000
001CCC0000
0038C70000
0060C3C000
01C0C1F000
0700C0FC00
1C00C03F00
7000C00F80
0000C00000
0000C00000
0000C00000
0000C00000
0000C00000
0000000000
ENDCHAR

STARTCHAR cns4_244A
ENCODING 9290
SWIDTH 960 0
DWIDTH 34 0
BBX 34 34 0 -2
BITMAP
0000000000
0000000000
0000070000
00000E0000
00000C0000
00060C0000
0FFF0C0000
0006180300
00061FFF80
0006180300
0006300600
000631C600
0006318C00
0006618C00
0406619800
07FEC18000
0607818000
0600018000
0600018000
0600018000
060003C000
0600066000
0600066000
0600066000
060F0C3000
063C0C1800
06F8181C00
07C0180E00
3F00300700
1C00600380
0000C00000
0003800000
0000000000
0000000000
ENDCHAR

STARTCHAR cns4_244B
ENCODING 9291
SWIDTH 960 0
DWIDTH 34 0
BBX 34 34 0 -2
BITMAP
0000000000
0000000000
00000E0000
08030C0000
0FFF8C0000
0C03180000
0C03180000
0C03180000
0C03100600
0C033FFF00
0C03300600
0C03300C00
0C03601800
0FFFC3B000
0C03030000
0C03030000
0C00030000
0C00030000
0C00030000
0C00030000
0C00070000
0C00078000
1800058000
18000CC000
180008C000
1800186000
1800107000
1800303000
3000601800
3000C01C00
6001800E00
0003000700
0006000000
0000000000
ENDCHAR

STARTCHAR cns4_244C
ENCODING 9292
SWIDTH 960 0
DWIDTH 34 0
BBX 34 34 0 -2
BITMAP
0000000000
0000000000
0000070000
000C060000
3FFE060000
0300060000
0300060000
0300060000
0300060000
0300060000
0618060000
07FC060600
061FFFFF00
0C18060000
0C18070000
0C18070000
18300F0000
1C300F8000
36300CC000
63600CC000
01E018C000
006018C000
00C0186000
00C0306000
0180303000
0180603000
0300601800
0600C01800
0C01800E00
1803000700
3006000000
600C000000
0000000000
0000000000
ENDCHAR

STARTCHAR cns4_244D
ENCODING 9293
SWIDTH 960 0
DWIDTH 34 0
BBX 34 34 0 -2
BITMAP
0000000000
0000000000
0038000000
0030000000
0030000C00
00307FFE00
0030180C00
0031980C00
003FD80C00
01B0180C00
0330181800
03300C1800
03330C1800
07FF8C3000
06030C3000
06030C3000
0C03066000
0C06066000
1A06064000
318C03C000
60CC03C000
0078018000
0018018000
003003C000
003006C000
0060066000
00C00C7000
0180183800
0300301C00
0600600E00
1800C00700
6001800000
0003000000
0000000000
ENDCHAR

STARTCHAR cns4_244E
ENCODING 9294
SWIDTH 960 0
DWIDTH 34 0
BBX 34 34 0 -2
BITMAP
0000000000
0000000000
0000000000
0030000000
00E0000000
0180000000
0700800C00
1F00FFFE00
7300C00C00
0300C00C00
0300C00C00
0300C00C00
0338C00C00
03E0C00C00
3F00C00C00
3B00C00C00
0300C00C00
0300C00C00
0300C00C00
0300C00C00
0338C00C00
0370C00C00
07C0C00C00
3F00C00C00
7300FFFC00
0300C00C00
0300C00C00
0300000200
0300000200
0380000700
03FFFFFF00
01FFFFFE00
0000000000
0000000000
ENDCHAR

STARTCHAR cns4_244F
ENCODING 9295
SWIDTH 960 0
DWIDTH 34 0
BBX 34 34 0 -2
BITMAP
0000000000
0000000000
0C00000000
0604000600
0307FFFF00
0386000000
0186000000
0006070000
0006060000
0006060000
0066060000
30C6060000
18C6060000
0CC6060000
0EC60E0000
07860F0000
01860F0000
01860F0000
0186198000
0306198000
0306198000
060618C000
060618C000
0E0C306000
3E0C306000
0C0C606000
060C603000
0618C03000
0618C01800
0619800C00
0633000F00
0666000780
060C000000
0000000000
ENDCHAR

STARTCHAR cns4_2450
ENCODING 9296
SWIDTH 960 0
DWIDTH 34 0
BBX 34 34 0 -2
BITMAP
0000000000
0000000000
0000000000
0C00000000
06001C0000
0300180000
0180180000
0180180000
0000180000
0000180000
00C0180000
0180180000
3180180000
1980180000
0D80180C00
0F001FFE00
0300180000
0307180000
060E180000
060C180000
060C180000
060C180000
0C1C180000
3C1C180000
1C1E180000
0C33180000
0C31980000
0C60D80000
06607E0000
06C01FFF00
06C003FF00
0600000000
0000000000
0000000000
ENDCHAR

STARTCHAR cns4_2451
ENCODING 9297
SWIDTH 960 0
DWIDTH 34 0
BBX 34 34 0 -2
BITMAP
0000000000
0000000000
0000000000
0600000600
031FFFFF00
0180060000
0180060000
01800C0000
00000C0000
0060180000
3040380000
18C03C0000
0C807C0000
0C80F80000
0C80D98000
018198C000
0103187000
0106183800
030C181C00
0318180E00
0230180600
0660180000
0600180000
3C00180000
0C00180000
0600180000
0600180000
0600180000
0600180000
0600180000
0600180000
0600180000
0000180000
0000000000
ENDCHAR

STARTCHAR cns4_2452
ENCODING 9298
SWIDTH 960 0
DWIDTH 34 0
BBX 34 34 0 -2
BITMAP
0000000000
0000000000
0000000000
0000001800
07FFFFFC00
0000C00000
0000C00000
0000C00000
0000C00000
0000C00000
0000C00000
0000C00600
3FFFFFFF00
0000000000
0000E00000
0000C00000
0000C00000
0000C03800
0060C07000
00C0C0C000
00C0C18000
00C1E70000
0181FC0000
0183380000
01831C0000
00060E0000
000C070000
0018038000
003001E000
00E0007C00
0380001F00
3E00000780
0000000000
0000000000
ENDCHAR

STARTCHAR cns4_2453
ENCODING 9299
SWIDTH 960 0
DWIDTH 34 0
BBX 34 34 0 -2
BITMAP
0000000000
0000000000
0000E00000
0001C00000
0001800000
0003000C00
3FFFFFFE00
0006080000
000C040000
0018060000
0030030000
0060018000
00C000E000
0380E07800
0600C01F00
1C00C00780
30C0C0E000
0060C0C000
0060C18000
0030C30000
0030C60000
0030FC0000
0001E00000
0001F00000
00031C0000
0006070000
000C038000
001801C000
007000E000
01C0007800
0700001C00
3800000E00
0000000000
0000000000
ENDCHAR

STARTCHAR cns4_2454
ENCODING 9300
SWIDTH 960 0
DWIDTH 34 0
BBX 34 34 0 -2
BITMAP
0000000000
0000000000
01C0070000
0180060000
0180060000
0180060000
0180060000
0180060000
0198060000
3FFC060000
0180060E00
0180060C00
0180661800
0180463000
0180C66000
0180C64000
01998F8000
01F18F0000
07818D8000
3F800D8000
19801D8000
018018C000
018038C000
0180306000
0180606000
0180603000
0180C03800
0181801C00
0383001E00
3F86000F00
070C000780
0018000000
0000000000
0000000000
ENDCHAR

STARTCHAR cns4_2455
ENCODING 9301
SWIDTH 960 0
DWIDTH 34 0
BBX 34 34 0 -2
BITMAP
0000000000
0000000000
00E0000000
00C0000700
00C0700600
0CC061C600
18C0618600
18C0618600
18C0618600
18CC618600
1FFE618600
30C0618600
30C0618600
30C0618600
30C0618600
00C0618600
00DC618600
00F0618600
03C0618600
0FC0618600
3CC0618600
18C0618600
00C0618600
00C0C18600
00C0C18600
00C0C18600
00C1818600
00C1818600
00C3000600
00C3000600
00C6000600
00CC000600
00D8000600
0000000000
ENDCHAR

STARTCHAR cns4_2456
ENCODING 9302
SWIDTH 960 0
DWIDTH 34 0
BBX 34 34 0 -2
BITMAP
0000000000
0000000000
00001C0000
0070180000
1860180000
0CC0180000
0580180000
0700180000
0600183000
0F07FFF800
1B00183000
3180183000
0180183000
0180183000
0180183000
0180183000
0180183000
03C0183600
06DFFFFF00
0CC03C0000
18C03C0000
30C0360000
60C0660000
00C0630000
00C0630000
00C0C18000
00C180C000
00C180E000
00C3007000
0186003C00
3F8C001F00
0738000E00
0060000000
0000000000
ENDCHAR

STARTCHAR cns4_2457
ENCODING 9303
SWIDTH 960 0
DWIDTH 34 0
BBX 34 34 0 -2
BITMAP
0000000000
0000000000
0001C1C000
0039818000
0C71818000
0661818000
03C1818000
0381818000
0381818000
0781818000
0CC1818000
18C1818000
30C18D8400
00C1FFFE00
00C1818000
00E1818000
01E1818000
0361818000
0661818000
0661818000
0C61818000
1861818000
3061818000
0061818100
0061818100
00618D8100
0061B98180
0061E18180
00C781C380
1FDE01FF80
039800FF00
0000000000
0000000000
0000000000
ENDCHAR

STARTCHAR cns4_2458
ENCODING 9304
SWIDTH 960 0
DWIDTH 34 0
BBX 34 34 0 -2
BITMAP
0000000000
0000000000
0018000000
0030000000
0630800600
0260FFFF00
03C0C00600
0180C00600
0380C00600
06C0C00600
0CC0C00600
1860C00600
0060C00600
0060C00600
0060C00600
00E0C00600
00E0FFFE00
01E0C00600
0360C00600
0660C00600
0C60C00600
1860C00600
7060C00600
0060C00600
0060C00600
0060C00600
0060C00600
0060C00600
00E0FFFE00
1FC0C00600
0380C00600
0000000000
0000000000
0000000000
ENDCHAR

STARTCHAR cns4_2459
ENCODING 9305
SWIDTH 960 0
DWIDTH 34 0
BBX 34 34 0 -2
BITMAP
0000000000
0000000000
0000000000
0018000000
0C70007800
06C003E000
03821F0000
0303FE0000
0703060000
0D83060000
1983060000
3183030000
00C3030000
00C3030000
00C3030600
01C3FFFF00
01C3030000
03C3030000
06C3030000
0CC3018000
18C3018000
30C3018000
60C3018000
00C300C000
00C300C000
00C306C200
00C31C6200
00C3F06200
00FF003700
01B8003F00
3F80001F00
0700000E00
0000000000
0000000000
ENDCHAR

STARTCHAR cns4_245A
ENCODING 9306
SWIDTH 960 0
DWIDTH 34 0
BBX 34 34 0 -2
BITMAP
0000000000
0000000000
00000E0000
00700C0000
0CE00C0000
07800C0000
07000C0000
02000C0000
07020C0600
0D83FFFF00
39830C0600
01860C0C00
01860C1800
01860C3000
01800F0000
01801E0000
03C01E0000
06C01E0000
06C0360000
0CC0360000
18C0360000
30C0660000
60C0660000
00C0660000
00C0C60200
00C0C60200
00C1860200
00C3060300
0186070700
038C07FF00
3F9803FE00
0770000000
0000000000
0000000000
ENDCHAR

STARTCHAR cns4_245B
ENCODING 9307
SWIDTH 960 0
DWIDTH 34 0
BBX 34 34 0 -2
BITMAP
0000000000
0000000000
0038000000
0072000C00
0C63FFFE00
06C3060C00
0383060C00
0303060C00
0703060C00
0D83060C00
1983060C00
00C3060C00
00C3060C00
00C3060C00
00C3060C00
01C3FFFC00
01C3000C00
03C3000C00
03C3000000
06C3000000
0CC3000000
18C3000000
30C3000000
00C3000200
00C3000200
00C3000200
00C3000300
00C3000300
00C3800700
0183FFFF00
3F81FFFE00
0700000000
0000000000
0000000000
ENDCHAR

STARTCHAR cns4_245C
ENCODING 9308
SWIDTH 960 0
DWIDTH 34 0
BBX 34 34 0 -2
BITMAP
0000000000
0000000000
0000000000
0000003000
0003FFF800
0030183000
7FF8183000
0300183000
0300183000
0300183000
0300183000
0300183000
0300183000
0300183000
0360183000
3FF01B3000
0303FFB000
0300183000
0300183000
0300183000
0300181800
0300181800
030E181800
0338181900
03E0181900
0F00181900
3C00180D80
3000180D80
0000180F80
0000180780
0000180300
0000100000
0000000000
0000000000
ENDCHAR

STARTCHAR cns4_245D
ENCODING 9309
SWIDTH 960 0
DWIDTH 34 0
BBX 34 34 0 -2
BITMAP
0000000000
0000000000
0000000000
0000070000
0000060000
0018060000
3FFC060000
0300060000
0300060000
0300060000
0300060000
0300060000
0300060000
0300060000
0300061800
0333FFFC00
3FF8060000
0300060000
0300060000
0300060000
0300060000
0300060000
0300060000
030E060000
0338060000
03E0060000
0F00060000
7C00060000
3000060000
0000060600
001FFFFF00
0000000000
0000000000
0000000000
ENDCHAR

STARTCHAR cns4_245E
ENCODING 9310
SWIDTH 960 0
DWIDTH 34 0
BBX 34 34 0 -2
BITMAP
0000000000
0000000000
0000000000
0006000600
3FFFFFFF00
00C0180000
00C0180000
00C0180000
00C0180000
00C0180000
00C0183000
00C01FF800
00C0303000
00C0303000
00C0303000
00C0303000
00C0303000
00C0303000
00C0363000
00C0333000
00C0333000
00C0313000
00C0303000
00C0303200
00C0303200
00C0303200
00C031F200
00C03F3300
00C0703300
01C3C03F00
3F80001E00
0700000000
0000000000
0000000000
ENDCHAR

STARTCHAR cns4_245F
ENCODING 9311
SWIDTH 960 0
DWIDTH 34 0
BBX 34 34 0 -2
BITMAP
0000000000
0000000000
0000070E00
0000060C00
00000E0C00
40060C0C00
7FFF0C1800
61860C1800
61860C1800
6186181800
6186183000
6186183000
6186103000
6186306000
6186606000
7FFEE0C000
618661C000
618660C000
618660C000
6186306000
6186306000
6186306000
6186183000
6186183000
7FFE181800
6006181800
60060C1C00
00000C0C00
00000C0C00
00000C0C00
0000060600
0000060600
0000000000
0000000000
ENDCHAR

STARTCHAR cns4_2460
ENCODING 9312
SWIDTH 960 0
DWIDTH 34 0
BBX 34 34 0 -2
BITMAP
0000000000
0000000000
0000700000
0000600000
0200600600
03FFFFFF00
0300000000
0300000000
0300000000
0300003000
333FFFF800
1B06003000
1B06006000
0F06006000
0F0300C000
030300C000
030180C000
0301818000
0F00C18000
1B00C30000
7B00660000
23003C0000
06001C0000
06003C0000
06006E0000
0600C70000
0C03838000
0C0E01E000
0C3800F800
18E0007F00
1B80001E00
3000000000
0000000000
0000000000
ENDCHAR

STARTCHAR cns4_2461
ENCODING 9313
SWIDTH 960 0
DWIDTH 34 0
BBX 34 34 0 -2
BITMAP
0000000000
0000000000
0000700000
0000600000
0200600600
03FFFFFF00
0300000000
0300007000
0300006000
0300006000
3300006000
1B0E006000
1B0C006000
0F0C006000
0F0C006000
030C006000
030C006000
030C006000
0F0C006000
3B0C006000
730C006000
230FFFE000
060C006000
060C006000
0600006000
0600006000
0C00006000
0C00006000
0C00006000
1800006000
3000006000
6000006000
0000006000
0000000000
ENDCHAR

STARTCHAR cns4_2462
ENCODING 9314
SWIDTH 960 0
DWIDTH 34 0
BBX 34 34 0 -2
BITMAP
0000000000
0000000000
0000380000
0000300000
0000300000
0200300600
03FFFFFF00
0300000000
0300000000
0300000000
0300001800
337FFFFC00
1B01800000
1B03000000
0F03000000
0303000000
0306000000
0306003000
0307FFF800
0F0C003000
3B0C003000
7300006000
2300006000
0600006000
0600006000
0600006000
0600006000
0C0000C000
0C0000C000
0C0001C000
18003F8000
3000070000
6000000000
0000000000
ENDCHAR

STARTCHAR cns4_2463
ENCODING 9315
SWIDTH 960 0
DWIDTH 34 0
BBX 34 34 0 -2
BITMAP
0000000000
0000000000
0000000000
0000C00000
07FFE1C000
0001E38000
0603260000
03033C1C00
0186183800
00CC0C6000
00D807C000
0030030000
0060018000
00C000C000
01A0037000
033FFFBC00
0E30031F00
1830030E00
3030030000
0030030000
0030030000
0030060000
0030FE0000
00301C1000
0030001000
0030001000
0030001800
0030001800
0038003800
003FFFF800
001FFFF000
0000000000
0000000000
0000000000
ENDCHAR

STARTCHAR cns4_2464
ENCODING 9316
SWIDTH 960 0
DWIDTH 34 0
BBX 34 34 0 -2
BITMAP
0000000000
0000000000
0000001C00
0000001800
080C381800
0FFE301800
0C0C301800
0C0C301800
0C0C301800
0C0C301800
0C0C301800
0C0C301800
0FFC301800
0C0C301800
0C0C301800
0C0C301800
0C0C301800
0C0C301800
0C0C301800
0FFC301800
0C0C307800
0C0C31D800
0C0C3F1800
0C0FF81800
0C0D801800
0C0C001800
0C0C001800
0FFC001800
0C0C001800
0C0C001800
0000001800
0000001800
0000000000
0000000000
ENDCHAR

STARTCHAR cns4_2465
ENCODING 9317
SWIDTH 960 0
DWIDTH 34 0
BBX 34 34 0 -2
BITMAP
0000000000
0000000000
0038000000
0030000000
0060000000
0060000000
0060000600
00FFFFFF00
00C0000600
0180000600
0180000600
0300000600
06400C0C00
0C7FFE0C00
18600C0C00
30600C0C00
00600C0C00
007FFC0C00
00600C0C00
00600C0C00
00600C0C00
007FFC0C00
00600C0C00
00600C0C00
00600C1800
007FFC1800
00600C1800
0000001800
0000001800
0000003000
00000FF000
000001E000
0000000000
0000000000
ENDCHAR

STARTCHAR cns4_2466
ENCODING 9318
SWIDTH 960 0
DWIDTH 34 0
BBX 34 34 0 -2
BITMAP
0000000000
0000000000
0000000000
0200018000
03FFFFC000
0300018000
0300018000
0300018000
03FFFF8000
0300018000
0300018000
0300018000
03FFFF8000
0300018000
0300018000
0300018000
03FFFF8000
0300018000
0000000000
0380000000
0300000000
0300020000
0300070000
03FFFF8000
0300001000
0300001000
0300001800
0300001800
0380003800
03FFFFF800
01FFFFF000
0000000000
0000000000
0000000000
ENDCHAR

STARTCHAR cns4_2467
ENCODING 9319
SWIDTH 960 0
DWIDTH 34 0
BBX 34 34 0 -2
BITMAP
0000000000
0000000000
0000000000
000C800C00
1FFEFFFE00
0180C00C00
0180C00C00
0180C00C00
0180C00C00
0180C00C00
0180C01800
0300C01800
0300C01800
0618C01800
07FCC01800
0F18C01800
0F18C01800
1B18C03000
1B18C7F000
3318C0E000
6318C00000
0318C00000
0318C00000
0318C00200
0318C00200
0318C00200
03F8C00200
0318E00700
0318FFFF00
00007FFE00
0000000000
0000000000
0000000000
0000000000
ENDCHAR

STARTCHAR cns4_2468
ENCODING 9320
SWIDTH 960 0
DWIDTH 34 0
BBX 34 34 0 -2
BITMAP
0000000000
0000000000
0000007000
000007E000
0001FF8000
01FFE00000
0000600000
0000600600
0FFFFFFF00
0001E00000
0003F80000
000E6F0000
001861E000
0070607800
01C0603C00
0F00600C00
0000600000
0000000000
0001C00000
0001800000
0001800000
0001C00000
0001C00000
0003600000
0003600000
0006300000
000C1C0000
0038070000
00E001C000
038000F800
0E00003F00
3800000C00
0000000000
0000000000
ENDCHAR

STARTCHAR cns4_2469
ENCODING 9321
SWIDTH 960 0
DWIDTH 34 0
BBX 34 34 0 -2
BITMAP
0000000000
0000000000
0000E00000
0000C00000
0000C00000
1000C00600
1FFFFFFF00
1800180600
3038180C00
3070180200
00C0180300
03801C0700
0E000FFE00
3800000000
0000001800
1FFFFFFC00
0000600000
0000600000
0000600000
0000600000
0000600000
0000600000
0000600000
0000600000
0000600000
0000600000
0000600000
0000600000
0000600000
0000E00000
000FE00000
0001C00000
0000000000
0000000000
ENDCHAR

STARTCHAR cns4_246A
ENCODING 9322
SWIDTH 960 0
DWIDTH 34 0
BBX 34 34 0 -2
BITMAP
0000000000
0000000000
0800000C00
0FFFFFFE00
0C0C0C0C00
0C0C0C0C00
0C0C0C0C00
0C0C0C0C00
0C0C0C0C00
0FFFFFFC00
0C00000C00
0000000000
0000000000
0000000C00
1FFFFFFE00
0000600000
0000600000
0000600000
0000600000
0000600000
0000600000
0000600000
0000600000
0000600000
0000600000
0000600000
0000600000
0000600000
0000600000
0000E00000
000FE00000
0001C00000
0000000000
0000000000
ENDCHAR

STARTCHAR cns4_246B
ENCODING 9323
SWIDTH 960 0
DWIDTH 34 0
BBX 34 34 0 -2
BITMAP
0000000000
0000000000
0000000000
0400001800
07FFFFFC00
0600001800
0601C01800
0601801800
0603001800
0607E01800
060C781800
06181E1800
0670061800
0600001800
0000E00000
0000C00000
0000C00000
0000C00000
0000C00600
3FFFFFFF00
0180000000
0180000000
0180000000
0180000000
0180000000
0180000000
0180000000
0180000000
0180000000
01C0001800
00FFFFFC00
0000000000
0000000000
0000000000
ENDCHAR

STARTCHAR cns4_246C
ENCODING 9324
SWIDTH 960 0
DWIDTH 34 0
BBX 34 34 0 -2
BITMAP
0000000000
0000000000
001C0E0000
00180C0000
00180C0000
00180C0000
00180C0600
3FF80FFF00
00180C0000
00180C0000
00180C0000
0018EC0000
0000C00000
0000C00000
0000C00000
0000C06000
01FFFFF000
0000C00000
0000C00000
0000C00000
0000C00000
0000C00300
3FFFFFFF80
0000C00000
0000C00000
0000C00000
0000C00000
0000C00000
0000C00000
0000C00000
0000C00000
0000C00000
0000C00000
0000000000
ENDCHAR

STARTCHAR cns4_246D
ENCODING 9325
SWIDTH 960 0
DWIDTH 34 0
BBX 34 34 0 -2
BITMAP
0000000000
0000000000
0000000000
0001800000
3FFFC00C00
060C1FFE00
060C000C00
060C001800
060C001800
060C003000
07FC003000
060C006000
060C00C000
060C00C000
060C018000
060C030000
07FC030000
060C060000
060C060000
060C0C0000
060C0C0000
060C0C0000
063C180100
07CC180100
1F0C300100
3C0C300100
300C300180
000C300180
000C380380
000C3FFF80
000C1FFF00
000C000000
000C000000
0000000000
ENDCHAR

STARTCHAR cns4_246E
ENCODING 9326
SWIDTH 960 0
DWIDTH 34 0
BBX 34 34 0 -2
BITMAP
0000000000
0000000000
0818000000
0FFC000C00
0C19FFFE00
0C18030000
0C18030000
0C18030000
0E18030000
0F98030000
0DD8030000
0CD8030000
0C58030000
0C18030600
0C1BFFFF00
0C18030000
0C78030000
0CD8030000
0D98030000
0F18030000
0E18030000
0E18030000
0C18030000
1818030000
1818030000
1818030000
1818030000
1818030000
3018030000
3038070000
63F87F0000
00700E0000
0000000000
0000000000
ENDCHAR

STARTCHAR cns4_246F
ENCODING 9327
SWIDTH 960 0
DWIDTH 34 0
BBX 34 34 0 -2
BITMAP
0000000000
0000000000
0818000000
0FFC206000
0C183FF000
0C18306000
0C18306000
0C18306000
0E18306000
0F18306000
0DD8306000
0CD8306000
0C18386000
0C183C6000
0C18346000
0C18366000
0C78336000
0CD8336000
0D98336000
0F18306000
0E18606000
0C18606000
0C18606000
1818606100
1818606100
1818C06100
1818C06180
1819806180
3019807380
303B007F80
33FE003F00
6070000000
0000000000
0000000000
ENDCHAR

STARTCHAR cns4_2470
ENCODING 9328
SWIDTH 960 0
DWIDTH 34 0
BBX 34 34 0 -2
BITMAP
0000000000
0000000000
0818000000
0FFC000700
0C18000600
0C18600C00
0C18600C00
0C18EC0C00
0E18E60C00
0F98E31800
0D99B19800
0CD9B1D800
0CD8187800
0C18183000
0C18183000
0C18183000
0C380C3000
0CD80C6000
0D980C6000
0F18066000
0E1806C000
0E18038000
0C18038000
1818038000
181806C000
18180CE000
1818187000
1818303800
3018601C00
3038C00F00
63F9800780
0077000000
0000000000
0000000000
ENDCHAR

STARTCHAR cns4_2471
ENCODING 9329
SWIDTH 960 0
DWIDTH 34 0
BBX 34 34 0 -2
BITMAP
0000000000
0000000000
0000000000
1000001800
1FFFFFFC00
1803000000
1803000000
1803000000
1803000000
1803000000
1803000000
190300C000
19FFFFE000
198000C000
198000C000
198000C000
198000C000
198000C000
198000C000
198000C000
19FFFFC000
198180C000
198180C000
1801800000
1801800000
1801800000
1801800000
1801800000
1801801800
1FFFFFFC00
1800000000
1800000000
0000000000
0000000000
ENDCHAR

STARTCHAR cns4_2472
ENCODING 9330
SWIDTH 960 0
DWIDTH 34 0
BBX 34 34 0 -2
BITMAP
0000000000
0000000000
0000000000
0000000600
3FFFFFFF00
0000C00000
0000C00000
0000C00000
0001800000
0001800000
0101803000
01FFFFF800
0180003000
0180003000
0180003000
0180003000
01FFFFF000
0180003000
0180003000
0180003000
0180003000
0180003000
01FFFFF000
0180003000
0180003000
0180003000
0180003000
0180003000
01FFFFF000
0180003000
0180003000
0000000000
0000000000
0000000000
ENDCHAR

STARTCHAR cns4_2473
ENCODING 9331
SWIDTH 960 0
DWIDTH 34 0
BBX 34 34 0 -2
BITMAP
0000000000
0000000000
00E0000000
00C00E0000
00C00C0000
01800C0000
21830C0000
3FFF8C0000
30030C0000
30030C0000
30030C0000
30030C0000
30030C0000
30030C0000
3FFF0C0000
30030C0000
30030C0000
30030C0000
30030C0000
30030C0000
3FFF0C0000
30030C0000
30030C0000
30030C0100
30030C0100
30030C0100
30030C0100
30030C0180
3FFF0C0180
30030E0380
30030FFF80
000007FF00
0000000000
0000000000
ENDCHAR

STARTCHAR cns4_2474
ENCODING 9332
SWIDTH 960 0
DWIDTH 34 0
BBX 34 34 0 -2
BITMAP
0000000000
0000000000
0000000000
0000000000
0007000000
001C000C00
00703FFE00
05C0000C00
0700000C00
0600000C00
0600000C00
0600000C00
0600000C00
0600000C00
0600000C00
0606000C00
07FF1FFC00
0600000C00
0600000C00
0600000C00
0600000C00
0600000C00
0600000C00
0600000C00
0600000C00
0600000C00
060C000C00
07FE1FFC00
0600000C00
0600000C00
0000000000
0000000000
0000000000
0000000000
ENDCHAR

STARTCHAR cns4_2475
ENCODING 9333
SWIDTH 960 0
DWIDTH 34 0
BBX 34 34 0 -2
BITMAP
0000000000
0000000000
01C001C000
0180018000
0186018600
3FFF3FFF00
0180018000
0180018000
0180018000
0000000000
0000003000
07FFFFF800
0000C00000
0000C00000
0000C00000
0000C00000
0000C00000
0000C00600
3FFFFFFF00
0000C00000
0000C00000
0000C00000
0000C00000
0000C00000
0000C00000
0000C00000
0000C00000
0000C00000
0000C00000
0000C00000
0000C00000
0000C00000
0000C00000
0000000000
ENDCHAR

STARTCHAR cns4_2476
ENCODING 9334
SWIDTH 960 0
DWIDTH 34 0
BBX 34 34 0 -2
BITMAP
0000000000
0000000000
01C001C000
0180018000
0186018600
3FFF3FFF00
0180018000
0180018000
0180018000
0000000000
000000C000
0FFFFFE000
000C00C000
000C00C000
000C00C000
000C00C000
000C00C000
000C00C000
000C00C000
000C18C000
07FFFC6000
0018006000
0018006000
0030006200
0060006200
0060003200
00C0003300
0180003300
0300003300
0600001F00
0C00000F00
1800000600
0000000000
0000000000
ENDCHAR

STARTCHAR cns4_2477
ENCODING 9335
SWIDTH 960 0
DWIDTH 34 0
BBX 34 34 0 -2
BITMAP
0000000000
0000000000
01C001C000
0180018000
0186018600
3FFF3FFF00
0180018000
0180018000
0180718000
0000600000
0000600000
0000600000
0000601800
3FFFFFFC00
0000600000
0000600000
0000638000
0000660000
00006C0000
0000780000
0000E00000
0001E00000
0003600000
000E600000
0038600000
00E0600000
0780600000
0000600000
0000600000
0000E00000
000FE00000
0001C00000
0000000000
0000000000
ENDCHAR

STARTCHAR cns4_2478
ENCODING 9336
SWIDTH 960 0
DWIDTH 34 0
BBX 34 34 0 -2
BITMAP
0000000000
0000000000
01C001C000
0180018000
0180018000
0186018600
3FFF3FFF00
0180018000
0180018000
0180018000
0180018000
0000000000
0000000600
3FFFFFFF00
000C0C0000
000C0C0000
000C0C0000
000C0C0000
000C0C0000
000C0C0000
000C0C0000
000C0C0000
00180C0000
00180C0000
00180C0200
00300C0200
00600C0200
00C00C0300
01800C0300
03000E0700
0E000FFF00
180007FE00
0000000000
0000000000
ENDCHAR

STARTCHAR cns4_2479
ENCODING 9337
SWIDTH 960 0
DWIDTH 34 0
BBX 34 34 0 -2
BITMAP
0000000000
0000000000
01C001C000
0180018000
0180018000
0186018600
3FFF3FFF00
0180018000
0180018000
0180018000
0181C18000
0001800000
0001800000
0001800000
0001800000
0001800600
3FFFFFFF00
0001C00000
0003C00000
0003600000
0003300000
0006300000
0006180000
0006180000
000C0C0000
000C060000
0018030000
003001C000
006000F800
01C0003F00
0700000F00
1C00000000
3000000000
0000000000
ENDCHAR

STARTCHAR cns4_247A
ENCODING 9338
SWIDTH 960 0
DWIDTH 34 0
BBX 34 34 0 -2
BITMAP
0000000000
0000000000
01C001C000
0180018000
0180018000
0186018600
3FFF3FFF00
0180018000
0180018000
0180018000
0180018000
0000000000
0400003000
07FFFFF800
0600003000
0600003000
0600003000
0600003000
0600003000
0600003000
0600003000
0600003000
0600003000
0600003000
0600003000
0600003000
0600003000
0600003000
07FFFFF000
0600003000
0600003000
0000000000
0000000000
0000000000
ENDCHAR

STARTCHAR cns4_247B
ENCODING 9339
SWIDTH 960 0
DWIDTH 34 0
BBX 34 34 0 -2
BITMAP
0000000000
0000000000
01C001C000
0180018000
0180018000
0186018600
3FFF3FFF00
0180018000
0180E18000
0180C18000
0180C18000
0000C00000
0000C00000
0100C03000
01FFFFF800
0180C03000
0180C03000
0180C03000
0180C03000
0180C03000
0180C03000
0180C03000
0180C03000
0180C03000
0180C03000
0180C07000
0180C7F000
0180C0E000
0000C00000
0000C00000
0000C00000
0000C00000
0000000000
0000000000
ENDCHAR

STARTCHAR cns4_247C
ENCODING 9340
SWIDTH 960 0
DWIDTH 34 0
BBX 34 34 0 -2
BITMAP
0000000000
0000000000
01C001C000
0180018000
0180018000
0186018600
3FFF3FFF00
0180018000
0180018000
0180018000
0180018000
0000000000
000001E000
00003F8000
0007F80000
1FFF000000
0E03000000
0003000000
0003000000
0003000000
0003003E00
00037FF000
3FFFF80000
1E03000000
0003000000
0003000000
0003000200
0003000200
0003000300
0003800700
0003FFFF00
0001FFFE00
0000000000
0000000000
ENDCHAR

STARTCHAR cns4_247D
ENCODING 9341
SWIDTH 960 0
DWIDTH 34 0
BBX 34 34 0 -2
BITMAP
0000000000
0000000000
01C001C000
0180018000
0180018000
0186018600
3FFF3FFF00
0180018000
0180018000
01B8018000
01F0018000
0060000000
00C0003000
01FFFFF800
0180000000
0300000000
0300060000
067FFF0000
0C00060000
18001C0000
0000300000
0000E00000
0001800000
0007000000
000C000000
0038000400
0060000400
00C0000600
0180000600
01C0000E00
01FFFFFE00
00FFFFFC00
0000000000
0000000000
ENDCHAR

STARTCHAR cns4_247E
ENCODING 9342
SWIDTH 960 0
DWIDTH 34 0
BBX 34 34 0 -2
BITMAP
0000000000
0000000000
00000E0000
18000C0000
0C000C0000
07000C0000
03000C0000
00020C0600
0003FFFF00
0003000000
00C3000000
3FE3000000
00C3000000
0183000000
0183000000
0303000000
0303000000
0603000000
0C63000000
0FF3000000
0C63000000
1863000000
00C3000000
00C3000000
0183800000
0181FFFE00
0300000000
0300000000
0FF0000000
387FC00000
300FFFFE00
00003FFC00
0000000000
0000000000
ENDCHAR

STARTCHAR cns4_2521
ENCODING 9505
SWIDTH 960 0
DWIDTH 34 0
BBX 34 34 0 -2
BITMAP
0000000000
0000000000
0000000000
1800000000
0C00001800
0707FFFC00
03000C0000
00000C0000
00000C0000
00000C0000
00C00C0000
3FE00C0000
00C00C0C00
018FFFFE00
01800C0000
03000C0000
03000C0000
06000C0000
0C600C0000
0FF00C0000
18600C0000
18600C0000
00C00C0000
00C00C0000
01800C0000
01800C0000
03000C0000
03800C0000
0FF00C0000
3C7E000000
300FFFFE00
0001FFFC00
0000000000
0000000000
ENDCHAR

STARTCHAR cns4_2522
ENCODING 9506
SWIDTH 960 0
DWIDTH 34 0
BBX 34 34 0 -2
BITMAP
0000000000
0000000000
0000000000
1800000000
0C00000600
0707FFFF00
0300306000
0000306000
0000306000
0000306000
00C0306000
3FE0306000
00C0306000
00C0306000
0180306000
0180306000
0300306000
0600306000
0660306000
0FF0606000
0C60606000
1860606000
00C0C06000
00C0C06000
0181806000
0183006000
0306006000
060C006000
0FE0000000
387FC00000
300FFFFE00
00003FFC00
0000000000
0000000000
ENDCHAR

STARTCHAR cns4_2523
ENCODING 9507
SWIDTH 960 0
DWIDTH 34 0
BBX 34 34 0 -2
BITMAP
0000000000
0000000000
0000000000
1800000000
0C00003000
0701FFF800
0300000000
0000000000
0000000000
0000000C00
00CFFFFE00
3FE0600000
00C0600000
0180600000
0180C01800
0180FFFC00
0301801800
0601801800
0660001800
0FF0001800
0C60003000
18C0003000
00C0003000
00C0003000
0180006000
018000E000
03001FC000
0300038000
0FE0000000
387E000000
300FFFFE00
00003FFC00
0000000000
0000000000
ENDCHAR

STARTCHAR cns4_2524
ENCODING 9508
SWIDTH 960 0
DWIDTH 34 0
BBX 34 34 0 -2
BITMAP
0000000000
0000000000
0000000000
1800000000
0C04001800
0707FFFC00
0306001800
0006001800
0006001800
0006001800
00C6001800
3FE6001800
00C6001800
00C6001800
0187FFF800
0186001800
0306000000
0606000000
0666000000
0FF6000000
0C66000400
1866000400
00C6000600
00C6000600
0187000E00
0187FFFE00
0303FFFC00
0300000000
0FE0000000
38FE000000
301FFFFE00
00003FFC00
0000000000
0000000000
ENDCHAR

STARTCHAR cns4_2525
ENCODING 9509
SWIDTH 960 0
DWIDTH 34 0
BBX 34 34 0 -2
BITMAP
0000000000
0000000000
0000020300
000183FF80
07FFC30300
0061830600
0061830600
0061830600
0061830C00
00C1830C00
00C1831800
00C1831800
00C1833000
00C1833000
00C1833000
00C1B31800
0FFFFB0C00
0183030C00
0183030600
0183030600
0183030600
0183030600
0183030600
0183030600
0183030600
0183030E00
030603FE00
0306031C00
0306330000
3FFFFB0000
0000030000
0000030000
0000030000
0000000000
ENDCHAR

STARTCHAR cns4_2526
ENCODING 9510
SWIDTH 960 0
DWIDTH 34 0
BBX 34 34 0 -2
BITMAP
0000000000
0000000000
0038080600
00300FFF00
00300C0600
00300C0600
00300C0C00
0030CC0C00
3FFFEC1800
00300C1800
00300C1800
00300C3000
00300C3000
00318C7000
1FFFCC3000
06018C3000
06018C1800
03030C1800
03030C0C00
01860C0C00
01860C0C00
00C60C0600
00CC0C0600
007C0C0600
00380C0C00
00380DFC00
007C0C3800
00CE0C0000
01878C0000
0303CC0000
0E00EC0000
38000C0000
00000C0000
0000000000
ENDCHAR

STARTCHAR cns4_2527
ENCODING 9511
SWIDTH 960 0
DWIDTH 34 0
BBX 34 34 0 -2
BITMAP
0000000000
0000000000
0070000000
0060040600
006007FF00
0060060600
0060660600
3FFFF60C00
0060060C00
0060061800
0060061800
0060063000
1060C63000
1FFFE63000
1860C63000
1860C63000
1860C61800
1860C61800
1860C60C00
1860C60C00
1860C60600
1860C60600
1860C60600
1860C60600
1860C60600
1861C60600
187FC60E00
186387FC00
0060063800
0060060000
0060060000
0060060000
0060060000
0000000000
ENDCHAR

STARTCHAR cns4_2528
ENCODING 9512
SWIDTH 960 0
DWIDTH 34 0
BBX 34 34 0 -2
BITMAP
0000000000
0000000000
0070000000
0060040600
006007FF00
0060060600
0060060600
0060060C00
0060060C00
0060060C00
0766061800
0663061800
0C61863000
0C61863000
0C60C63000
1860C63000
1860061800
1860061800
3061C60C00
6061860C00
00E3060600
0FE3060600
01C6060600
000C060600
000C060600
0018060E00
003007FC00
0060063800
00C0060000
0380060000
0E00060000
3800060000
6000060000
0000000000
ENDCHAR

STARTCHAR cns4_2529
ENCODING 9513
SWIDTH 960 0
DWIDTH 34 0
BBX 34 34 0 -2
BITMAP
0000000000
0000000000
0000040600
000007FF00
0000660600
1FFFF60600
0060060C00
0060060C00
00C0061800
00C0061800
00C1C63000
0181863000
0183066000
0F03066000
0706066000
0306063000
018C063000
01CC061800
00D8061800
0018060C00
0030060C00
0060060C00
0060060C00
00C0C60C00
0180660C00
0307E61C00
1FFE77FC00
1F00363800
0000360000
0000060000
0000060000
0000060000
0000060000
0000000000
ENDCHAR

STARTCHAR cns4_252A
ENCODING 9514
SWIDTH 960 0
DWIDTH 34 0
BBX 34 34 0 -2
BITMAP
0000000000
0000000000
0000020300
0003E3FF80
001F830300
01F8030300
1F30030600
0030030600
0030030C00
0030030C00
0030030C00
0030031800
0030031800
0030033800
0030031800
0030C31800
3FFFE30C00
0030030600
0030030600
0030030600
0030030600
0030030600
0030030600
0030030600
0030030600
0030F30E00
003F83FE00
007C031C00
07E0030000
1F00030000
0000030000
0000030000
0000030000
0000000000
ENDCHAR

STARTCHAR cns4_252B
ENCODING 9515
SWIDTH 960 0
DWIDTH 34 0
BBX 34 34 0 -2
BITMAP
0000000000
0000000000
0000000000
0020006000
003FFFF000
0030000000
0030000000
003000C000
003FFFE000
0030000000
0030000000
0030000000
003000C000
003FFFE000
0030000000
0030000000
0030000000
0030000000
0030000C00
1FFFFFFE00
000C000000
000C000000
0018000000
0018000000
0030000000
0030000000
0060006000
0060003000
00C07FF800
01FFF81800
03F0001800
0000000000
0000000000
0000000000
ENDCHAR

STARTCHAR cns4_252C
ENCODING 9516
SWIDTH 960 0
DWIDTH 34 0
BBX 34 34 0 -2
BITMAP
0000000000
0000000000
1030300000
1FF8600000
1830600000
1860C00000
1860C00C00
1860FFFE00
18C1800000
18C1800000
18C3000000
1986006000
198C7FF000
18D8000000
18C0000000
186000C000
1860FFE000
183000C000
1830018000
1830030000
1830060000
18300C0000
1870180000
1FF0300000
18E0600200
1800C00200
1800C00200
1801800300
1801C00700
1801FFFF00
1800FFFE00
1800000000
1800000000
0000000000
ENDCHAR

STARTCHAR cns4_252D
ENCODING 9517
SWIDTH 960 0
DWIDTH 34 0
BBX 34 34 0 -2
BITMAP
0000000000
0000000000
1030000000
1FF8206000
18303FF000
1860306000
1860306000
1860306100
18C0306100
18C0606100
1980606180
1980607380
1980C07F80
18C1803F00
18C3000000
1866000000
1860000000
1830001800
1833FFFC00
1830601800
1830603000
1830603000
1870306000
1FF030C000
18E0198000
18000F0000
1800060000
18000F8000
180038E000
1800E07C00
1803801F00
180E000780
1800000000
0000000000
ENDCHAR

STARTCHAR cns4_252E
ENCODING 9518
SWIDTH 960 0
DWIDTH 34 0
BBX 34 34 0 -2
BITMAP
0000000000
0000000000
1060070000
1FF0060000
1860060000
1860060000
1860060000
1860060000
18C0060000
18C0060600
1980370C00
1987FF0C00
1980371800
18C067B000
18C066E000
186066C000
183066C000
183066C000
1830666000
1830C66000
1830C63000
1830C63000
1871861800
1FF1861800
18E3060C00
1803060E00
1806060700
180C060300
1800060000
18000E0000
1800FE0000
18001C0000
1800000000
0000000000
ENDCHAR

STARTCHAR cns4_252F
ENCODING 9519
SWIDTH 960 0
DWIDTH 34 0
BBX 34 34 0 -2
BITMAP
0000000000
0000000000
07070E0E00
06060C0C00
06060C0C00
06060C0C00
06060C0C00
06060C0C00
06060C0C00
06060C0C00
07FE0FFC00
06060C0C00
0600000C00
0600000C00
0600000C00
0600000C00
07FFFFFC00
0600000C00
0600000C00
0600000C00
060C100C00
07FE1FFC00
060C180C00
0C0C180C00
0C0C180C00
0C0C180C00
0C0C180C00
0C0C180C00
0C0C180C00
180C180C00
180C180C00
180C180C00
3000000C00
0000000000
ENDCHAR

STARTCHAR cns4_2530
ENCODING 9520
SWIDTH 960 0
DWIDTH 34 0
BBX 34 34 0 -2
BITMAP
0000000000
0038000000
0030000000
0030070000
0030060000
0030660000
0FFFF60000
0000060000
0000060000
0601860000
0303060000
0303060000
0303060000
0186060000
0186360000
3FFFFE0000
0030060000
0030060000
0030060000
0030060000
0030060000
0030660000
1FFFF60000
0030060000
0030060200
0030060200
0030060200
0030060300
0030060300
0030070700
003007FF00
003003FE00
0030000000
0000000000
ENDCHAR

STARTCHAR cns4_2531
ENCODING 9521
SWIDTH 960 0
DWIDTH 34 0
BBX 34 34 0 -2
BITMAP
0000000000
0000000000
00E0001C00
00C081F000
00C0FFC000
00C6C00000
3FFFC00000
00C0C00300
00C0FFFF80
00CEC0C000
00FC80C000
0FC180C000
3CC180C000
30C300C000
00C200C000
01CC00C000
1FC000C000
0380060000
00FFFF0000
00000E0000
0000380000
0000E00000
0001800000
0007000000
001C000000
0070000400
00C0000400
0180000400
0300000600
0380000E00
03FFFFFE00
01FFFFFC00
0000000000
0000000000
ENDCHAR

STARTCHAR cns4_2532
ENCODING 9522
SWIDTH 960 0
DWIDTH 34 0
BBX 34 34 0 -2
BITMAP
0000000000
0000000000
0000000000
0000000C00
1FFFFFFE00
0000000000
0000000000
0060018000
007003C000
00C0030000
00C0060000
0180060000
03070C1C00
060E183800
1E0C383000
0618186000
07180C6000
03300CC000
003000C000
0060018000
0060018000
00C0030000
018C061800
03060C0C00
060618FC00
3FFF7FC600
3E037C0600
1003200000
0000000000
0000000600
3FFFFFFF00
0000000000
0000000000
0000000000
ENDCHAR

STARTCHAR cns4_2533
ENCODING 9523
SWIDTH 960 0
DWIDTH 34 0
BBX 34 34 0 -2
BITMAP
0000000000
0000000000
0000E00000
0000C00000
0000C00600
3FFFFFFF00
0000C00000
0200C01800
03FFFFFC00
0300C01800
0300C01800
0301C01800
0301E03800
0303F3F800
0306D87000
0306CC0000
030CC60000
0038C38000
0060C1E000
01C0C07C00
0700C01F00
1C00C00780
0000C00000
0000018000
00FFFFC000
0000000000
0000000000
0000000000
0000000000
0000000000
0000000600
3FFFFFFF00
0000000000
0000000000
ENDCHAR

STARTCHAR cns4_2534
ENCODING 9524
SWIDTH 960 0
DWIDTH 34 0
BBX 34 34 0 -2
BITMAP
0000000000
0000000000
0000E00000
0000C00000
0000C00000
0000C00000
0000C00600
3FFFFFFF00
0000000000
0000000000
0000000000
0800000C00
0FFFFFFE00
0C00000C00
0C00000C00
0C00000C00
0C10060C00
0C1FFF0C00
0C18060C00
0C18060C00
0C18060C00
0C18060C00
0C18060C00
0C1FFE0C00
0C18060C00
0C18060C00
0C00000C00
0C00000C00
0C00000C00
0C00000C00
0FFFFFFC00
0C00000C00
0C00000C00
0000000000
ENDCHAR

STARTCHAR cns4_2535
ENCODING 9525
SWIDTH 960 0
DWIDTH 34 0
BBX 34 34 0 -2
BITMAP
0000000000
0000000000
007001C000
007801E000
0060018000
0060018000
00C0030000
00C0030000
00C0030000
01E0038000
01B806C000
031C067000
030C0C3000
060E181800
0C06181800
0C00301800
1800600000
3038638000
0070030000
0060030000
00C0030000
00C0030000
01C0030000
01C0078000
03B006C000
03180CC000
070C186000
060E183000
0C06301800
1800E00E00
3001800780
6000000300
0000000000
0000000000
ENDCHAR

STARTCHAR cns4_2536
ENCODING 9526
SWIDTH 960 0
DWIDTH 34 0
BBX 34 34 0 -2
BITMAP
0000000000
0000038000
0038030000
0030033000
0060031800
0060030C00
00C0030000
00C0030C00
00FFFFFE00
0180030000
01C0030000
0380030000
0780030000
0580030000
0D80018000
19800D8000
318FFF8000
6180C18000
0180C18000
0180C18000
0180C0C000
0180C0C000
0180C0C000
0180C0C000
0180DC6000
0180F06200
0187803200
01BE003200
0198001B00
0180001F00
0180000F00
0180000600
0180000000
0000000000
ENDCHAR

STARTCHAR cns4_2537
ENCODING 9527
SWIDTH 960 0
DWIDTH 34 0
BBX 34 34 0 -2
BITMAP
0000000000
0000000000
007001C000
006001B000
00C0019800
00C0018C00
00C0018000
0180018000
0180018300
031FFFFF80
0380018000
0700018000
0700018000
0F03818000
1B03018600
3303018E00
630300CC00
030300CC00
030370D800
0303C0D800
031F00F000
033B007000
0333006000
0303006000
0306006000
030600F200
030601B200
030C033B00
030C061F00
03180C1F00
0330380F00
0360E00600
0300000000
0000000000
ENDCHAR

STARTCHAR cns4_2538
ENCODING 9528
SWIDTH 960 0
DWIDTH 34 0
BBX 34 34 0 -2
BITMAP
0000000000
0000000000
00701E0000
0060180000
00C0180000
00C0180000
00C0180000
0180183000
01801FF800
0300180000
0780180000
0700180000
0F00180000
0B00180E00
1B7FFFFF00
33000C0000
03000C0000
03000C0000
03000C0000
03038C0000
03070C3000
03060C1800
03060C1800
030C0C0C00
030C0C0C00
030C0C0E00
03180C0600
03180C0000
03180C0000
03001C0000
0301FC0000
0300380000
0300000000
0000000000
ENDCHAR

STARTCHAR cns4_2539
ENCODING 9529
SWIDTH 960 0
DWIDTH 34 0
BBX 34 34 0 -2
BITMAP
0000000000
0000000000
007038E000
006030C000
00C030C000
00C030C000
018030C000
018030C000
030030C000
030430C600
0387FFFF00
070630C600
0F0630C600
1B0630C600
1B0630C600
330630C600
630630C600
030630C600
030630C600
0307FFFE00
030630C600
030630C600
030630C600
030630C600
030630C600
030630C600
030630C600
030630C600
030630C600
030630C600
0307FFFE00
0306000600
0306000600
0000000000
ENDCHAR

STARTCHAR cns4_253A
ENCODING 9530
SWIDTH 960 0
DWIDTH 34 0
BBX 34 34 0 -2
BITMAP
0000000000
0000000000
00E0700000
00C060C000
00DC618000
0198618000
0198618000
0318618000
0318630000
0618630C00
061863FE00
0F18630C00
1E18630C00
3618630C00
6618670C00
0618671800
06186D9800
06186D9800
0618799800
061861B000
061860F000
0619E0E000
061F606000
06F8606000
066060E000
060060F000
0600619800
0600631C00
0600660E00
06006C0700
0600780380
0600600000
0600600000
0000000000
ENDCHAR

STARTCHAR cns4_253B
ENCODING 9531
SWIDTH 960 0
DWIDTH 34 0
BBX 34 34 0 -2
BITMAP
0000000000
0000000000
0070070000
0060060000
00C0060000
00C0060000
00C4060600
0187FFFF00
0186000600
0306000C00
038C007000
070C006000
0700006000
0F00006000
1B00006300
330FFFFF80
6300006000
0300006000
0300006000
0301806000
0300C06000
0300606000
0300606000
0300606000
0300006000
0300006000
0300006000
0300006000
0300006000
030000E000
03001FC000
0300038000
0300000000
0000000000
ENDCHAR

STARTCHAR cns4_253C
ENCODING 9532
SWIDTH 960 0
DWIDTH 34 0
BBX 34 34 0 -2
BITMAP
0000000000
0000000000
0060000000
0074000600
00C7FFFF00
00C6000000
0186000000
0186000000
0186000C00
03067FFE00
0386030000
0706030000
0F06030000
0F06030000
1B06030000
3306031800
63067FFC00
0306030000
0306030000
0306030000
0306030000
0306030000
0306030000
0306030000
0306030C00
03067FFE00
0306000000
0306000000
0306000000
0306000600
0307FFFF00
0306000000
0300000000
0000000000
ENDCHAR

STARTCHAR cns4_253D
ENCODING 9533
SWIDTH 960 0
DWIDTH 34 0
BBX 34 34 0 -2
BITMAP
0000000000
0000000000
01C3800000
0183000000
0186000000
0306000600
030FFFFF00
030C000000
0618000000
0618000000
0F34003000
0E67FFF800
1EC6183000
1E06183000
3606183000
6606183000
0606183000
0606183600
06FFFFFF00
060C306000
060C306000
060C306000
060C306000
060C306000
0618306000
0618306600
061FFFFF00
0618006000
0618006000
060000E000
06001FC000
0600038000
0600000000
0000000000
ENDCHAR

STARTCHAR cns4_253E
ENCODING 9534
SWIDTH 960 0
DWIDTH 34 0
BBX 34 34 0 -2
BITMAP
0000000000
0000000000
0000E00000
0001E00000
0001B00000
0003180000
00060C0000
001C070000
003001C000
00E006F000
019FFF3E00
0700000F00
1C00000000
3000000000
0000003000
07FFFFF800
0000600000
0000600000
0070600000
0060600000
0060600000
0060603000
00607FF800
0060600000
0060600000
0060600000
0060600000
0060600000
0060600000
0060600000
0060600300
3FFFFFFF80
0000000000
0000000000
ENDCHAR

STARTCHAR cns4_253F
ENCODING 9535
SWIDTH 960 0
DWIDTH 34 0
BBX 34 34 0 -2
BITMAP
0000000000
0038000000
003000E000
003000C000
003000C000
003180C000
0FFFC0C600
00303FFF00
003000C000
003000C000
073000C000
06301CC000
063018C000
0C3018C000
0C3030C000
0C2030C000
0C21B0C600
0FFFFFFF00
1860618000
186E618000
006C01B800
00CC033000
00CC033000
018C033000
018C063000
030C063100
030CEC3100
060F8C3180
061E183180
0C78303B80
1800603F80
3000C01F00
0001800000
0000000000
ENDCHAR

STARTCHAR cns4_2540
ENCODING 9536
SWIDTH 960 0
DWIDTH 34 0
BBX 34 34 0 -2
BITMAP
0000000000
0000000000
00000E0000
00000C0000
18000C0000
0C000C3000
0607FFF800
06000C3000
03000C3000
03000C3600
000FFFFF00
00000C3000
00000C3000
00C00C3000
01800C3000
0187FFF000
01800C3000
03000C0000
03000C0000
06000C0C00
0607FFFE00
3C000C0000
3C000C0000
0C000C0600
0C1FFFFF00
04000C0000
06000C0000
06000C0000
06000C0000
06000C0000
00000C0000
00000C0000
00000C0000
0000000000
ENDCHAR

STARTCHAR cns4_2541
ENCODING 9537
SWIDTH 960 0
DWIDTH 34 0
BBX 34 34 0 -2
BITMAP
0000000000
0000000000
0000380000
0000300000
0000600000
1800606000
0C007FF000
0600C06000
0600E06000
0301B0C000
030330C000
0066198000
00CC1B0000
00D80E0000
0090060000
01800F0000
018019C000
018070F000
0301C07E00
0307801F00
061D003600
0671FFF800
3C01803000
1C01803000
0C01803000
0C01803000
0C01803000
0C01803000
0C01803000
0C01FFF000
0001803000
0000000000
0000000000
0000000000
ENDCHAR

STARTCHAR cns4_2542
ENCODING 9538
SWIDTH 960 0
DWIDTH 34 0
BBX 34 34 0 -2
BITMAP
0000000000
0000000000
0000000000
0004000600
0007FFFF00
3006000600
1806000600
0C06070600
0C06060600
0C06060600
0006060600
0066060600
00C6066600
00C6FFF600
0186060600
0186060600
0306060600
0306060600
0606070600
06060D8600
06060CC600
0C060C6600
7C06186600
1C06186600
0C06303600
0C06603600
0C06600600
0C06C00600
0C06000600
0C06000600
0C07FFFE00
0006000600
0000000000
0000000000
ENDCHAR

STARTCHAR cns4_2543
ENCODING 9539
SWIDTH 960 0
DWIDTH 34 0
BBX 34 34 0 -2
BITMAP
0000000000
0000000000
0000380000
0000700000
1800606000
0C00FFF000
0601C0E000
060180C000
0303018000
0306030000
006C061800
00C7FFFC00
00C00C1800
01800C1800
01800C1800
01800C1800
031FFFFF00
03000C1800
06000C1800
06000C1800
0C000C1800
3C000C1800
1C07FFF800
0C000C1800
0C000C0000
0C000C0000
0C000C0000
06000C0000
06000C0000
06001C0000
0601FC0000
0000380000
0000000000
0000000000
ENDCHAR

STARTCHAR cns4_2544
ENCODING 9540
SWIDTH 960 0
DWIDTH 34 0
BBX 34 34 0 -2
BITMAP
0000000000
0200003000
03FFFFF800
0300003000
0300003000
0307003000
0306003000
030C003000
030C033000
031FFFB000
0318C03000
0330C03000
0360C03000
03C0C03000
0300C03000
0300C1B000
03FFFFF000
0300C03000
0300C03000
0300C03000
0338C3B000
0630C33000
0630C33000
0630C31100
0630C31900
0630C31900
0C3FFF0D00
0C30030D80
0C30030F80
1800000780
3000000780
6000000300
0000000000
0000000000
ENDCHAR

STARTCHAR cns4_2545
ENCODING 9541
SWIDTH 960 0
DWIDTH 34 0
BBX 34 34 0 -2
BITMAP
0000000000
0000000000
0000000000
0200001800
03FFFFFC00
0300001800
0300001800
0300001800
0300019800
037FFFD800
0300C01800
0300C01800
0300C01800
0310C31800
031FFF9800
0318031800
0318031800
0318031800
0318031800
0318031800
0318031800
061FFF1800
0618031800
0618031800
0618030C80
0618030C80
0C18030C80
0C1FFF0680
0C18030680
1818030380
1800000380
3000000180
6000000080
0000000000
ENDCHAR

STARTCHAR cns4_2546
ENCODING 9542
SWIDTH 960 0
DWIDTH 34 0
BBX 34 34 0 -2
BITMAP
0000000000
0000000000
0000000000
0007083000
00060FF800
0C0C0C3000
03980C3000
00E00C3000
00F80C3000
039C0C3000
060E0C3000
18E70C3000
00C18C3000
00C00C3000
00C00C3000
00C18C3000
1FFFCC3000
01800C3000
01800C3000
01B8183000
0330183000
0330183000
0330183000
0660303000
0663303100
0C61B03100
0CC1E03180
188FE03180
19FDC03B80
37C1803F80
6203001F00
0006000000
0000000000
0000000000
ENDCHAR

STARTCHAR cns4_2547
ENCODING 9543
SWIDTH 960 0
DWIDTH 34 0
BBX 34 34 0 -2
BITMAP
0000000000
0000000000
0070000700
0060000600
0060000600
0060038600
0060030600
0060C30600
3FFFE30600
0060030600
0060030600
0060030600
0060030600
0060030600
0060030600
0060C30600
1FFFE30600
0000030600
0000030600
0000030600
0801830600
0FFFC30600
0C01830600
0C01830600
0C01800600
0C01800600
0C01800600
0C01800600
0C01800600
0FFF800E00
0C0181FC00
0C01803800
0000000000
0000000000
ENDCHAR

STARTCHAR cns4_2548
ENCODING 9544
SWIDTH 960 0
DWIDTH 34 0
BBX 34 34 0 -2
BITMAP
0000000000
0000000000
001C000700
0018000600
0038038600
0078030600
006C030600
00C6030600
00C3030600
0181830600
0301C30600
0600E30600
0C007B0600
1801BB0600
33FFC30600
0000030600
0000030600
0000030600
0000030600
0400C30600
07FFE30600
0600C30600
0600C30600
0600C30600
0600C00600
0600C00600
0600C00600
0600C00600
0600C00E00
07FFC0FE00
0600C01C00
0600C00000
0000000000
0000000000
ENDCHAR

STARTCHAR cns4_2549
ENCODING 9545
SWIDTH 960 0
DWIDTH 34 0
BBX 34 34 0 -2
BITMAP
0000000000
0000000000
0073800700
0063000600
0063000600
006301C600
0063018600
0063018600
0063018600
00631D8600
0663398600
0363618600
0363C18600
0363818600
0063018600
0063018600
0063018600
0073818600
00E3C18600
01E3618600
0363318600
0663198600
0063018600
00C3018600
00C3080600
00C3080600
0183080600
0183080600
03030C0600
06039C0E00
0C03FCFE00
1801F81C00
3000000000
0000000000
ENDCHAR

STARTCHAR cns4_254A
ENCODING 9546
SWIDTH 960 0
DWIDTH 34 0
BBX 34 34 0 -2
BITMAP
0000000000
0000000000
0000000700
0380000600
070001C600
0600018600
0600018600
0C00C18600
0FFFE18600
1830018600
3030018600
6030018600
0030018600
0030018600
0030618600
3FFFF18600
0030018600
0030018600
0030018600
0030018600
1C30E18600
1830C18600
1830C18600
1830C18600
1830C18600
1830C00600
1830C00600
1830C00600
1830C00600
1FFFC00E00
1800C0FE00
0000001C00
0000000000
0000000000
ENDCHAR

STARTCHAR cns4_254B
ENCODING 9547
SWIDTH 960 0
DWIDTH 34 0
BBX 34 34 0 -2
BITMAP
0000000000
0000000000
0070000700
0060000600
00E0000600
00C0C1C600
01FFE18600
0381C18600
0703818600
0E03018600
1B86018600
71CE018600
00FC018600
0030018600
006E018600
01CC018600
031C018600
0C38318600
303FF98600
0060718600
00C0E18600
0180C18600
07C1818600
0C63818600
383B018600
001E000600
001C000600
0038000600
00F0000600
01C0000E00
070000FE00
1C00001C00
3000000000
0000000000
ENDCHAR

STARTCHAR cns4_254C
ENCODING 9548
SWIDTH 960 0
DWIDTH 34 0
BBX 34 34 0 -2
BITMAP
0000000000
0000000000
0070000700
0060000600
00E0000600
00C0C00600
01FFE1C600
0180C18600
0380C18600
06C1818600
0C63018600
1826018600
303E018600
001C018600
001C018600
0076018600
00C3818600
0380F18600
0E003D8600
1800018600
0200C18600
03FFE18600
0300C18600
0300C18600
0300C18600
0300C00600
0300C00600
0300C00600
0300C00600
03FFC00E00
0300C0FE00
0300C01C00
0000000000
0000000000
ENDCHAR

STARTCHAR cns4_254D
ENCODING 9549
SWIDTH 960 0
DWIDTH 34 0
BBX 34 34 0 -2
BITMAP
0000000000
0000000000
0000000700
001C000600
0038000600
003801C600
007C018600
00E6018600
00C3018600
0181818600
0300C18600
0600718600
0C003D8600
1800DD8600
37FFE18600
0018018600
0018018600
0018018600
0018018600
0018018600
0018618600
07FFF18600
0018018600
0018018600
0018000600
0018000600
0018000600
0018380600
001FF00600
03F8000E00
0F0000FE00
0C00001C00
0000000000
0000000000
ENDCHAR

STARTCHAR cns4_254E
ENCODING 9550
SWIDTH 960 0
DWIDTH 34 0
BBX 34 34 0 -2
BITMAP
0000000000
0000000000
0000000700
001C000600
0038000600
003801C600
007C018600
00E6018600
00C3018600
0181818600
0300C18600
0600618600
0C003D8600
18001D8600
3001818600
03FFC18600
0000018600
0000018600
0000018600
0000318600
1FFFF98600
0060018600
0060018600
00C0018600
00C0000600
00C1800600
0180C00600
0100600600
03FFF00600
0FF0300E00
060030FE00
0000001C00
0000000000
0000000000
ENDCHAR

STARTCHAR cns4_254F
ENCODING 9551
SWIDTH 960 0
DWIDTH 34 0
BBX 34 34 0 -2
BITMAP
0000000000
0000000000
0000000000
0007038000
0C0E030000
060C030000
0618030000
0318030000
0331830000
3FFFC30000
0318030600
03183FFF00
0318030600
0318030600
0318030600
0318030600
0318C30600
3FFFE30600
0618060600
0618060600
0618060600
0618060600
06180C0C00
06180C0C00
0C180C0C00
0C18180C00
0C18180C00
0C18301800
1818301800
1818603000
3018CFE000
601981C000
001B000000
0000000000
ENDCHAR

STARTCHAR cns4_2550
ENCODING 9552
SWIDTH 960 0
DWIDTH 34 0
BBX 34 34 0 -2
BITMAP
0000000000
0000000000
0000000000
0000638700
1FFFF30600
0030030600
0060030600
00C0C30600
01FFE30600
0300C30600
0601830600
0D83030600
18C6030600
307C030600
0018030600
0070000E00
01C380FE00
0703001C00
1C03000000
0003003000
07FFFFF800
0003003000
0003003000
0006003000
0006003000
000C006000
000C006000
0018006000
003000C000
00601FC000
01C0038000
0300000000
0C00000000
0000000000
ENDCHAR

STARTCHAR cns4_2551
ENCODING 9553
SWIDTH 960 0
DWIDTH 34 0
BBX 34 34 0 -2
BITMAP
0000000000
0000000000
0038000000
0070000000
0060000000
00C0000600
01FFFFFF00
0180000600
0303800600
0303800600
0606C00600
0C0C600600
180C300600
30181C0600
0030070600
00C01BE600
01BFFC0600
0700000600
0C00000600
0040030600
007FFF8C00
0060030C00
0060030C00
0060030C00
0060030C00
0060030C00
007FFF0C00
0060030C00
0000000C00
0000001800
000003F800
0000007000
0000000000
0000000000
ENDCHAR

STARTCHAR cns4_2552
ENCODING 9554
SWIDTH 960 0
DWIDTH 34 0
BBX 34 34 0 -2
BITMAP
0000000000
0000000000
0038000000
0070000000
0060000000
00C0000600
01FFFFFF00
0180000600
0301C00600
0601800600
0C03000600
18230C0600
303FFE0600
60300C0600
00300C0600
0031CC0600
00318C0600
00318C0600
00318CC600
03FFFFE600
00318C0600
00318C0C00
00318C0C00
00318C0C00
00618C0C00
00618C0C00
00618C0C00
00C01C0C00
00C1FC1800
0180383800
030003F800
0000007000
0000000000
0000000000
ENDCHAR

STARTCHAR cns4_2553
ENCODING 9555
SWIDTH 960 0
DWIDTH 34 0
BBX 34 34 0 -2
BITMAP
0000000000
0000000000
0100003000
01FFFFF800
0180603000
0180603000
0180603000
0180603000
0180603000
01FFFFF000
0180603000
0180603000
0180603000
0180C03000
0180C03000
01FFFFF000
0181803000
01831C0000
0006180000
001C180000
0070180C00
1FFFFFFE00
0000180000
0000180000
0000180000
0000180000
0000180000
0000180000
0000180000
0000180000
0000180000
0000180000
0000180000
0000000000
ENDCHAR

STARTCHAR cns4_2554
ENCODING 9556
SWIDTH 960 0
DWIDTH 34 0
BBX 34 34 0 -2
BITMAP
0000000000
0000E00000
0000C00000
0000C00000
0000C03000
0000FFF800
0000C00000
0000C00000
3800C00000
3100C03000
31FFFFF800
3180003000
318003B000
31B0073000
319C063000
31870C3000
3181D83000
3180703000
3180783000
3180DC3000
3183863000
3186033000
319C01B000
31F0003000
3180003000
31FFFFF000
3180003000
3180003000
3000000600
3FFFFFFF00
3000000000
3000000000
0000000000
0000000000
ENDCHAR

STARTCHAR cns4_2555
ENCODING 9557
SWIDTH 960 0
DWIDTH 34 0
BBX 34 34 0 -2
BITMAP
0000000000
0000000000
007701C000
0066018000
0066018000
0066018000
0066018000
0066018000
1866318000
0C66798000
0666618000
0666C18000
0667818000
006701E000
006601B000
0066019800
0066018C00
00E7818600
01E7C18700
0766618300
0EE6318000
3CC6318000
18C6018000
00C6018000
0186018000
0186098000
0306098000
03060D8000
06071D8000
0C07FD8000
1803F98000
3000018000
0000000000
0000000000
ENDCHAR

ENDFONT
